<svg width="273" height="240" viewBox="0 0 273 240" fill="none" xmlns="http://www.w3.org/2000/svg">
<path d="M246.624 235.839C275.592 213.812 288.494 152.732 241.457 122.781C210.316 102.956 190.949 114.266 155.917 101.151C113.15 85.1445 106.775 36.7837 54.7542 60.5798C27.1946 73.1824 8.08936 108.703 4.72844 149.072C1.43444 188.607 15.4461 215.733 44.0794 234.295C111.32 237.156 178.694 236.638 246.624 235.839Z" fill="#E9F2FF"/>
<path d="M236.335 135.847C229.974 135.847 224.817 130.69 224.817 124.329C224.817 117.974 229.974 112.817 236.335 112.817C242.69 112.817 247.847 117.974 247.847 124.329C247.847 130.69 242.69 135.847 236.335 135.847ZM266.664 130.977V117.687H261.624C261.019 115.363 260.097 113.172 258.914 111.154L262.477 107.585L253.079 98.186L249.51 101.75C247.492 100.567 245.301 99.6451 242.977 99.0394V94.0002H229.686V99.0394C227.363 99.6451 225.172 100.567 223.154 101.75L219.585 98.186L210.186 107.585L213.749 111.154C212.567 113.172 211.65 115.363 211.039 117.687H206V130.977H211.039C211.65 133.301 212.567 135.492 213.749 137.51L210.186 141.079L219.585 150.478L223.154 146.915C225.172 148.097 227.363 149.014 229.686 149.625V154.664H242.977V149.625C245.301 149.014 247.492 148.097 249.51 146.915L253.079 150.478L262.477 141.079L258.914 137.51C260.097 135.492 261.019 133.301 261.624 130.977H266.664Z" fill="#CCE1FF"/>
<path d="M204.404 184.393C201.249 185.604 197.71 184.027 196.5 180.873C195.291 177.722 196.867 174.183 200.022 172.972C203.173 171.764 206.712 173.34 207.921 176.491C209.131 179.646 207.555 183.185 204.404 184.393ZM218.518 176.208L215.99 169.617L213.49 170.576C212.748 169.539 211.873 168.628 210.903 167.852L211.992 165.404L205.542 162.531L204.45 164.977C203.224 164.775 201.962 164.734 200.694 164.876L199.736 162.377L193.144 164.906L194.103 167.405C193.066 168.147 192.155 169.021 191.379 169.992L188.931 168.904L186.059 175.353L188.505 176.445C188.302 177.671 188.264 178.931 188.403 180.2L185.904 181.159L188.433 187.75L190.932 186.791C191.677 187.828 192.549 188.74 193.519 189.515L192.431 191.963L198.88 194.837L199.972 192.39C201.198 192.592 202.459 192.63 203.727 192.491L204.686 194.99L211.277 192.462L210.319 189.963C211.355 189.217 212.267 188.346 213.043 187.376L215.491 188.464L218.364 182.015L215.918 180.922C216.12 179.697 216.16 178.435 216.019 177.167L218.518 176.208Z" stroke="#E0EDFF" stroke-width="1.33333" stroke-miterlimit="10"/>
<path d="M187.386 158.62C185.255 159.438 182.864 158.372 182.046 156.241C181.229 154.111 182.294 151.721 184.426 150.903C186.555 150.086 188.946 151.151 189.763 153.28C190.581 155.412 189.515 157.803 187.386 158.62V158.62ZM196.923 153.089L195.214 148.636L193.526 149.284C193.024 148.583 192.433 147.967 191.778 147.443L192.513 145.788L188.155 143.847L187.417 145.5C186.59 145.364 185.737 145.336 184.88 145.432L184.233 143.744L179.779 145.452L180.427 147.141C179.726 147.642 179.11 148.233 178.586 148.888L176.931 148.153L174.99 152.511L176.644 153.249C176.507 154.077 176.481 154.929 176.575 155.786L174.887 156.434L176.595 160.888L178.284 160.24C178.787 160.94 179.376 161.556 180.031 162.08L179.296 163.734L183.654 165.675L184.392 164.023C185.22 164.16 186.072 164.185 186.929 164.091L187.577 165.78L192.031 164.071L191.383 162.383C192.083 161.879 192.699 161.29 193.224 160.634L194.878 161.37L196.819 157.012L195.166 156.274C195.303 155.446 195.33 154.594 195.234 153.737L196.923 153.089Z" stroke="#E0EDFF" stroke-width="1.33333" stroke-miterlimit="10"/>
<path d="M195.372 75.1135C195.372 81.7918 192.251 87.7448 187.395 91.5915C183.819 94.4292 179.297 96.1128 174.372 96.1128C169.46 96.1128 164.939 94.4292 161.35 91.5915C156.488 87.7448 153.373 81.7918 153.373 75.1135C153.373 63.5162 162.776 54.1137 174.372 54.1137C185.97 54.1137 195.372 63.5162 195.372 75.1135Z" fill="#E9F2FF"/>
<path d="M174.373 61.3657C178.17 61.3657 181.248 64.4432 181.248 68.2392C181.248 72.0352 178.17 75.1133 174.373 75.1133C170.577 75.1133 167.5 72.0352 167.5 68.2392C167.5 64.4432 170.577 61.3657 174.373 61.3657Z" fill="#D2E2FA"/>
<path d="M187.396 88.943C183.821 91.7808 179.299 93.4644 174.374 93.4644C169.462 93.4644 164.94 91.7808 161.352 88.943C162.695 83.034 163.931 77.9325 165.217 76.6393C167.034 74.8234 171.858 73.7638 174.368 73.7638C176.877 73.7638 181.929 75.0503 182.862 75.9836C184.766 77.8819 186.406 83.1224 187.396 88.943Z" fill="#D2E2FA"/>
<path d="M144.193 126.88V116.51C144.193 113.68 146.487 111.386 149.317 111.386H181.989C184.819 111.386 187.113 113.68 187.113 116.51V126.88C187.113 129.711 184.819 132.004 181.989 132.004H149.323C146.493 132.01 144.193 129.711 144.193 126.88Z" fill="#E0EDFF"/>
<path d="M157.991 126.338L142.18 141.74L167.806 128.79" fill="#E0EDFF"/>
<path d="M148.156 116.254V116.199C148.156 115.778 148.498 115.437 148.919 115.437H165.072C165.492 115.437 165.834 115.778 165.834 116.199V116.254C165.834 116.675 165.492 117.017 165.072 117.017H148.919C148.498 117.017 148.156 116.675 148.156 116.254Z" fill="#E9F2FF"/>
<path d="M166.561 116.255V116.2C166.561 115.779 166.902 115.437 167.323 115.437H181.42C181.841 115.437 182.183 115.779 182.183 116.2V116.255C182.183 116.675 181.841 117.017 181.42 117.017H167.323C166.902 117.017 166.561 116.675 166.561 116.255Z" fill="#E9F2FF"/>
<path d="M160.406 119.725V119.67C160.406 119.249 160.748 118.908 161.169 118.908H181.421C181.842 118.908 182.183 119.249 182.183 119.67V119.725C182.183 120.146 181.842 120.488 181.421 120.488H161.169C160.748 120.488 160.406 120.146 160.406 119.725Z" fill="#E9F2FF"/>
<path d="M148.156 119.725V119.67C148.156 119.249 148.498 118.908 148.919 118.908H157.965C158.386 118.908 158.728 119.249 158.728 119.67V119.725C158.728 120.146 158.386 120.488 157.965 120.488H148.919C148.498 120.488 148.156 120.146 148.156 119.725Z" fill="#E9F2FF"/>
<path d="M163.219 123.196V123.141C163.219 122.72 163.56 122.379 163.981 122.379H181.421C181.842 122.379 182.184 122.72 182.184 123.141V123.196C182.184 123.617 181.842 123.958 181.421 123.958H163.981C163.56 123.958 163.219 123.617 163.219 123.196Z" fill="#E9F2FF"/>
<path d="M148.156 123.196V123.141C148.156 122.72 148.498 122.379 148.919 122.379H160.966C161.387 122.379 161.729 122.72 161.729 123.141V123.196C161.729 123.617 161.387 123.958 160.966 123.958H148.919C148.498 123.958 148.156 123.617 148.156 123.196Z" fill="#E9F2FF"/>
<path d="M148.156 126.667V126.612C148.156 126.191 148.498 125.85 148.919 125.85H153.39C153.811 125.85 154.153 126.191 154.153 126.612V126.667C154.153 127.088 153.811 127.43 153.39 127.43H148.919C148.498 127.43 148.156 127.088 148.156 126.667Z" fill="#E9F2FF"/>
<path d="M155.734 126.667V126.612C155.734 126.191 156.076 125.85 156.497 125.85H181.421C181.842 125.85 182.184 126.191 182.184 126.612V126.667C182.184 127.088 181.842 127.43 181.421 127.43H156.497C156.076 127.43 155.734 127.088 155.734 126.667Z" fill="#E9F2FF"/>
<path d="M38.0556 84.7895C48.4878 80.8306 60.1541 86.0778 64.113 96.5094C68.0719 106.942 62.8246 118.607 52.393 122.567C41.9611 126.526 30.2948 121.278 26.3357 110.847C22.3765 100.415 27.6237 88.7484 38.0556 84.7895Z" fill="#E0EDFF"/>
<path d="M44.8767 115.713C43.7065 118.15 40.7816 119.177 38.3443 118.007C35.9069 116.837 34.8796 113.913 36.0498 111.475C37.22 109.037 40.1447 108.01 42.5823 109.18C45.0198 110.351 46.047 113.275 44.8767 115.713Z" fill="#D2E2FA"/>
<path d="M37.8926 115.351L37.6562 112.246L40.2271 110.489L43.0343 111.837L43.2706 114.942L40.6998 116.699L37.8926 115.351Z" fill="#E0EDFF"/>
<path d="M54.3984 95.8808C53.2279 98.3184 50.3035 99.3456 47.866 98.175C45.4284 97.0051 44.4012 94.0801 45.5711 91.6432C46.7417 89.2056 49.6667 88.1784 52.1036 89.3483C54.5412 90.5189 55.5684 93.4433 54.3984 95.8808Z" fill="#D2E2FA"/>
<path d="M47.5566 95.2228L47.725 91.2749L50.7 88.6745L53.5072 90.0226L53.3388 93.9705L50.3633 96.5703L47.5566 95.2228Z" fill="#E0EDFF"/>
<path d="M43.8547 111.331L40.1094 109.533L42.877 103.148C43.0526 102.743 43.244 102.345 43.4503 101.955L46.7016 95.8023L50.447 97.6006L47.7777 103.888C47.5715 104.375 47.3428 104.851 47.092 105.316L43.8547 111.331Z" fill="#D2E2FA"/>
<path d="M59.2578 114.548C59.9801 114.213 71.5713 114.742 71.5713 114.742L63.2161 107.07L59.2578 114.548Z" fill="#E9F2FF"/>
<path d="M62.9061 0.234455C73.8727 0.169186 82.8159 9.00563 82.8818 19.9722C82.9476 30.9388 74.1106 39.8826 63.144 39.9479C52.1774 40.0138 43.2342 31.1773 43.1683 20.2107C43.1025 9.24415 51.9395 0.300335 62.9061 0.234455Z" fill="#E9F2FF"/>
<path d="M63.6875 19.8457H62.3613V3.16952H63.6875V19.8457Z" fill="#D2E2FA"/>
<path d="M62.2693 19.8457L63.0245 20.9363L49.1263 30.5566L48.3711 29.466L62.2693 19.8457Z" fill="#D2E2FA"/>
<path d="M64.8524 20.0913C64.8524 21.1008 64.0344 21.9194 63.0248 21.9194C62.0153 21.9194 61.1973 21.1008 61.1973 20.0913C61.1973 19.0823 62.0153 18.2637 63.0248 18.2637C64.0344 18.2637 64.8524 19.0823 64.8524 20.0913Z" fill="#D2E2FA"/>
<path d="M146.101 196.091C144.924 177.938 152.866 159.15 166.244 148.402C166.658 166.647 158.795 185.111 146.101 196.091Z" fill="#E0EDFF"/>
<path d="M164.061 153.288C158.424 163.792 153.55 174.784 149.5 186.124C144.577 199.892 140.704 214.519 132.273 226.061" stroke="#DBE8FB" stroke-width="1.33333" stroke-miterlimit="10" stroke-linecap="round"/>
<path d="M141.881 207.51C148.652 192.364 162.09 180.92 176.907 177.681C170.6 193.913 156.411 206.296 141.881 207.51Z" fill="#E0EDFF"/>
<path d="M173.272 181.018C163.153 189.924 152.862 198.58 142.4 206.979" stroke="#DBE8FB" stroke-width="1.33333" stroke-miterlimit="10" stroke-linecap="round"/>
<path d="M137.885 220.704C146.931 207.193 163.621 200.141 177.431 203.997C167.275 217.337 150.548 224.407 137.885 220.704Z" fill="#E0EDFF"/>
<path d="M174.12 204.973C162.261 212.39 149.469 217.868 136.281 221.162" stroke="#DBE8FB" stroke-width="1.33333" stroke-miterlimit="10" stroke-linecap="round"/>
<path d="M142.772 202.917C145.663 187.704 141.326 170.746 131.67 159.528C127.711 174.479 131.487 191.998 142.772 202.917Z" fill="#E0EDFF"/>
<path d="M132.662 163.407C134.565 177.559 137.951 190.815 143.197 203.771" stroke="#DBE8FB" stroke-width="1.33333" stroke-miterlimit="10" stroke-linecap="round"/>
<path d="M137.806 215.874C136.574 200.233 128.558 185.544 116.834 177.437C117.511 185.721 119.713 193.706 123.208 200.965C127.228 209.304 133.133 214.593 137.806 215.874Z" fill="#E0EDFF"/>
<path d="M118.572 180.603C123.184 193.645 129.821 205.735 138.098 216.203" stroke="#DBE8FB" stroke-width="1.33333" stroke-miterlimit="10" stroke-linecap="round"/>
<path d="M212.91 226.359C218.229 211.927 217.167 195.567 210.128 183.562C207.334 191.217 206.004 199.227 206.12 207.12C206.248 216.185 209.298 223.309 212.91 226.359Z" fill="#E0EDFF"/>
<path d="M228.348 212.122C234.747 195.475 249.466 181.97 265.698 177.858C258.585 194.28 244.067 207.517 228.348 212.122Z" fill="#CCE1FF"/>
<path d="M261.763 181.317C252.479 188.374 243.659 196.176 235.436 204.625C225.444 214.885 216.02 226.329 203.838 233.173" stroke="#D9E8FC" stroke-width="1.33333" stroke-miterlimit="10" stroke-linecap="round"/>
<path d="M219.936 220.57C232.129 209.841 248.697 205.131 263.117 208.291C250.893 220.18 233.276 225.42 219.936 220.57Z" fill="#CCE1FF"/>
<path d="M258.537 209.786C245.941 213.592 233.295 217.1 220.607 220.314" stroke="#D9E8FC" stroke-width="1.33333" stroke-miterlimit="10" stroke-linecap="round"/>
<path d="M210.992 230.696C224.528 222.352 242.169 222.882 252.795 231.953C238.351 239.688 220.667 239.157 210.992 230.696Z" fill="#CCE1FF"/>
<path d="M249.472 231.465C235.954 233.234 222.394 232.892 209.395 230.447" stroke="#D9E8FC" stroke-width="1.33333" stroke-miterlimit="10" stroke-linecap="round"/>
<path d="M222.609 216.843C231.399 204.472 234.516 187.594 230.582 173.661C220.95 185.361 217.107 202.508 222.609 216.843Z" fill="#CCE1FF"/>
<path d="M229.867 177.517C225.744 190.9 223.31 204.088 222.639 217.777" stroke="#D9E8FC" stroke-width="1.33333" stroke-miterlimit="10" stroke-linecap="round"/>
<path d="M210.359 187.088C209.09 200.587 209.999 214.068 213.024 226.768" stroke="#DBE8FB" stroke-width="1.33333" stroke-miterlimit="10" stroke-linecap="round"/>
<path d="M57.4499 196.911C55.0917 182.652 59.9674 167.538 70.266 157.21C71.4512 171.963 66.9372 186.993 57.4499 196.911Z" fill="#E0EDFF"/>
<path d="M68.0015 163C66.7943 175.077 63.0617 186.881 57.0996 197.512" stroke="#DBE8FB" stroke-width="1.33333" stroke-miterlimit="10" stroke-linecap="round"/>
<path d="M46.9926 183.017C40.4693 163.064 22.2651 146.942 1.08789 142.367C9.99102 159.629 26.14 173.366 46.9926 183.017Z" fill="#CCE1FF"/>
<path d="M48.0979 186.111C33.8089 178.031 15.9054 176.25 0.384766 181.357C14.78 188.548 31.8372 190.551 48.0979 186.111Z" fill="#CCE1FF"/>
<path d="M52.0501 190.438C36.6066 188.299 20.4345 192.105 7.89258 200.831C22.1141 206.001 39.1767 202.648 52.0501 190.438Z" fill="#CCE1FF"/>
<path d="M56.866 199.89C41.5728 199.826 26.536 207.095 17.5469 218.896C24.3531 220.26 31.5807 219.445 37.8248 216.617C44.0692 213.789 49.3008 208.964 56.866 199.89Z" fill="#CCE1FF"/>
<path d="M67.6477 215.704C52.5679 213.119 36.5006 217.793 25.627 227.927C32.117 230.392 39.3841 230.786 46.0244 229.035C52.6649 227.284 58.6435 223.395 67.6477 215.704Z" fill="#CCE1FF"/>
<path d="M51.366 183.962C41.4083 170.54 38.7054 152.454 44.3629 137.067C48.6832 144.383 52.4103 152.117 54.1506 160.339C55.8904 168.561 55.5524 177.326 51.366 183.962Z" fill="#CCE1FF"/>
<path d="M5.72461 145.943C36.0321 165.334 59.7341 194.237 72.2458 227.076" stroke="#D9E8FC" stroke-width="1.33333" stroke-miterlimit="10" stroke-linecap="round"/>
<path d="M45.3066 144.142C48.9929 159.111 51.2358 174.393 51.9947 189.721" stroke="#D9E8FC" stroke-width="1.33333" stroke-miterlimit="10" stroke-linecap="round"/>
<path d="M6.76367 181.706C20.6583 184.348 34.7807 185.78 48.9059 185.99" stroke="#D9E8FC" stroke-width="1.33333" stroke-miterlimit="10" stroke-linecap="round"/>
<path d="M15.1367 199.645C27.9487 198.714 40.553 195.61 52.2039 190.512" stroke="#D9E8FC" stroke-width="1.33333" stroke-miterlimit="10" stroke-linecap="round"/>
<path d="M22.8125 216.742C34.6344 210.845 46.4571 204.942 58.2795 199.044" stroke="#D9E8FC" stroke-width="1.33333" stroke-miterlimit="10" stroke-linecap="round"/>
<path d="M30.502 227.155C45.9368 224.177 50.5228 220.623 67.654 215.706" stroke="#D9E8FC" stroke-width="1.33333" stroke-miterlimit="10" stroke-linecap="round"/>
<path d="M128.216 198.885C128.216 198.885 129.552 211.128 131.046 212.11C133.718 213.873 164.645 217.947 164.645 217.947L163.632 225.993C163.632 225.993 121.274 229.8 119.475 227.683C116.351 224.011 110.861 206.296 110.861 206.296L128.216 198.885Z" fill="#E1534D"/>
<path d="M107.795 167.366L111.217 159.15C111.217 159.15 120.501 163.511 123.563 168.897C126.839 174.656 130.847 205.272 130.847 205.272C130.847 205.272 114.456 209.048 111.443 207.443C108.429 205.839 107.795 167.366 107.795 167.366Z" fill="#216FD9"/>
<path d="M81.7279 129.229C79.3306 128.351 76.793 127.582 74.2249 127.777C71.6568 127.973 69.0338 129.333 68.1615 131.59C67.5393 133.188 67.826 135.073 66.8439 136.513C65.9045 137.891 64.0379 138.465 62.2933 138.581C60.5426 138.703 58.7797 138.471 57.0412 138.696C51.6732 139.41 47.8424 145.242 49.6053 150.018C50.3068 151.921 51.7464 153.739 51.417 155.722C51.0693 157.844 48.8428 159.241 47.9278 161.212C46.7139 163.835 48.1657 167.013 50.563 168.8C52.9603 170.581 56.0774 171.258 59.103 171.71C63.2693 172.332 67.5698 172.625 71.6873 171.746C75.8048 170.868 79.7393 168.696 81.8682 165.305C82.8137 163.804 83.3871 162.108 84.4851 160.699C86.7543 157.789 90.7742 156.661 93.9401 154.599C97.3988 152.336 99.9364 147.932 97.899 144.485C95.9348 141.173 90.823 140.435 88.7734 137.171C87.9255 135.823 87.7242 134.219 87.1752 132.749C86.614 131.273 85.272 130.529 81.7279 129.229Z" fill="#16233A"/>
<path d="M95.6968 169.861C96.3007 170.556 97.0144 171.319 98.0026 171.386C99.0457 171.459 99.918 170.721 100.589 170.007C104.054 166.341 106.341 161.84 107.269 157.197C106.408 156.709 105.579 156.24 104.829 155.801C104.133 155.386 103.609 154.806 103.31 154.129C103.102 153.629 103.029 153.104 103.084 152.555C103.572 147.968 104.005 145.412 105.615 140.758C97.966 139.032 90.7497 136.982 86.6017 133.517C86.0954 135.652 85.4976 139.831 84.2227 143.973C82.8624 148.359 80.7396 152.696 77.1406 154.562C84.2044 158.735 90.5057 163.92 95.6968 169.861Z" fill="#F7906C"/>
<path d="M103.084 152.561C103.029 153.11 103.102 153.641 103.31 154.135C98.7834 159.625 88.6635 152.452 84.2227 143.979C85.4976 139.837 86.0954 135.658 86.6017 133.523C90.7436 136.988 97.966 139.044 105.615 140.764C104.005 145.418 103.572 147.968 103.084 152.561Z" fill="#E1534D"/>
<path d="M115.687 218.93C114.687 225.554 121.836 232.685 122.013 236.223C106.83 236.223 75.0249 237.15 58.8294 234.948C58.0913 230.861 66.0884 221.669 66.0884 212.592C66.0884 211.39 66.0396 210.073 65.942 208.657C65.6858 204.607 65.088 199.788 64.4231 194.847C62.6175 181.592 60.2141 167.415 61.9892 164.475C65.4662 158.747 73.5975 154.855 77.6296 153.184C79.0143 152.611 79.9171 152.299 79.9842 152.263C85.0411 160.888 95.3318 168.245 99.2175 167.915C100.297 167.83 103.5 166.714 105.616 156.057C106.44 156.527 107.263 156.96 108.081 157.381C112.101 159.473 115.87 161.199 116.956 163.889C119.823 170.972 122.635 188.826 122.013 195.177C121.385 201.582 118.811 206.474 117.005 212.903C116.584 214.41 116.2 216.008 115.889 217.729C115.809 218.112 115.748 218.515 115.687 218.93Z" fill="#2F80ED"/>
<path d="M122.013 236.223C106.83 236.223 75.0249 237.15 58.8294 234.948C58.0913 230.861 66.0884 221.669 66.0884 212.592C66.0884 211.39 66.0396 210.073 65.942 208.657C65.6858 204.607 65.088 199.788 64.4231 194.847C67.2962 197.879 71.4869 185.069 73.3413 188.82C83.3758 209.072 91.2875 214.397 105.037 214.397C109.136 214.397 112.918 213.83 117.005 212.903C116.584 214.41 116.2 216.008 115.889 217.728C115.816 218.118 115.748 218.521 115.687 218.936C114.687 225.548 121.836 232.679 122.013 236.223Z" fill="#2979E4"/>
<path d="M108.08 157.381C107.427 162.12 105.494 168.507 99.8695 170.191C92.2689 172.466 81.2706 158.265 77.6289 153.184C79.0136 152.61 79.9164 152.299 79.9835 152.263C85.0404 160.888 95.3311 168.245 99.2168 167.915C100.297 167.83 103.499 166.714 105.616 156.057C106.439 156.521 107.263 156.954 108.08 157.381Z" fill="#2F80ED"/>
<path d="M111.203 229.092L111.148 234.381L205.698 234.942L205.894 228.946L111.203 229.092Z" fill="#345A73"/>
<path d="M246.678 181.909L244.574 179.774L175.705 179.322L141.154 229.287L142.96 230.739L246.678 181.909Z" fill="#345A73"/>
<path d="M177.036 181.171L142.961 230.739L208.048 231.062L246.679 181.909L177.036 181.171Z" fill="#1A2C4C"/>
<path d="M193.481 205.235C197.665 205.235 201.057 206.931 201.057 209.023C201.057 211.115 197.665 212.811 193.481 212.811C189.297 212.811 185.904 211.115 185.904 209.023C185.904 206.931 189.297 205.235 193.481 205.235Z" fill="#40718F"/>
<path d="M112.601 132.238C113.675 126.478 117.624 122.383 121.423 123.091C125.222 123.799 127.431 129.042 126.358 134.801C125.285 140.561 121.335 144.656 117.537 143.948C113.737 143.241 111.528 137.998 112.601 132.238Z" fill="#73C9F1"/>
<path d="M126.369 116.724C125.661 121.738 123.423 127.265 120.159 133.371C119.012 128.369 118.28 122.275 117.268 116.181C116.237 110.075 114.925 103.969 112.65 98.9793C112.138 97.8752 111.582 96.8199 110.979 95.8439C112.327 95.7158 113.693 95.8439 114.992 96.2038C117.024 96.7467 118.927 97.7959 120.482 99.1989C123.069 101.499 124.801 104.634 125.832 107.94C126.68 110.685 126.832 113.601 126.369 116.724Z" fill="#1A2C4C"/>
<path d="M122.537 121.909C122.501 122.897 122.434 123.904 122.342 124.904C120.951 141.13 114.138 152.263 103.713 152.263C88.9935 152.263 79.4531 135.756 79.4531 119.585C79.4531 103.633 89.2253 92.0862 100.663 93.4221C107.257 94.1785 112.076 96.3684 115.498 99.577C117.761 101.712 119.396 104.292 120.512 107.226C121.787 110.514 122.403 114.235 122.531 118.243C122.531 118.255 122.544 118.267 122.544 118.28C122.592 119.463 122.58 120.671 122.537 121.909Z" fill="#F7906C"/>
<path d="M122.537 121.909C122.098 120.342 121.445 118.81 120.555 117.438C111.874 121.976 101.529 123.727 91.72 122.068C89.8534 123.623 88.0295 125.154 86.1934 126.686C86.23 119.305 86.3337 114.309 89.2129 110.734C91.9152 107.379 96.4231 106.116 100.693 105.567C105.5 104.939 110.386 104.963 115.181 105.659C117.017 105.915 118.92 106.312 120.518 107.239C121.793 110.527 122.409 114.248 122.537 118.255C122.537 118.268 122.549 118.28 122.549 118.292C122.592 119.463 122.58 120.671 122.537 121.909Z" fill="#E1534D"/>
<path d="M124.66 111.917C122.641 113.625 120.11 115.041 117.267 116.187C109.179 119.451 98.6683 120.531 90.476 120.134C86.45 128.979 84.8213 132.151 83.7904 139.868C79.8559 136.177 76.6534 129.418 75.7018 124.105C74.7624 118.81 74.8539 113.253 76.3301 108.05C78.6542 99.8456 84.5163 95.4536 88.5789 93.3186C89.5915 92.7635 90.5065 92.3792 91.2141 92.0986C96.4052 90.0917 102.255 90.2747 107.58 91.9034C110.484 92.8062 112.93 94.3312 114.986 96.21C119.14 99.9615 121.708 105.043 123.367 108.849C123.892 110.014 124.313 111.07 124.66 111.917Z" fill="#1A2C4C"/>
<path d="M126.367 116.724C126.032 114.949 125.531 113.229 124.824 111.57C124.427 110.63 123.939 109.721 123.372 108.843C121.524 105.939 118.834 103.548 115.582 102.493C114.655 101.194 113.679 100.022 112.654 98.9853C108.964 95.2338 104.633 93.0866 100.046 92.3363C96.227 91.7202 92.2559 92.0679 88.5898 93.3123C89.6024 92.7572 90.5174 92.3729 91.225 92.0923C96.4161 90.0854 102.266 90.2684 107.591 91.8971C110.495 92.7999 112.941 94.3249 114.997 96.2037C117.028 96.7466 118.931 97.7958 120.487 99.1988C123.073 101.499 124.806 104.634 125.836 107.94C126.678 110.685 126.831 113.601 126.367 116.724Z" fill="#2A5070"/>
<path d="M95.166 126.673C97.8866 125.118 100.711 124.416 104.67 125.862" stroke="#1A2C4C" stroke-width="2.66667" stroke-miterlimit="10" stroke-linecap="round"/>
<path d="M113.797 126.563C116.127 124.825 119.58 124.648 121.379 126.563" stroke="#1A2C4C" stroke-width="2.66667" stroke-miterlimit="10" stroke-linecap="round"/>
<path d="M110.984 135.433C111.222 136.665 111.093 139.392 110.508 140.618" stroke="#CD3249" stroke-width="2.66667" stroke-miterlimit="10" stroke-linecap="round"/>
<path d="M101.792 132.724C102.412 132.724 102.915 133.517 102.915 134.493C102.915 135.47 102.412 136.262 101.792 136.262C101.173 136.262 100.67 135.47 100.67 134.493C100.67 133.517 101.173 132.724 101.792 132.724Z" fill="#25293B"/>
<path d="M116.46 131.901C117.08 131.901 117.583 132.693 117.583 133.67C117.583 134.647 117.08 135.439 116.46 135.439C115.841 135.439 115.338 134.647 115.338 133.67C115.338 132.693 115.841 131.901 116.46 131.901Z" fill="#25293B"/>
<path d="M109.593 143.027C109.593 143.027 109.374 143.454 108.953 144.034C108.294 144.918 107.172 146.138 105.641 146.614H105.634C104.988 146.822 104.286 146.895 103.506 146.754C101.212 146.346 100.608 144.229 100.498 142.6C100.474 142.283 100.474 141.99 100.48 141.722C100.492 141.063 100.565 140.624 100.565 140.624C104.219 142.637 109.593 143.027 109.593 143.027Z" fill="#CD3249"/>
<path d="M109.594 143.027C109.594 143.027 109.374 143.454 108.953 144.034C107.087 144.009 103.268 143.052 100.48 141.722C100.493 141.063 100.566 140.624 100.566 140.624C104.22 142.637 109.594 143.027 109.594 143.027Z" fill="#E0EDFF"/>
<path d="M105.634 146.608C104.988 146.815 104.286 146.888 103.505 146.748C101.212 146.339 100.608 144.223 100.498 142.594C101.608 142.728 102.682 143.155 103.572 143.832C104.506 144.546 105.219 145.516 105.634 146.608Z" fill="#EA509C"/>
<path d="M83.8277 123.873C83.8277 123.873 83.6996 116.266 86.8655 108.708C90.8366 99.223 98.9313 95.1665 106.782 94.892C116.243 94.5565 122.166 100.907 122.166 100.907C122.166 100.907 119.086 95.4715 113.01 93.9099C109.021 92.8851 103 92.7204 98.1688 94.6845C93.1912 96.7036 86.9875 102.31 84.7427 108.233C82.504 114.156 81.4121 123.379 81.4121 123.379L83.8277 123.873Z" fill="#537EC8"/>
<path d="M81.3593 121.45C85.4103 121.028 89.2112 125.663 89.8499 131.802C90.488 137.941 87.721 143.258 83.67 143.68C79.619 144.1 75.8175 139.466 75.1794 133.327C74.5413 127.189 77.3077 121.871 81.3593 121.45Z" fill="#73C9F1"/>
<path d="M79.3014 125.044C81.9171 124.652 84.5974 128.063 85.2886 132.663C85.9803 137.265 84.4205 141.313 81.8055 141.706C79.1898 142.099 76.5094 138.688 75.8183 134.087C75.1266 129.486 76.6864 125.437 79.3014 125.044Z" fill="#537EC8"/>
<path d="M106.842 147.596C109.012 147.596 110.771 148.692 110.771 150.042C110.771 151.393 109.012 152.488 106.842 152.488C104.673 152.488 102.914 151.393 102.914 150.042C102.914 148.692 104.673 147.596 106.842 147.596Z" fill="#4D92CF"/>
<path d="M87.1074 141.862C87.1074 141.862 92.878 149.28 102.913 150.042" stroke="#4D92CF" stroke-width="2.66667" stroke-miterlimit="10" stroke-linecap="round"/>
<path d="M111.149 214.971L110.771 224.725C110.771 224.725 75.495 235.296 69.6695 231.953C66.8269 230.318 64.1734 221.327 62.1909 212.549C60.1169 203.326 58.7871 194.347 58.7871 194.347L79.4661 190.296C79.4661 190.296 79.4783 202.905 80.1798 210.194C80.4299 212.909 80.7898 214.885 81.2717 215.209C83.0956 216.41 111.149 214.971 111.149 214.971Z" fill="#F7906C"/>
<path d="M80.1798 210.182C76.4222 211.402 69.1693 213.287 62.1909 212.543C60.1169 203.32 58.7871 194.341 58.7871 194.341L79.4661 190.29C79.4661 190.284 79.4783 202.893 80.1798 210.182Z" fill="#E1534D"/>
<path d="M110.142 215.068C115.388 213.946 124.269 211.25 127.954 210.322C130.57 209.664 137.384 213.189 139.184 216.514C139.971 217.966 140.715 226.188 137.988 225.341C136.622 224.914 136.847 221.388 136.42 219.948C136.073 218.777 134.962 217.642 133.273 216.666C134.401 219.478 134.359 221.931 134.237 224.968C134.212 225.639 134.169 226.341 133.846 226.92C133.517 227.5 132.809 227.915 132.199 227.659C131.577 227.402 131.363 226.628 131.223 225.951C130.741 223.608 130.253 221.266 130.058 218.618C130.107 221.223 130.052 223.834 129.887 226.432C129.765 228.421 128.777 229.513 127.563 229.165C127.02 229.013 126.801 228.513 126.569 227.854C126.203 229.129 125.288 230.538 124.104 230.001C123.385 229.678 122.939 227.079 123.067 224.407C120.798 225.816 118.236 226.414 115.284 226.548C112.636 226.67 109.928 226.176 108.336 224.377C108.495 221.565 109.422 217.404 110.142 215.068Z" fill="#F7906C"/>
<path d="M126.625 227.451C126.802 225.341 126.619 223.199 126.082 221.162" stroke="#CD3249" stroke-width="1.33333" stroke-miterlimit="10" stroke-linecap="round"/>
<path d="M77.1413 169.837C75.6407 165.61 70.1445 156.96 70.1445 156.96C70.1445 156.96 61.7571 160.449 58.7803 166.372C53.7417 176.401 56.3037 205.193 56.3037 205.193C63.093 208.035 76.7203 208.078 82.5214 207.26C82.5214 207.26 80.1486 178.285 77.1413 169.837Z" fill="#2F80ED"/>
<path d="M78.209 171.606C80.4965 182.555 81.7226 192.767 82.113 202.771" stroke="#216FD9" stroke-width="1.33333" stroke-miterlimit="10" stroke-linecap="round"/>
<path d="M17.2207 233.204H257.731V239.236H17.2207V233.204Z" fill="#1A2C4C"/>
</svg>
