<svg width="21" height="25" viewBox="0 0 21 25" fill="none" xmlns="http://www.w3.org/2000/svg">
<path d="M14.9847 0.0123924C14.9321 -0.04642 13.0361 0.0356079 11.3863 1.82629C9.73644 3.61543 9.99026 5.66767 10.0274 5.72029C10.0646 5.77292 12.3799 5.85494 13.858 3.77329C15.336 1.69164 15.0373 0.0727526 14.9847 0.0123924ZM20.1137 18.1715C20.0395 18.0229 16.5154 16.2617 16.8435 12.8753C17.1716 9.48739 19.4359 8.55877 19.4715 8.45817C19.507 8.35757 18.5475 7.23549 17.5306 6.66748C16.7841 6.26702 15.9578 6.03758 15.1116 5.99578C14.9444 5.99114 14.3641 5.84875 13.1708 6.17532C12.3845 6.39045 10.6124 7.08691 10.1249 7.11477C9.63584 7.14263 8.18101 6.30687 6.61629 6.08555C5.61493 5.89209 4.55321 6.2883 3.79329 6.5932C3.03492 6.89654 1.59246 7.76016 0.583367 10.0554C-0.425731 12.3491 0.102033 15.9831 0.479671 17.1129C0.857309 18.2412 1.44698 20.0906 2.44989 21.4402C3.34136 22.9632 4.5238 24.0202 5.01752 24.3793C5.51123 24.7384 6.90416 24.9767 7.86992 24.483C8.64686 24.0063 10.0491 23.7324 10.6032 23.7525C11.1557 23.7726 12.2453 23.9908 13.3611 24.5867C14.2449 24.8916 15.0806 24.7647 15.9179 24.4242C16.7552 24.0822 17.9671 22.7852 19.3817 20.1557C19.9187 18.933 20.1633 18.2721 20.1137 18.1715Z" fill="white"/>
</svg>
