<svg width="64" height="47" viewBox="0 0 64 47" fill="none" xmlns="http://www.w3.org/2000/svg">
<circle cx="40" cy="23.5" r="23.5" fill="#ECECEC"/>
<g clip-path="url(#clip0_652_4283)">
<path d="M40.0589 37.7135L39.4111 35.9704C39.2608 35.5661 38.8113 35.3601 38.4068 35.5104C38.0024 35.6607 37.7964 36.1103 37.9467 36.5147L38.5944 38.2577C39.2104 39.9151 38.9848 41.6983 37.9755 43.1502C36.9662 44.602 35.3732 45.4347 33.6049 45.4347C31.7455 45.4347 30.0522 44.4899 29.0755 42.9076L28.2845 41.6262C28.5715 41.139 28.7368 40.5719 28.7368 39.9667C28.7368 38.1577 27.2651 36.686 25.4561 36.686C23.9162 36.686 22.6215 37.7526 22.2701 39.1856H18.7298C18.3784 37.7526 17.0836 36.686 15.5438 36.686C13.7348 36.686 12.2631 38.1577 12.2631 39.9667C12.2631 40.5719 12.4284 41.1389 12.7154 41.6261L11.9244 42.9076C10.9476 44.4899 9.25439 45.4347 7.3949 45.4347C5.62673 45.4347 4.03377 44.602 3.02447 43.1502C2.01517 41.6983 1.7895 39.9151 2.4055 38.2577L6.15032 28.1807C7.10729 25.6056 9.59606 23.8754 12.3432 23.8754H28.6569C31.404 23.8754 33.8928 25.6055 34.8498 28.1807L35.4976 29.9239C35.6478 30.3283 36.0975 30.5344 36.5019 30.384C36.9062 30.2337 37.1122 29.7841 36.9619 29.3797L36.3141 27.6365C35.1309 24.4524 32.0536 22.3131 28.6569 22.3131H26.8366C26.4652 20.1861 24.6065 18.5637 22.3748 18.5637H21.2812V17.9778C21.2812 15.6735 19.4065 13.7988 17.1021 13.7988H8.90022C7.45732 13.7988 6.28343 12.6249 6.28343 11.182C6.28343 9.73908 7.45732 8.56519 8.90022 8.56519H20.51C20.9414 8.56519 21.2911 8.21548 21.2911 7.78406C21.2911 7.35264 20.9414 7.00293 20.51 7.00293H8.90022C6.59588 7.00293 4.72116 8.87765 4.72116 11.182C4.72116 13.4863 6.59588 15.361 8.90022 15.361H17.1021C18.545 15.361 19.7189 16.5349 19.7189 17.9778V18.5637H18.6253C16.3936 18.5637 14.5349 20.1861 14.1636 22.3131H12.3432C8.94647 22.3131 5.86919 24.4524 4.68594 27.6365L0.941108 37.7135C0.144353 39.8574 0.436184 42.164 1.74177 44.042C3.04728 45.9199 5.10782 46.997 7.39506 46.997C9.80032 46.997 11.9905 45.775 13.2539 43.7283L13.8442 42.772C14.3402 43.0738 14.9221 43.2476 15.544 43.2476C17.0838 43.2476 18.3786 42.181 18.73 40.748H22.2702C22.6216 42.181 23.9164 43.2476 25.4562 43.2476C26.078 43.2476 26.6598 43.0738 27.1558 42.7721L27.7461 43.7283C29.0095 45.7751 31.1997 46.997 33.6049 46.997C35.8921 46.997 37.9526 45.9199 39.2582 44.042C40.5638 42.164 40.8557 39.8574 40.0589 37.7135ZM18.6253 20.126H22.3748C23.7414 20.126 24.8951 21.0541 25.2388 22.3131H15.7613C16.105 21.0542 17.2588 20.126 18.6253 20.126ZM15.5439 41.6853C14.5963 41.6853 13.8254 40.9144 13.8254 39.9668C13.8254 39.0192 14.5963 38.2483 15.5439 38.2483C16.4915 38.2483 17.2624 39.0192 17.2624 39.9668C17.2624 40.9143 16.4915 41.6853 15.5439 41.6853ZM23.7378 39.9668C23.7378 39.0192 24.5087 38.2483 25.4562 38.2483C26.4038 38.2483 27.1747 39.0192 27.1747 39.9668C27.1747 40.9144 26.4038 41.6853 25.4562 41.6853C24.5087 41.6853 23.7378 40.9143 23.7378 39.9668Z" fill="black"/>
<path d="M27.7526 30.9707C27.7526 32.349 28.8739 33.4703 30.2522 33.4703C31.6306 33.4703 32.7519 32.349 32.7519 30.9707C32.7519 29.5924 31.6306 28.4711 30.2522 28.4711C28.8739 28.4711 27.7526 29.5925 27.7526 30.9707ZM31.1896 30.9707C31.1896 31.4876 30.7691 31.9081 30.2522 31.9081C29.7354 31.9081 29.3149 31.4876 29.3149 30.9707C29.3149 30.4538 29.7354 30.0333 30.2522 30.0333C30.7691 30.0333 31.1896 30.4539 31.1896 30.9707Z" fill="black"/>
<path d="M20.8787 30.9707C20.8787 32.349 22 33.4703 23.3783 33.4703C24.7566 33.4703 25.8779 32.349 25.8779 30.9707C25.8779 29.5924 24.7566 28.4711 23.3783 28.4711C22 28.4711 20.8787 29.5925 20.8787 30.9707ZM24.3156 30.9707C24.3156 31.4876 23.8952 31.9081 23.3783 31.9081C22.8614 31.9081 22.4409 31.4876 22.4409 30.9707C22.4409 30.4538 22.8614 30.0333 23.3783 30.0333C23.8952 30.0333 24.3156 30.4539 24.3156 30.9707Z" fill="black"/>
<path d="M12.7789 26.4402C11.5376 26.4402 10.5186 27.4104 10.4403 28.6322C9.21846 28.7105 8.24829 29.7295 8.24829 30.9708C8.24829 32.2121 9.21846 33.231 10.4403 33.3093C10.5187 34.5312 11.5376 35.5013 12.7789 35.5013C14.0202 35.5013 15.0391 34.5312 15.1174 33.3093C16.3393 33.231 17.3094 32.2121 17.3094 30.9708C17.3094 29.7295 16.3393 28.7105 15.1174 28.6322C15.0391 27.4103 14.0201 26.4402 12.7789 26.4402ZM15.7472 30.9707C15.7472 31.4014 15.3967 31.7518 14.966 31.7518H14.3411C13.9097 31.7518 13.56 32.1015 13.56 32.5329V33.1578C13.56 33.5886 13.2096 33.939 12.7789 33.939C12.3481 33.939 11.9977 33.5886 11.9977 33.1578V32.5329C11.9977 32.1015 11.648 31.7518 11.2166 31.7518H10.5917C10.161 31.7518 9.81056 31.4014 9.81056 30.9707C9.81056 30.54 10.161 30.1895 10.5917 30.1895H11.2166C11.648 30.1895 11.9977 29.8398 11.9977 29.4084V28.7835C11.9977 28.3528 12.3481 28.0024 12.7789 28.0024C13.2096 28.0024 13.56 28.3528 13.56 28.7835V29.4084C13.56 29.8398 13.9097 30.1895 14.3411 30.1895H14.966C15.3967 30.1895 15.7472 30.54 15.7472 30.9707Z" fill="black"/>
<path d="M36.6733 32.9467C36.6733 33.1529 36.7569 33.3536 36.9022 33.4997C37.0475 33.645 37.2483 33.7286 37.4545 33.7286C37.6599 33.7286 37.8614 33.645 38.0067 33.4997C38.152 33.3536 38.2356 33.1529 38.2356 32.9467C38.2356 32.7412 38.152 32.5397 38.0067 32.3944C37.8614 32.2491 37.6599 32.1655 37.4545 32.1655C37.2483 32.1655 37.0475 32.2491 36.9022 32.3944C36.7569 32.5397 36.6733 32.7413 36.6733 32.9467Z" fill="black"/>
</g>
<defs>
<clipPath id="clip0_652_4283">
<rect width="40" height="40" fill="white" transform="translate(0.5 7)"/>
</clipPath>
</defs>
</svg>
