<svg width="22" height="22" viewBox="0 0 22 22" fill="none" xmlns="http://www.w3.org/2000/svg">
<path d="M13.7493 15.0833C13.4732 15.0833 13.2493 15.3072 13.2493 15.5833C13.2493 15.8595 13.4732 16.0833 13.7493 16.0833V15.0833ZM18.3327 15.5833V16.0833C18.5349 16.0833 18.7172 15.9615 18.7946 15.7747C18.872 15.5878 18.8292 15.3728 18.6862 15.2298L18.3327 15.5833ZM17.0449 14.2955L16.6913 14.6491L17.0449 14.2955ZM12.8327 4.8963H12.3327C12.3327 5.10821 12.4663 5.2971 12.6661 5.36772L12.8327 4.8963ZM9.16602 4.8963L9.33264 5.36772C9.53243 5.2971 9.66602 5.10821 9.66602 4.8963H9.16602ZM4.95387 14.2955L4.60032 13.9419L4.60032 13.942L4.95387 14.2955ZM3.66602 15.5833L3.31247 15.2298C3.16946 15.3728 3.12668 15.5878 3.20407 15.7747C3.28146 15.9615 3.46378 16.0833 3.66602 16.0833V15.5833ZM8.24935 16.0833C8.52549 16.0833 8.74935 15.8595 8.74935 15.5833C8.74935 15.3072 8.52549 15.0833 8.24935 15.0833V16.0833ZM14.2493 15.5833C14.2493 15.3072 14.0255 15.0833 13.7493 15.0833C13.4732 15.0833 13.2493 15.3072 13.2493 15.5833H14.2493ZM8.74935 15.5833C8.74935 15.3072 8.52549 15.0833 8.24935 15.0833C7.97321 15.0833 7.74935 15.3072 7.74935 15.5833H8.74935ZM13.7493 16.0833C14.0255 16.0833 14.2493 15.8595 14.2493 15.5833C14.2493 15.3072 14.0255 15.0833 13.7493 15.0833V16.0833ZM8.24935 15.0833C7.97321 15.0833 7.74935 15.3072 7.74935 15.5833C7.74935 15.8595 7.97321 16.0833 8.24935 16.0833V15.0833ZM13.7493 16.0833H18.3327V15.0833H13.7493V16.0833ZM18.6862 15.2298L17.3984 13.942L16.6913 14.6491L17.9791 15.9369L18.6862 15.2298ZM17.3984 13.942C17.1429 13.6865 16.9993 13.3399 16.9993 12.9786H15.9993C15.9993 13.6052 16.2483 14.2061 16.6913 14.6491L17.3984 13.942ZM16.9993 12.9786V10.0833H15.9993V12.9786H16.9993ZM16.9993 10.0833C16.9993 7.47012 15.329 5.24831 12.9993 4.42488L12.6661 5.36772C14.6087 6.05435 15.9993 7.90709 15.9993 10.0833H16.9993ZM13.3327 4.8963V4.58333H12.3327V4.8963H13.3327ZM13.3327 4.58333C13.3327 3.29467 12.288 2.25 10.9993 2.25V3.25C11.7358 3.25 12.3327 3.84695 12.3327 4.58333H13.3327ZM10.9993 2.25C9.71065 2.25 8.66602 3.29467 8.66602 4.58333H9.66602C9.66602 3.84695 10.2629 3.25 10.9993 3.25V2.25ZM8.66602 4.58333V4.8963H9.66602V4.58333H8.66602ZM8.99939 4.42488C6.66969 5.24831 4.99935 7.47012 4.99935 10.0833H5.99935C5.99935 7.90709 7.38998 6.05435 9.33264 5.36772L8.99939 4.42488ZM4.99935 10.0833V12.9786H5.99935V10.0833H4.99935ZM4.99935 12.9786C4.99935 13.3399 4.85581 13.6865 4.60032 13.9419L5.30741 14.6491C5.75046 14.206 5.99935 13.6051 5.99935 12.9786H4.99935ZM4.60032 13.942L3.31247 15.2298L4.01957 15.9369L5.30742 14.6491L4.60032 13.942ZM3.66602 16.0833H8.24935V15.0833H3.66602V16.0833ZM13.2493 15.5833V16.5H14.2493V15.5833H13.2493ZM13.2493 16.5C13.2493 17.7427 12.242 18.75 10.9993 18.75V19.75C12.7943 19.75 14.2493 18.295 14.2493 16.5H13.2493ZM10.9993 18.75C9.75667 18.75 8.74935 17.7427 8.74935 16.5H7.74935C7.74935 18.295 9.20438 19.75 10.9993 19.75V18.75ZM8.74935 16.5V15.5833H7.74935V16.5H8.74935ZM13.7493 15.0833H8.24935V16.0833H13.7493V15.0833Z" fill="#545454"/>
<line x1="19.3823" y1="3.80031" x2="1.17672" y2="16.0296" stroke="#545454"/>
</svg>
