<svg width="64" height="47" viewBox="0 0 64 47" fill="none" xmlns="http://www.w3.org/2000/svg">
<circle cx="40" cy="23.5" r="23.5" fill="#ECECEC"/>
<path d="M30.756 13C28.1581 13 26.1055 15.0847 26.1055 17.6826C26.1055 20.2805 28.1902 22.3331 30.756 22.3331C33.3218 22.3331 35.4386 20.2484 35.4386 17.6505C35.4386 15.0526 33.3539 13 30.756 13ZM30.756 21.3068C28.7354 21.3068 27.0997 19.6711 27.0997 17.6505C27.0997 15.63 28.7675 14.0263 30.756 14.0263C32.7766 14.0263 34.4123 15.662 34.4123 17.6826C34.4123 19.7032 32.7766 21.3068 30.756 21.3068Z" fill="black"/>
<path d="M32.2313 18.388C32.1992 18.2918 32.1992 18.2276 32.1351 18.1314C32.103 18.0673 32.0709 17.971 32.0068 17.9069C31.9426 17.8428 31.9106 17.7786 31.8464 17.7145C31.7823 17.6503 31.7181 17.5862 31.6219 17.5541C31.5578 17.49 31.4615 17.4579 31.3974 17.4258C31.3012 17.3937 31.237 17.3296 31.1408 17.2975C31.0446 17.2655 30.9484 17.2334 30.8842 17.2013C30.8522 17.2013 30.788 17.1692 30.7559 17.1372C30.7239 17.1051 30.6597 17.1051 30.6277 17.073C30.5956 17.0409 30.5314 17.0409 30.4994 17.0089C30.4673 16.9768 30.4352 16.9447 30.4031 16.9127C30.3711 16.8806 30.339 16.8485 30.339 16.7844C30.3069 16.7523 30.3069 16.6881 30.3069 16.6561C30.3069 16.5919 30.3069 16.5599 30.3069 16.4957C30.3069 16.4636 30.339 16.3995 30.339 16.3674C30.3711 16.3353 30.3711 16.2712 30.4031 16.2391C30.4352 16.2071 30.4673 16.175 30.4994 16.1429C30.5314 16.1108 30.5956 16.0788 30.6597 16.0788C30.7239 16.0467 30.7559 16.0467 30.8201 16.0467C30.8522 16.0467 30.8842 16.0467 30.9163 16.0467C30.9484 16.0467 30.9805 16.0467 31.0125 16.0467C31.0767 16.0467 31.1087 16.0467 31.1729 16.0788C31.237 16.0788 31.3012 16.1108 31.3333 16.1108C31.3653 16.1108 31.4295 16.1429 31.4615 16.1429C31.5257 16.1429 31.5578 16.175 31.5898 16.175L31.7502 16.2391L31.7823 16.0467L31.8464 15.5335V15.4052L31.7181 15.3732C31.6861 15.3732 31.6219 15.3411 31.5898 15.3411C31.5578 15.3411 31.5257 15.309 31.4615 15.309C31.4295 15.309 31.3653 15.277 31.3012 15.277C31.237 15.277 31.205 15.2449 31.1408 15.2449H31.1087V14.7959V14.6355H30.9484H30.4994H30.339V14.7959V15.277H30.3069C30.2107 15.309 30.1145 15.3411 30.0183 15.4052C29.9221 15.4373 29.8579 15.5015 29.7938 15.5656C29.7296 15.6297 29.6655 15.6939 29.6013 15.7901C29.5372 15.8543 29.5051 15.9505 29.473 16.0467C29.441 16.1429 29.4089 16.2391 29.3768 16.3353C29.3448 16.4316 29.3448 16.5599 29.3448 16.6561C29.3448 16.7523 29.3448 16.8164 29.3768 16.9127C29.4089 17.0089 29.4089 17.073 29.473 17.1692C29.5051 17.2334 29.5693 17.3296 29.6013 17.3937C29.6655 17.4579 29.6976 17.522 29.7617 17.5862C29.8258 17.6503 29.89 17.7145 29.9862 17.7465C30.0503 17.8107 30.1466 17.8428 30.2107 17.8748C30.3069 17.9069 30.4031 17.971 30.4673 18.0031C30.5635 18.0352 30.6597 18.0673 30.7239 18.0993C30.7559 18.0993 30.8201 18.1314 30.8522 18.1635C30.8842 18.1956 30.9484 18.1956 30.9805 18.2276C31.0125 18.2597 31.0446 18.2918 31.0767 18.2918C31.1087 18.3238 31.1408 18.3559 31.1729 18.388C31.205 18.4201 31.205 18.4521 31.237 18.5163C31.237 18.5484 31.2691 18.6125 31.2691 18.6766C31.2691 18.7408 31.2691 18.7729 31.2691 18.837C31.2691 18.8691 31.237 18.9332 31.205 18.9653C31.1729 18.9974 31.1408 19.0294 31.1087 19.0615C31.0767 19.0936 31.0446 19.1257 30.9805 19.1577C30.9484 19.1898 30.8842 19.1898 30.8522 19.2219C30.8201 19.2219 30.7559 19.254 30.6918 19.254C30.6597 19.254 30.6277 19.254 30.5635 19.254C30.5314 19.254 30.4673 19.254 30.4352 19.254C30.3711 19.254 30.3069 19.254 30.2749 19.254C30.2107 19.254 30.1466 19.2219 30.1145 19.2219C30.0503 19.2219 29.9862 19.1898 29.9221 19.1577C29.8579 19.1257 29.7938 19.1257 29.7296 19.0936C29.6976 19.0936 29.6655 19.0615 29.6334 19.0615C29.6013 19.0615 29.5693 19.0294 29.5372 19.0294L29.3448 18.9332L29.3127 19.1577L29.2485 19.735V19.8313L29.3448 19.8633C29.473 19.8313 29.5372 19.8633 29.6334 19.8954C29.6976 19.9275 29.7938 19.9595 29.8579 19.9595C29.9221 19.9916 30.0183 19.9916 30.1145 20.0237C30.2107 20.0558 30.2749 20.0558 30.3711 20.0558H30.4352V20.5369V20.6972H30.5956H31.0446H31.205V20.5369V20.0237H31.237C31.3333 19.9916 31.4295 19.9595 31.5257 19.8954C31.6219 19.8633 31.6861 19.7992 31.7823 19.735C31.8464 19.6709 31.9106 19.6068 31.9747 19.5105C32.0389 19.4464 32.0709 19.3502 32.1351 19.254C32.1671 19.1577 32.1992 19.0615 32.2313 18.9653C32.2634 18.8691 32.2634 18.7729 32.2634 18.6446C32.2634 18.5484 32.2634 18.4842 32.2313 18.388Z" fill="black"/>
<path d="M28.5109 22.9423C28.3505 22.7178 27.9977 22.6857 27.7732 22.8461L22.5775 26.9834L15.8743 24.1931C15.7139 24.129 15.5215 24.1611 15.3932 24.2573L8.20895 29.3889C7.98444 29.5493 7.92029 29.87 8.08066 30.0945C8.17688 30.2548 8.33724 30.319 8.4976 30.319C8.59382 30.319 8.69004 30.2869 8.78625 30.2228L15.746 25.2515L22.4813 28.0418C22.6416 28.106 22.8661 28.0739 22.9944 27.9777L28.4147 23.68C28.6392 23.5196 28.6713 23.1668 28.5109 22.9423Z" fill="black"/>
<path d="M36.0159 40.5183H33.6425V25.6687C33.6425 25.38 33.418 25.1555 33.1293 25.1555H28.4147C28.126 25.1555 27.9015 25.38 27.9015 25.6687V40.5183H26.1696V30.8003C26.1696 30.5116 25.9451 30.2871 25.6564 30.2871H20.9097C20.621 30.2871 20.3965 30.5116 20.3965 30.8003V40.5183H18.6646V30.0306C18.6646 29.7419 18.4401 29.5174 18.1514 29.5174H13.4368C13.1481 29.5174 12.9236 29.7419 12.9236 30.0306V40.5183H11.1917V33.0454C11.1917 32.7567 10.9672 32.5322 10.6785 32.5322H5.93177C5.64311 32.5322 5.41861 32.7567 5.41861 33.0454V40.5183H3.01316C2.72451 40.5183 2.5 40.7428 2.5 41.0315C2.5 41.3201 2.72451 41.5446 3.01316 41.5446H5.8997H10.6144H13.4368H18.1514H20.9097H25.6243H28.3826H33.0973H35.9838C36.2724 41.5446 36.497 41.3201 36.497 41.0315C36.529 40.7428 36.3045 40.5183 36.0159 40.5183ZM10.1333 40.5183H6.44493V33.5585H10.1333V40.5183ZM17.6383 40.5183H13.9499V30.5437H17.6383V40.5183ZM25.1112 40.5183H21.4228V31.3135H25.1112V40.5183ZM32.6162 40.5183H28.9278V26.1818H32.6162V40.5183Z" fill="black"/>
</svg>
