<svg width="19" height="17" viewBox="0 0 19 17" fill="none" xmlns="http://www.w3.org/2000/svg">
<path fill-rule="evenodd" clip-rule="evenodd" d="M2.38252 3.09612C1.11091 3.09612 0.0800781 4.12696 0.0800781 5.39856V14.6083C0.0800781 15.88 1.11091 16.9108 2.38252 16.9108H16.1971C17.4688 16.9108 18.4996 15.88 18.4996 14.6083V5.39856C18.4996 4.12696 17.4688 3.09612 16.1971 3.09612H14.3715C14.0662 3.09612 13.7734 2.97483 13.5575 2.75894L12.2667 1.46806C11.8348 1.03626 11.2492 0.793686 10.6386 0.793686H7.9411C7.33045 0.793686 6.74482 1.03626 6.31302 1.46806L5.02214 2.75894C4.80625 2.97483 4.51342 3.09612 4.20811 3.09612H2.38252ZM9.28983 13.4571C11.1973 13.4571 12.7435 11.9109 12.7435 10.0034C12.7435 8.09604 11.1973 6.54978 9.28983 6.54978C7.38244 6.54978 5.83618 8.09604 5.83618 10.0034C5.83618 11.9109 7.38244 13.4571 9.28983 13.4571Z" fill="white"/>
</svg>
