<svg width="64" height="47" viewBox="0 0 64 47" fill="none" xmlns="http://www.w3.org/2000/svg">
<circle cx="40" cy="23.5" r="23.5" fill="#ECECEC"/>
<g clip-path="url(#clip0_652_4206)">
<path d="M15.4444 19.6648C15.2991 19.5196 15.0975 19.4359 14.8921 19.4359C14.6866 19.4359 14.4851 19.5195 14.3397 19.6648C14.1944 19.8101 14.1108 20.0117 14.1108 20.2172C14.1108 20.4226 14.1944 20.6242 14.3397 20.7695C14.4851 20.9147 14.6866 20.9984 14.8921 20.9984C15.0975 20.9984 15.2991 20.9148 15.4444 20.7695C15.5897 20.6242 15.6733 20.4233 15.6733 20.2172C15.6733 20.0117 15.5897 19.8101 15.4444 19.6648Z" fill="black"/>
<path d="M32.4212 30.0726L26.8632 24.5147C28.0648 22.7894 27.8981 20.3936 26.3605 18.856C25.5243 18.0198 24.4125 17.5593 23.23 17.5593C22.3124 17.5593 21.4379 17.8377 20.7012 18.3527L15.1438 12.7953C14.9602 12.6117 14.6976 12.5312 14.4427 12.5808C14.1879 12.6302 13.9742 12.8029 13.8726 13.0417L6.28811 30.855L2.17304 34.9701C1.09414 36.0491 0.5 37.4836 0.5 39.0094C0.5 40.5353 1.09414 41.9698 2.17312 43.0486C3.25203 44.1276 4.68655 44.7217 6.21233 44.7217C7.73819 44.7217 9.17264 44.1276 10.2515 43.0486L10.92 42.3802L15.3109 46.7711C15.4635 46.9236 15.6634 46.9999 15.8633 46.9999C16.0633 46.9999 16.2633 46.9236 16.4158 46.7711L19.4166 43.7703C19.7217 43.4652 19.7217 42.9705 19.4166 42.6653L15.2927 38.5414L32.1753 31.3439C32.4139 31.2421 32.5866 31.0284 32.6359 30.7736C32.6851 30.5188 32.6047 30.2561 32.4212 30.0726ZM23.2301 19.1219C23.9953 19.1219 24.7146 19.4199 25.2557 19.961C26.1811 20.8863 26.339 22.2922 25.731 23.3825L21.8334 19.4849C22.2555 19.2484 22.7329 19.1219 23.2301 19.1219ZM9.14662 41.9437C8.3628 42.7275 7.32069 43.1592 6.21225 43.1592C5.10382 43.1592 4.06171 42.7276 3.27789 41.9437C2.49414 41.1599 2.0625 40.1178 2.0625 39.0094C2.0625 37.901 2.49414 36.8589 3.27796 36.075L6.94764 32.4053L7.05952 32.5171L12.8161 38.2744L9.14662 41.9437ZM17.7593 43.2178L15.8633 45.1137L12.0248 41.2753L13.9208 39.3793L17.7593 43.2178ZM27.4391 31.6643C27.425 31.6477 27.4107 31.6312 27.395 31.6156L17.499 21.7196C17.194 21.4146 16.6993 21.4146 16.3941 21.7196C16.089 22.0247 16.089 22.5194 16.3941 22.8245L25.8931 32.3235L14.1022 37.3503L7.87303 31.1211L14.857 14.7184L30.4986 30.3599L27.4391 31.6643Z" fill="black"/>
<path d="M32.9275 12.3327C32.6224 12.0278 32.1278 12.0277 31.8227 12.3327L29.726 14.4294C29.421 14.7344 29.4209 15.2291 29.726 15.5343C29.8786 15.6869 30.0785 15.7631 30.2785 15.7631C30.4784 15.7631 30.6784 15.6868 30.8309 15.5343L32.9275 13.4376C33.2326 13.1325 33.2327 12.6378 32.9275 12.3327Z" fill="black"/>
<path d="M28.9131 16.3468C28.7678 16.2016 28.567 16.1179 28.3607 16.1179C28.1553 16.1179 27.9537 16.2015 27.8084 16.3468C27.6631 16.4921 27.5795 16.6937 27.5795 16.8992C27.5795 17.1046 27.6631 17.3062 27.8084 17.4515C27.9545 17.5968 28.1553 17.6804 28.3607 17.6804C28.5662 17.6804 28.7678 17.5968 28.9131 17.4515C29.0592 17.3062 29.142 17.1046 29.142 16.8992C29.142 16.6937 29.0592 16.4921 28.9131 16.3468Z" fill="black"/>
<path d="M24.0428 9.23279C23.6114 9.23279 23.2616 9.58263 23.2616 10.014V12.8853C23.2616 13.3167 23.6114 13.6665 24.0428 13.6665C24.4743 13.6665 24.8241 13.3166 24.8241 12.8852V10.014C24.8241 9.58263 24.4743 9.23279 24.0428 9.23279Z" fill="black"/>
<path d="M35.2314 20.3134H32.2642C31.8327 20.3134 31.4829 20.6632 31.4829 21.0946C31.4829 21.526 31.8327 21.8759 32.2642 21.8759H35.2314C35.6629 21.8759 36.0127 21.526 36.0127 21.0946C36.0127 20.6632 35.6629 20.3134 35.2314 20.3134Z" fill="black"/>
<path d="M34.1105 38.151C32.8181 38.151 31.7667 39.2024 31.7667 40.4947C31.7667 41.7871 32.8181 42.8385 34.1105 42.8385C35.4028 42.8385 36.4542 41.7871 36.4542 40.4947C36.4542 39.2024 35.4028 38.151 34.1105 38.151ZM34.1105 41.2759C33.6797 41.2759 33.3292 40.9254 33.3292 40.4947C33.3292 40.0639 33.6797 39.7134 34.1105 39.7134C34.5413 39.7134 34.8917 40.0639 34.8917 40.4947C34.8917 40.9254 34.5413 41.2759 34.1105 41.2759Z" fill="black"/>
<path d="M40.2421 41.6503L39.3995 40.8892C39.4093 40.7577 39.4142 40.626 39.4142 40.4946C39.4142 40.3633 39.4093 40.2316 39.3995 40.1001L40.2421 39.339C40.5157 39.0919 40.5793 38.6872 40.3947 38.3681L39.0916 36.1152C38.9074 35.7965 38.5255 35.6497 38.1752 35.7629L37.0968 36.1114C36.8788 35.9626 36.6505 35.8305 36.4131 35.716L36.1756 34.6071C36.0984 34.2468 35.78 33.9895 35.4117 33.9895H32.8093C32.4409 33.9895 32.1225 34.2468 32.0454 34.6071L31.8078 35.716C31.5705 35.8305 31.3421 35.9625 31.1242 36.1114L30.0458 35.7629C29.6953 35.6497 29.3136 35.7966 29.1293 36.1152L27.8263 38.3681C27.6417 38.6872 27.7053 39.0919 27.9789 39.339L28.8214 40.1001C28.8117 40.2316 28.8067 40.3633 28.8067 40.4946C28.8067 40.626 28.8117 40.7577 28.8214 40.8892L27.9789 41.6503C27.7053 41.8974 27.6417 42.3021 27.8263 42.6212L29.1293 44.8742C29.3136 45.1929 29.6955 45.3396 30.0458 45.2264L31.1242 44.8779C31.3422 45.0267 31.5706 45.1589 31.8078 45.2734L32.0454 46.3822C32.1226 46.7424 32.441 46.9998 32.8093 46.9998H35.4117C35.7802 46.9998 36.0985 46.7424 36.1756 46.3822L36.4132 45.2734C36.6505 45.1589 36.8788 45.0268 37.0969 44.8779L38.1752 45.2264C38.5257 45.3396 38.9074 45.1928 39.0917 44.8742L40.3948 42.6212C40.5792 42.3021 40.5156 41.8974 40.2421 41.6503ZM38.0552 43.5454L37.1946 43.2673C36.9432 43.1861 36.668 43.2375 36.4627 43.4035C36.1574 43.6508 35.8176 43.8474 35.453 43.9875C35.2066 44.0823 35.0248 44.295 34.9695 44.5531L34.7801 45.4371H33.4409L33.2515 44.5531C33.1962 44.295 33.0143 44.0823 32.768 43.9875C32.4034 43.8474 32.0636 43.6508 31.7583 43.4035C31.5531 43.2373 31.2777 43.186 31.0264 43.2673L30.1658 43.5454L29.4953 42.386L30.1666 41.7796C30.3622 41.6028 30.4555 41.3394 30.4148 41.0789C30.3846 40.8863 30.3693 40.6897 30.3693 40.4946C30.3693 40.2994 30.3846 40.1028 30.4148 39.9102C30.4555 39.6497 30.3622 39.3863 30.1666 39.2096L29.4953 38.6032L30.1658 37.4437L31.0264 37.7218C31.2777 37.8031 31.5531 37.7518 31.7582 37.5856C32.0635 37.3384 32.4031 37.1419 32.768 37.0015C33.0143 36.9068 33.1961 36.694 33.2514 36.4361L33.4408 35.552H34.78L34.9694 36.4361C35.0247 36.6941 35.2065 36.9068 35.4528 37.0015C35.8177 37.1419 36.1574 37.3384 36.4626 37.5856C36.6678 37.7518 36.9431 37.8029 37.1945 37.7218L38.055 37.4437L38.7256 38.6032L38.0542 39.2096C37.8588 39.3863 37.7655 39.6497 37.8062 39.9102C37.8363 40.1028 37.8516 40.2994 37.8516 40.4946C37.8516 40.6897 37.8363 40.8864 37.8062 41.0789C37.7655 41.3394 37.8588 41.6028 38.0544 41.7796L38.7257 42.386L38.0552 43.5454Z" fill="black"/>
<path d="M40.4383 12.842L38.1734 7.47746C38.0513 7.18817 37.7677 7.00012 37.4537 7.00012C37.1396 7.00012 36.8561 7.18817 36.7339 7.47746L34.4692 12.8421C34.3013 13.2396 34.4875 13.6978 34.8851 13.8657C34.9843 13.9075 35.0873 13.9274 35.1886 13.9274C35.4932 13.9274 35.7827 13.748 35.9087 13.4498L36.192 12.7786H38.7154L38.9988 13.4498C39.1666 13.8472 39.6248 14.0335 40.0223 13.8657C40.4198 13.6978 40.6061 13.2395 40.4383 12.842ZM36.8517 11.2161L37.4537 9.79004L38.0557 11.2161H36.8517Z" fill="black"/>
<path d="M8.91873 7.00024H2.39367C1.34953 7.00017 0.5 7.84962 0.5 8.89383V14.6384C0.5 15.6825 1.34953 16.532 2.39367 16.532H8.91881C9.96295 16.532 10.8125 15.6825 10.8125 14.6384V8.89383C10.8124 7.8497 9.96287 7.00024 8.91873 7.00024ZM9.24991 14.6383C9.24991 14.8209 9.10139 14.9694 8.91873 14.9694H2.39367C2.21109 14.9694 2.0625 14.8209 2.0625 14.6383V8.89383C2.0625 8.71126 2.21101 8.56274 2.39367 8.56274H8.91881C9.10139 8.56274 9.24998 8.71126 9.24998 8.89383V14.6383H9.24991Z" fill="black"/>
<path d="M7.03444 10.3253L5.84483 9.63852C5.32397 9.33782 4.70202 9.33774 4.18116 9.63852C3.6603 9.9393 3.34929 10.4778 3.34929 11.0793V12.4529C3.34937 13.0544 3.66038 13.5929 4.18124 13.8937C4.44163 14.0441 4.72733 14.1192 5.01304 14.1192C5.29874 14.1192 5.58444 14.0441 5.84483 13.8937L7.03444 13.2069C7.5553 12.9061 7.86631 12.3675 7.86631 11.7661C7.86623 11.1647 7.5553 10.626 7.03444 10.3253ZM6.25327 11.8537L5.06366 12.5405C5.04983 12.5485 5.01304 12.5697 4.96249 12.5405C4.91186 12.5112 4.91186 12.4688 4.91186 12.4528V11.0792C4.91186 11.0632 4.91186 11.0208 4.96249 10.9916C4.98179 10.9804 4.99905 10.9766 5.01382 10.9766C5.0378 10.9766 5.05515 10.9866 5.06366 10.9916L6.25327 11.6784C6.2671 11.6864 6.30389 11.7076 6.30389 11.766C6.30389 11.8245 6.2671 11.8457 6.25327 11.8537Z" fill="black"/>
<path d="M5.66015 24.0288H5.09632C4.66484 24.0288 4.31507 24.3787 4.31507 24.8101C4.31507 25.2415 4.66484 25.5913 5.09632 25.5913H5.66015C6.09163 25.5913 6.4414 25.2415 6.4414 24.8101C6.4414 24.3787 6.09163 24.0288 5.66015 24.0288Z" fill="black"/>
<path d="M3.4707 21.8633C3.03921 21.8633 2.68945 22.2131 2.68945 22.6445V23.1416C2.68945 23.573 3.03921 23.9228 3.4707 23.9228C3.90218 23.9228 4.25195 23.573 4.25195 23.1416V22.6445C4.25195 22.2131 3.90218 21.8633 3.4707 21.8633Z" fill="black"/>
<path d="M1.77836 24.0288H1.28125C0.849765 24.0288 0.5 24.3787 0.5 24.8101C0.5 25.2415 0.849765 25.5913 1.28125 25.5913H1.77836C2.20984 25.5913 2.55961 25.2415 2.55961 24.8101C2.55961 24.3787 2.20984 24.0288 1.77836 24.0288Z" fill="black"/>
<path d="M3.4707 25.6719C3.03921 25.6719 2.68945 26.0217 2.68945 26.4531V27.0235C2.68945 27.4549 3.03921 27.8048 3.4707 27.8048C3.90218 27.8048 4.25195 27.4549 4.25195 27.0235V26.4531C4.25195 26.0217 3.90218 25.6719 3.4707 25.6719Z" fill="black"/>
</g>
<defs>
<clipPath id="clip0_652_4206">
<rect width="40" height="40" fill="white" transform="translate(0.5 7)"/>
</clipPath>
</defs>
</svg>
