<svg width="25" height="25" viewBox="0 0 25 25" fill="none" xmlns="http://www.w3.org/2000/svg">
<path d="M12.3125 8.73267C12.5886 8.73267 12.8125 8.50881 12.8125 8.23267C12.8125 7.95652 12.5886 7.73267 12.3125 7.73267V8.73267ZM12.3125 15.7327C12.0364 15.7327 11.8125 15.9565 11.8125 16.2327C11.8125 16.5088 12.0364 16.7327 12.3125 16.7327V15.7327ZM12.3125 7.73267C12.0364 7.73267 11.8125 7.95652 11.8125 8.23267C11.8125 8.50881 12.0364 8.73267 12.3125 8.73267V7.73267ZM14.5336 9.56039C14.7146 9.76894 15.0304 9.79128 15.2389 9.61029C15.4475 9.42929 15.4698 9.1135 15.2888 8.90495L14.5336 9.56039ZM11.8125 8.23267C11.8125 8.50881 12.0364 8.73267 12.3125 8.73267C12.5886 8.73267 12.8125 8.50881 12.8125 8.23267H11.8125ZM12.8125 7.23267C12.8125 6.95652 12.5886 6.73267 12.3125 6.73267C12.0364 6.73267 11.8125 6.95652 11.8125 7.23267H12.8125ZM12.8125 8.23267C12.8125 7.95652 12.5886 7.73267 12.3125 7.73267C12.0364 7.73267 11.8125 7.95652 11.8125 8.23267H12.8125ZM11.8125 16.2327C11.8125 16.5088 12.0364 16.7327 12.3125 16.7327C12.5886 16.7327 12.8125 16.5088 12.8125 16.2327H11.8125ZM12.8125 16.2327C12.8125 15.9565 12.5886 15.7327 12.3125 15.7327C12.0364 15.7327 11.8125 15.9565 11.8125 16.2327H12.8125ZM11.8125 17.2327C11.8125 17.5088 12.0364 17.7327 12.3125 17.7327C12.5886 17.7327 12.8125 17.5088 12.8125 17.2327H11.8125ZM12.3125 16.7327C12.5886 16.7327 12.8125 16.5088 12.8125 16.2327C12.8125 15.9565 12.5886 15.7327 12.3125 15.7327V16.7327ZM10.0915 14.905C9.91054 14.6964 9.59475 14.674 9.38618 14.855C9.17761 15.036 9.15524 15.3518 9.33622 15.5604L10.0915 14.905ZM12.3125 7.73267C11.3991 7.73267 10.5496 7.97857 9.91381 8.40243C9.28153 8.82396 8.8125 9.4612 8.8125 10.2327H9.8125C9.8125 9.89957 10.015 9.53681 10.4685 9.23448C10.9185 8.93447 11.569 8.73267 12.3125 8.73267V7.73267ZM8.8125 10.2327C8.8125 11.0041 9.28152 11.6414 9.91381 12.0629C10.5496 12.4868 11.3991 12.7327 12.3125 12.7327V11.7327C11.569 11.7327 10.9185 11.5309 10.4685 11.2309C10.015 10.9285 9.8125 10.5658 9.8125 10.2327H8.8125ZM12.3125 12.7327C13.056 12.7327 13.7065 12.9345 14.1565 13.2345C14.61 13.5368 14.8125 13.8995 14.8125 14.2327H15.8125C15.8125 13.4612 15.3435 12.8239 14.7112 12.4024C14.0754 11.9786 13.2259 11.7327 12.3125 11.7327V12.7327ZM14.8125 14.2327C14.8125 14.5658 14.61 14.9285 14.1565 15.2309C13.7065 15.5309 13.056 15.7327 12.3125 15.7327V16.7327C13.2259 16.7327 14.0754 16.4868 14.7112 16.0629C15.3435 15.6414 15.8125 15.0041 15.8125 14.2327H14.8125ZM12.3125 8.73267C13.3196 8.73267 14.134 9.09991 14.5336 9.56039L15.2888 8.90495C14.6508 8.16982 13.5262 7.73267 12.3125 7.73267V8.73267ZM12.8125 8.23267V7.23267H11.8125V8.23267H12.8125ZM11.8125 8.23267V16.2327H12.8125V8.23267H11.8125ZM11.8125 16.2327V17.2327H12.8125V16.2327H11.8125ZM12.3125 15.7327C11.3054 15.7327 10.491 15.3654 10.0915 14.905L9.33622 15.5604C9.97412 16.2955 11.0988 16.7327 12.3125 16.7327V15.7327ZM20.8125 12.2327C20.8125 16.9271 17.007 20.7327 12.3125 20.7327V21.7327C17.5592 21.7327 21.8125 17.4794 21.8125 12.2327H20.8125ZM12.3125 20.7327C7.61808 20.7327 3.8125 16.9271 3.8125 12.2327H2.8125C2.8125 17.4794 7.0658 21.7327 12.3125 21.7327V20.7327ZM3.8125 12.2327C3.8125 7.53825 7.61808 3.73267 12.3125 3.73267V2.73267C7.0658 2.73267 2.8125 6.98596 2.8125 12.2327H3.8125ZM12.3125 3.73267C17.007 3.73267 20.8125 7.53825 20.8125 12.2327H21.8125C21.8125 6.98597 17.5592 2.73267 12.3125 2.73267V3.73267Z" fill="#545454"/>
</svg>
