<svg width="16" height="18" viewBox="0 0 16 18" fill="none" xmlns="http://www.w3.org/2000/svg">
<path d="M14.9147 4.45229C14.9344 4.17685 14.7271 3.93761 14.4516 3.91794C14.1762 3.89826 13.937 4.1056 13.9173 4.38104L14.9147 4.45229ZM13.621 15.5473L14.1197 15.5829L14.1197 15.5829L13.621 15.5473ZM2.37773 15.5473L1.879 15.5829L1.879 15.5829L2.37773 15.5473ZM2.08141 4.38104C2.06174 4.1056 1.8225 3.89826 1.54706 3.91794C1.27162 3.93761 1.06428 4.17685 1.08395 4.45229L2.08141 4.38104ZM6.66602 8.08333C6.66602 7.80719 6.44216 7.58333 6.16602 7.58333C5.88987 7.58333 5.66602 7.80719 5.66602 8.08333H6.66602ZM5.66602 13.5833C5.66602 13.8595 5.88987 14.0833 6.16602 14.0833C6.44216 14.0833 6.66602 13.8595 6.66602 13.5833H5.66602ZM10.3327 8.08333C10.3327 7.80719 10.1088 7.58333 9.83268 7.58333C9.55654 7.58333 9.33268 7.80719 9.33268 8.08333H10.3327ZM9.33268 13.5833C9.33268 13.8595 9.55654 14.0833 9.83268 14.0833C10.1088 14.0833 10.3327 13.8595 10.3327 13.5833H9.33268ZM10.2493 4.41667C10.2493 4.69281 10.4732 4.91667 10.7493 4.91667C11.0255 4.91667 11.2493 4.69281 11.2493 4.41667H10.2493ZM4.74935 4.41667C4.74935 4.69281 4.97321 4.91667 5.24935 4.91667C5.52549 4.91667 5.74935 4.69281 5.74935 4.41667H4.74935ZM0.666016 3.91667C0.389873 3.91667 0.166016 4.14052 0.166016 4.41667C0.166016 4.69281 0.389873 4.91667 0.666016 4.91667V3.91667ZM15.3327 4.91667C15.6088 4.91667 15.8327 4.69281 15.8327 4.41667C15.8327 4.14052 15.6088 3.91667 15.3327 3.91667V4.91667ZM13.9173 4.38104L13.1223 15.5117L14.1197 15.5829L14.9147 4.45229L13.9173 4.38104ZM13.1223 15.5116C13.0724 16.2094 12.4918 16.75 11.7923 16.75V17.75C13.0164 17.75 14.0325 16.8039 14.1197 15.5829L13.1223 15.5116ZM11.7923 16.75H4.2064V17.75H11.7923V16.75ZM4.2064 16.75C3.50688 16.75 2.92629 16.2094 2.87645 15.5117L1.879 15.5829C1.96622 16.804 2.98224 17.75 4.2064 17.75V16.75ZM2.87645 15.5117L2.08141 4.38104L1.08395 4.45229L1.879 15.5829L2.87645 15.5117ZM5.66602 8.08333V13.5833H6.66602V8.08333H5.66602ZM9.33268 8.08333V13.5833H10.3327V8.08333H9.33268ZM11.2493 4.41667V1.66667H10.2493V4.41667H11.2493ZM11.2493 1.66667C11.2493 0.884274 10.6151 0.25 9.83268 0.25V1.25C10.0628 1.25 10.2493 1.43655 10.2493 1.66667H11.2493ZM9.83268 0.25H6.16602V1.25H9.83268V0.25ZM6.16602 0.25C5.38362 0.25 4.74935 0.884268 4.74935 1.66667H5.74935C5.74935 1.43655 5.9359 1.25 6.16602 1.25V0.25ZM4.74935 1.66667V4.41667H5.74935V1.66667H4.74935ZM0.666016 4.91667H15.3327V3.91667H0.666016V4.91667Z" fill="#545454"/>
</svg>
