<svg width="64" height="47" viewBox="0 0 64 47" fill="none" xmlns="http://www.w3.org/2000/svg">
<circle cx="40" cy="23.5" r="23.5" fill="#ECECEC"/>
<path d="M39.6711 43.9343C39.6707 43.9309 39.6702 43.9277 39.6697 43.9243L35.9695 18.2434C35.928 17.9551 35.6809 17.741 35.3895 17.741H32.6273V14.7018C32.6273 10.455 29.1705 7 24.9214 7C23.2673 7 21.704 7.51063 20.3802 8.47922C19.1069 7.54961 17.5391 7 15.8451 7C14.2484 7 12.7163 7.48414 11.4144 8.40016C10.7948 8.83609 11.4693 9.79484 12.0887 9.35859C13.1921 8.58219 14.4911 8.17188 15.8452 8.17188C19.448 8.17188 22.3791 11.1012 22.3791 14.7018V20.7279C22.3333 21.1775 22.0846 21.4141 21.6328 21.4374C21.2601 21.4198 20.957 21.0852 20.957 20.6913V14.7018C20.957 11.9157 18.6289 9.59258 15.8451 9.59258C13.0265 9.59258 10.7333 11.8845 10.7333 14.7018V20.6913C10.7333 21.0852 10.4301 21.4198 10.0574 21.4374C9.60571 21.4141 9.35696 21.1776 9.31117 20.7279V14.7018C9.31117 13.5573 9.61164 12.4315 10.1799 11.4461C10.5584 10.7898 9.54321 10.2043 9.16477 10.8606C8.49391 12.0238 8.1393 13.3521 8.1393 14.7018V17.7409H5.61172C5.32039 17.7409 5.07328 17.955 5.0318 18.2434L1.33149 43.9242C1.11367 45.5215 2.43235 47 4.03383 47H36.9675C38.5833 47 39.8741 45.5378 39.6711 43.9343ZM31.4554 14.7018V17.7409H30.0333V14.7018C30.0333 11.8845 27.7401 9.59258 24.9214 9.59258C23.9612 9.59258 23.0203 9.86492 22.2124 10.3689C21.9422 9.97344 21.6363 9.60422 21.299 9.26617C22.3709 8.54875 23.6126 8.17188 24.9214 8.17188C28.5242 8.17188 31.4554 11.1012 31.4554 14.7018ZM25.9231 17.7409C25.9229 17.7409 25.9227 17.7409 25.9223 17.7409H23.5509V14.7018C23.5509 13.515 23.2808 12.3902 22.799 11.3852C23.4291 10.9828 24.1673 10.7645 24.9214 10.7645C27.094 10.7645 28.8614 12.5308 28.8614 14.7018V17.7409H25.9231ZM19.7851 14.7018V17.7409H18.3874V14.7018C18.3874 13.8405 18.5584 12.9887 18.8853 12.2C19.4472 12.8807 19.7851 13.7525 19.7851 14.7018ZM15.8452 10.7645C16.6254 10.7645 17.3527 10.9932 17.9653 11.3858C17.4738 12.416 17.2155 13.552 17.2155 14.7019V17.741H11.9052V14.7018C11.9052 12.5307 13.6727 10.7645 15.8452 10.7645ZM38.1331 45.3019C37.8384 45.6363 37.4134 45.8281 36.9674 45.8281H29.7398C30.1094 45.2953 30.3057 44.5725 30.2026 43.9242L29.4738 38.8666C29.4277 38.5463 29.1294 38.3241 28.8104 38.3702C28.4901 38.4164 28.2679 38.7134 28.314 39.0338L29.0419 44.0858C29.18 45.203 28.2371 45.8281 27.2454 45.8281H4.03383C3.12305 45.8281 2.38016 44.9929 2.49227 44.0858L6.11938 18.9128H8.13938V20.7279C8.13938 21.7447 9.00352 22.6102 10.0206 22.6102C11.0613 22.6102 11.9052 21.7239 11.9052 20.6913V18.9128H19.7851V20.6913C19.7851 21.7188 20.5725 22.5607 21.5777 22.608C22.627 22.6569 23.5509 21.7835 23.5509 20.7279V18.9128H25.4148L27.8706 35.9572C27.9168 36.2775 28.2145 36.4997 28.5341 36.4536C28.8545 36.4074 29.0766 36.1104 29.0306 35.7901L26.5988 18.9129H34.882L38.5091 44.0861C38.5634 44.5261 38.4265 44.969 38.1331 45.3019Z" fill="black"/>
</svg>
