<svg width="33" height="32" viewBox="0 0 33 32" fill="none" xmlns="http://www.w3.org/2000/svg">
<path d="M0.885376 16C0.885376 24.8366 8.04882 32 16.8854 32C25.7219 32 32.8854 24.8366 32.8854 16C32.8854 7.16344 25.7219 0 16.8854 0C8.04882 0 0.885376 7.16344 0.885376 16Z" fill="#1877F2"/>
<path d="M24.8854 16C24.8854 11.6 21.2854 8 16.8854 8C12.4854 8 8.88538 11.6 8.88538 16C8.88538 20 11.7854 23.3 15.5854 23.9V18.3H13.5854V16H15.5854V14.2C15.5854 12.2 16.7854 11.1 18.5854 11.1C19.4854 11.1 20.3854 11.3 20.3854 11.3V13.3H19.3854C18.3854 13.3 18.0854 13.9 18.0854 14.5V16H20.2854L19.8854 18.3H17.9854V24C21.9854 23.4 24.8854 20 24.8854 16Z" fill="white"/>
</svg>
