<svg width="64" height="47" viewBox="0 0 64 47" fill="none" xmlns="http://www.w3.org/2000/svg">
<circle cx="40" cy="23.5" r="23.5" fill="#ECECEC"/>
<g clip-path="url(#clip0_652_4266)">
<path d="M34.6278 25.7354C32.1058 25.7354 30.7548 27.5655 29.5018 30.3136C27.8319 33.9769 26.118 36.0778 24.7999 36.0778C24.5573 36.0778 23.8182 36.0778 23.1749 34.6419C22.9735 34.1927 22.48 33.9431 22.0006 34.048C19.6293 34.5684 17.8901 35.6469 16.8312 37.253C15.9511 38.5881 15.7853 39.9517 15.7649 40.6453C15.7567 40.9331 15.8616 41.2044 16.0609 41.4098C16.2599 41.6146 16.5275 41.7275 16.8144 41.7275H24.6589C24.7697 42.603 24.8619 43.4636 24.9339 44.2958C22.7034 45.9117 20.1902 45.9655 18.4471 45.7146C16.4454 45.4262 14.4264 44.6544 12.4736 43.9083C11.6975 43.6116 10.8952 43.3049 10.0987 43.0297C7.71436 42.2054 5.82593 41.8492 4.09497 41.9072C5.02149 34.4207 7.2099 26.5898 8.72174 23.8442H11.399C11.1952 24.9153 10.9648 26.5148 10.7368 28.4502C10.699 28.7715 10.9288 29.063 11.2504 29.1008C11.2736 29.1036 11.2965 29.1048 11.3194 29.1048C11.6124 29.1048 11.8657 28.8854 11.9008 28.5872C12.1428 26.5325 12.3851 24.8726 12.5929 23.8442H16.3044C16.5114 24.8757 16.7524 26.5288 16.9948 28.5872C17.0298 28.8854 17.2831 29.1048 17.5761 29.1048C17.5987 29.1048 17.6219 29.1036 17.6451 29.1008C17.9667 29.063 18.1965 28.7715 18.1587 28.4502C17.9304 26.5123 17.7012 24.9184 17.498 23.8442H20.0538C20.9889 25.5587 22.1919 29.2708 23.1727 33.4935C23.2356 33.7645 23.4764 33.9473 23.7428 33.9473C23.7867 33.9473 23.8313 33.9424 23.8759 33.9321C24.1911 33.8588 24.3873 33.5439 24.3141 33.2286C23.2914 28.8246 22.0112 24.9279 21.0124 23.1575C21.1735 22.3976 21.3588 21.5663 21.5382 20.7601C22.0006 18.6858 22.4785 16.5407 22.6066 15.3365C22.7928 13.5872 22.6661 9.23419 22.6228 7.94177C22.6051 7.41382 22.1772 7 21.6487 7H20.2739C19.7365 7 19.2994 7.43732 19.2994 7.97473V9.38403C19.2994 12.1529 17.0839 14.413 14.3605 14.4222H14.3434C13.0189 14.4222 11.7747 13.907 10.8384 12.9711C9.90277 12.0351 9.38733 10.7906 9.38733 9.46613V7.97473C9.38733 7.43732 8.95001 7 8.4126 7H7.03809C6.50952 7 6.08167 7.41382 6.06397 7.94177C6.03894 8.6864 5.98096 10.6096 5.98096 12.379C5.98096 12.7025 6.2431 12.965 6.5669 12.965C6.89038 12.965 7.15283 12.7025 7.15283 12.379C7.15283 10.7622 7.20166 9.01263 7.22882 8.17188H8.21546V9.46613C8.21546 11.1034 8.85266 12.6424 10.0099 13.7996C11.1726 14.9623 12.7162 15.5968 14.3647 15.5941C17.7318 15.5828 20.4713 12.7968 20.4713 9.38403V8.17188H21.4579C21.5049 9.63702 21.6115 13.6144 21.4415 15.2123C21.32 16.3506 20.8497 18.4627 20.3944 20.5052C20.233 21.23 20.0673 21.9747 19.9177 22.6723H16.8031C16.7863 22.6717 16.7692 22.6717 16.7521 22.6723H12.1165C12.0979 22.6714 12.0793 22.6714 12.0604 22.6723H8.76782C8.625 22.0082 8.46723 21.3002 8.31372 20.6102C7.84894 18.525 7.36829 16.3683 7.2453 15.2123C7.23035 15.0719 7.21662 14.9001 7.2038 14.6868C7.18396 14.3639 6.90686 14.1194 6.58307 14.1378C6.26019 14.1573 6.01422 14.4353 6.03406 14.7582C6.0481 14.9892 6.06305 15.1781 6.07984 15.3362C6.21015 16.5584 6.69782 18.7477 7.16962 20.8651C7.35089 21.678 7.53766 22.5164 7.69818 23.2738C6.90412 24.7197 5.9541 27.4239 5.07062 30.7625C4.06049 34.5793 3.271 38.7383 2.84741 42.473C2.82758 42.6494 2.88831 42.8252 3.01312 42.9512C3.13794 43.0773 3.31281 43.1398 3.4895 43.1221C5.24426 42.9424 7.16413 43.2555 9.7157 44.1375C10.4945 44.4063 11.288 44.7097 12.0552 45.0029C14.0678 45.7723 16.1491 46.5676 18.2798 46.8746C18.8627 46.9585 19.4346 47 19.9928 47C22.2291 47 24.2491 46.3314 25.9065 45.0295C26.0612 44.908 26.1445 44.7173 26.1287 44.5214C26.0557 43.6196 25.959 42.6824 25.84 41.7275H26.1986C26.7195 41.7275 27.1788 41.397 27.3417 40.9047C27.8401 39.3965 28.9036 37.7053 30.2595 36.2645C31.2846 35.175 32.2294 34.5064 32.8038 34.2919C32.8956 34.7066 32.942 35.5098 32.942 36.6896V40.6728C32.942 41.2542 33.415 41.7275 33.9967 41.7275H34.9672C35.5485 41.7275 36.0219 41.2542 36.0219 40.6728V36.6896C36.0219 35.819 36.3774 35.0786 36.7543 34.2952C37.187 33.395 37.6341 32.4642 37.6341 31.2441C37.6341 28.0522 36.3698 25.7354 34.6278 25.7354ZM35.6981 33.7874C35.2809 34.655 34.85 35.5519 34.85 36.6896V40.5556H34.1139V36.6896C34.1139 34.8171 34.0269 33.7105 33.5679 33.2268C33.4575 33.1102 33.3037 33.0443 33.1428 33.0443C31.786 33.0443 29.9397 34.8943 29.4063 35.4613C27.9374 37.0223 26.7793 38.8723 26.2291 40.537C26.2254 40.5477 26.2126 40.5556 26.1986 40.5556H25.1869C25.179 40.5553 25.1707 40.5553 25.1628 40.5556H16.9413C17.0143 39.193 17.7015 36.2343 22.1489 35.2156C22.7794 36.5654 23.6711 37.2496 24.7999 37.2496C26.6765 37.2496 28.6171 35.0795 30.5681 30.7997C31.8785 27.9256 32.9408 26.9072 34.6278 26.9072C35.3969 26.9072 36.4622 28.4142 36.4622 31.2441C36.4622 32.1974 36.0911 32.9698 35.6981 33.7874Z" fill="black"/>
<path d="M38.1019 16.4434C38.098 16.4333 38.0937 16.4232 38.0894 16.4135L36.3493 12.3177C36.1781 11.9146 35.7841 11.6539 35.3462 11.6539H26.0112C25.5729 11.6539 25.1793 11.9146 25.0078 12.318L24.7896 12.8316C24.6629 13.1298 24.8018 13.4737 25.0996 13.6C25.3978 13.7267 25.7417 13.5878 25.868 13.29L26.0652 12.8258H28.3034L27.8352 16.0689H24.6876L24.9214 15.5181C25.048 15.2202 24.9092 14.8763 24.6113 14.7496C24.3135 14.6233 23.9692 14.7621 23.8429 15.06L23.268 16.4135C23.2634 16.4232 23.2594 16.4333 23.2554 16.4434C23.101 16.8257 23.1773 17.2686 23.452 17.5771L29.8646 24.7753C30.0697 25.0057 30.3639 25.1384 30.6721 25.1403H30.6785H30.6849C30.9932 25.1384 31.2874 25.0057 31.4924 24.7753L37.9051 17.5771C38.1801 17.2686 38.2564 16.8254 38.1019 16.4434ZM27.8117 17.3571L29.348 22.4337L24.7218 17.2408H27.7821C27.7907 17.2811 27.8004 17.3198 27.8117 17.3571ZM32.2493 19.6181C31.9392 19.5247 31.6124 19.6996 31.5187 20.0093L30.6785 22.7852L29.001 17.2408H32.3564L32.2181 17.6976C32.1245 18.0074 32.2996 18.3342 32.6094 18.4282C32.9191 18.5216 33.2463 18.3467 33.34 18.037L33.5457 17.3571C33.557 17.3201 33.5667 17.2811 33.5753 17.2408H36.6356L32.0094 22.4337L32.6405 20.3487C32.7339 20.0389 32.5587 19.7118 32.2493 19.6181ZM36.6697 16.0689H33.5219L33.054 12.8258H35.2919L36.6697 16.0689ZM29.4874 12.8258H31.8699L32.3378 16.0689H29.0193L29.4874 12.8258Z" fill="black"/>
</g>
<defs>
<clipPath id="clip0_652_4266">
<rect width="40" height="40" fill="white" transform="translate(0.5 7)"/>
</clipPath>
</defs>
</svg>
