<svg width="64" height="47" viewBox="0 0 64 47" fill="none" xmlns="http://www.w3.org/2000/svg">
<circle cx="40" cy="23.5" r="23.5" fill="#ECECEC"/>
<path d="M35.4355 12.2017H34.9609C35.8656 10.7289 35.5315 8.7515 34.0796 7.67426C32.5152 6.51366 30.292 6.88724 29.2002 8.51877L26.7357 12.2018H5.56451C3.82431 12.2018 2.40855 13.6176 2.40855 15.3578V35.535C2.40855 37.2752 3.82431 38.691 5.56451 38.691H17.8232L16.8969 42.5813H14.8978C13.595 42.5813 12.535 43.6412 12.535 44.9441V45.4374H10.0706C9.63912 45.4374 9.28936 45.7873 9.28936 46.2187C9.28936 46.6501 9.63912 46.9999 10.0706 46.9999H30.9295C31.361 46.9999 31.7107 46.6501 31.7107 46.2187C31.7107 45.7873 31.361 45.4374 30.9295 45.4374H28.4651V44.9441C28.4651 43.6412 27.4051 42.5813 26.1022 42.5813H24.1031L23.1769 38.691H35.4356C37.1758 38.691 38.5915 37.2752 38.5915 35.535V31.0953V15.3577C38.5915 13.6175 37.1758 12.2017 35.4355 12.2017ZM24.2418 25.9358C23.0203 26.7908 20.732 25.6286 18.5468 26.7947C18.0136 24.0248 18.3497 21.4198 21.1251 20.8448C21.4837 20.77 21.8699 20.7362 22.1986 20.7428C23.138 21.4397 24.0881 22.1446 25.0248 22.8397C25.4349 24.0325 25.281 25.2084 24.2418 25.9358ZM25.0291 17.5619L27.2406 19.2026L25.5399 21.2761C24.8398 20.7567 24.2379 20.3101 23.5378 19.7906C23.6831 19.5733 24.8962 17.7604 25.0291 17.5619ZM30.4989 9.38774C31.0906 8.50331 32.2973 8.29753 33.1486 8.92916C34.0001 9.56086 34.1526 10.7754 33.4779 11.5981C32.2806 13.0577 29.4343 16.528 28.2325 17.9932L25.899 16.2618L30.4989 9.38774ZM26.9025 44.9441V45.4374H14.0975V44.9441C14.0975 44.5028 14.4565 44.1438 14.8978 44.1438H26.1022C26.5435 44.1438 26.9025 44.5028 26.9025 44.9441ZM22.4969 42.5813H18.5031L19.4293 38.691H21.5707L22.4969 42.5813ZM37.029 35.535C37.029 36.4137 36.3142 37.1285 35.4356 37.1285C34.1954 37.1285 6.95893 37.1285 5.56459 37.1285C4.68593 37.1285 3.9711 36.4137 3.9711 35.535V31.8765H6.20356C6.63503 31.8765 6.98479 31.5267 6.98479 31.0953C6.98479 30.6639 6.63503 30.3141 6.20356 30.3141H3.97095V15.3577C3.97095 14.479 4.68577 13.7642 5.56443 13.7642H25.6902C24.9418 14.8827 22.7583 18.1458 22.0667 19.1793C20.5357 19.1931 19.0072 19.7264 18.0066 20.8945C16.645 22.484 16.4058 24.9814 17.2956 28.3174C17.4477 28.8879 18.1595 29.0923 18.5902 28.6809C20.6102 26.7507 23.1261 28.8561 25.3791 27.0326C26.7544 25.9193 27.0799 24.1495 26.5613 22.4945C27.2623 21.6398 33.0193 14.6209 33.7219 13.7642H35.4354C36.3141 13.7642 37.0289 14.479 37.0289 15.3577V30.314H12.4533C12.0218 30.314 11.672 30.6638 11.672 31.0952C11.672 31.5266 12.0218 31.8764 12.4533 31.8764H37.029V35.535Z" fill="black"/>
<path d="M9.17758 30.3291C8.80148 30.406 8.54945 30.7311 8.54945 31.0956C8.54945 31.5843 8.99625 31.9585 9.48305 31.8612C9.91563 31.7734 10.1791 31.3566 10.0963 30.9425C10.0094 30.5151 9.59484 30.2451 9.17758 30.3291Z" fill="black"/>
</svg>
