<svg width="33" height="32" viewBox="0 0 33 32" fill="none" xmlns="http://www.w3.org/2000/svg">
<path d="M0.885376 16C0.885376 24.8366 8.04882 32 16.8854 32C25.7219 32 32.8854 24.8366 32.8854 16C32.8854 7.16344 25.7219 0 16.8854 0C8.04882 0 0.885376 7.16344 0.885376 16Z" fill="#F00073"/>
<path d="M16.8854 9.2002C19.0854 9.2002 19.3854 9.2002 20.2854 9.2002C21.0854 9.2002 21.4854 9.4002 21.7854 9.5002C22.1854 9.7002 22.4854 9.8002 22.7854 10.1002C23.0854 10.4002 23.2854 10.7002 23.3854 11.1002C23.4854 11.4002 23.5854 11.8002 23.6854 12.6002C23.6854 13.5002 23.6854 13.7002 23.6854 16.0002C23.6854 18.3002 23.6854 18.5002 23.6854 19.4002C23.6854 20.2002 23.4854 20.6002 23.3854 20.9002C23.1854 21.3002 23.0854 21.6002 22.7854 21.9002C22.4854 22.2002 22.1854 22.4002 21.7854 22.5002C21.4854 22.6002 21.0854 22.7002 20.2854 22.8002C19.3854 22.8002 19.1854 22.8002 16.8854 22.8002C14.5854 22.8002 14.3854 22.8002 13.4854 22.8002C12.6854 22.8002 12.2854 22.6002 11.9854 22.5002C11.5854 22.3002 11.2854 22.2002 10.9854 21.9002C10.6854 21.6002 10.4854 21.3002 10.3854 20.9002C10.2854 20.6002 10.1854 20.2002 10.0854 19.4002C10.0854 18.5002 10.0854 18.3002 10.0854 16.0002C10.0854 13.7002 10.0854 13.5002 10.0854 12.6002C10.0854 11.8002 10.2854 11.4002 10.3854 11.1002C10.5854 10.7002 10.6854 10.4002 10.9854 10.1002C11.2854 9.8002 11.5854 9.6002 11.9854 9.5002C12.2854 9.4002 12.6854 9.3002 13.4854 9.2002C14.3854 9.2002 14.6854 9.2002 16.8854 9.2002ZM16.8854 7.7002C14.5854 7.7002 14.3854 7.7002 13.4854 7.7002C12.5854 7.7002 11.9854 7.9002 11.4854 8.1002C10.9854 8.3002 10.4854 8.6002 9.98539 9.1002C9.48539 9.6002 9.28539 10.0002 8.98539 10.6002C8.78539 11.1002 8.68539 11.7002 8.58539 12.6002C8.58539 13.5002 8.58539 13.8002 8.58539 16.0002C8.58539 18.3002 8.58539 18.5002 8.58539 19.4002C8.58539 20.3002 8.78539 20.9002 8.98539 21.4002C9.18539 21.9002 9.48539 22.4002 9.98539 22.9002C10.4854 23.4002 10.8854 23.6002 11.4854 23.9002C11.9854 24.1002 12.5854 24.2002 13.4854 24.3002C14.3854 24.3002 14.6854 24.3002 16.8854 24.3002C19.0854 24.3002 19.3854 24.3002 20.2854 24.3002C21.1854 24.3002 21.7854 24.1002 22.2854 23.9002C22.7854 23.7002 23.2854 23.4002 23.7854 22.9002C24.2854 22.4002 24.4854 22.0002 24.7854 21.4002C24.9854 20.9002 25.0854 20.3002 25.1854 19.4002C25.1854 18.5002 25.1854 18.2002 25.1854 16.0002C25.1854 13.8002 25.1854 13.5002 25.1854 12.6002C25.1854 11.7002 24.9854 11.1002 24.7854 10.6002C24.5854 10.1002 24.2854 9.6002 23.7854 9.1002C23.2854 8.6002 22.8854 8.4002 22.2854 8.1002C21.7854 7.9002 21.1854 7.8002 20.2854 7.7002C19.3854 7.7002 19.1854 7.7002 16.8854 7.7002Z" fill="white"/>
<path d="M16.8854 11.7002C14.4854 11.7002 12.5854 13.6002 12.5854 16.0002C12.5854 18.4002 14.4854 20.3002 16.8854 20.3002C19.2854 20.3002 21.1854 18.4002 21.1854 16.0002C21.1854 13.6002 19.2854 11.7002 16.8854 11.7002ZM16.8854 18.8002C15.3854 18.8002 14.0854 17.6002 14.0854 16.0002C14.0854 14.5002 15.2854 13.2002 16.8854 13.2002C18.3854 13.2002 19.6854 14.4002 19.6854 16.0002C19.6854 17.5002 18.3854 18.8002 16.8854 18.8002Z" fill="white"/>
<path d="M21.2854 12.6002C21.8377 12.6002 22.2854 12.1525 22.2854 11.6002C22.2854 11.0479 21.8377 10.6002 21.2854 10.6002C20.7331 10.6002 20.2854 11.0479 20.2854 11.6002C20.2854 12.1525 20.7331 12.6002 21.2854 12.6002Z" fill="white"/>
</svg>
