<svg width="33" height="32" viewBox="0 0 33 32" fill="none" xmlns="http://www.w3.org/2000/svg">
<path d="M0.885376 16C0.885376 24.8366 8.04882 32 16.8854 32C25.7219 32 32.8854 24.8366 32.8854 16C32.8854 7.16344 25.7219 0 16.8854 0C8.04882 0 0.885376 7.16344 0.885376 16Z" fill="#2867B2"/>
<path d="M12.4854 22H9.08537V11.3H12.4854V22ZM10.7854 9.8C9.68538 9.8 8.88538 9 8.88538 7.9C8.88538 6.8 9.78538 6 10.7854 6C11.8854 6 12.6854 6.8 12.6854 7.9C12.6854 9 11.8854 9.8 10.7854 9.8ZM24.8854 22H21.4854V16.2C21.4854 14.5 20.7854 14 19.7854 14C18.7854 14 17.7854 14.8 17.7854 16.3V22H14.3854V11.3H17.5854V12.8C17.8854 12.1 19.0854 11 20.7854 11C22.6854 11 24.6854 12.1 24.6854 15.4V22H24.8854Z" fill="white"/>
</svg>
