<svg width="25" height="25" viewBox="0 0 25 25" fill="none" xmlns="http://www.w3.org/2000/svg">
<path fill-rule="evenodd" clip-rule="evenodd" d="M17.9694 16.8896C17.0327 17.8262 15.0741 19.7848 13.7263 21.1326C12.9452 21.9137 11.6802 21.9141 10.8991 21.133C9.57484 19.8087 7.65409 17.888 6.65565 16.8896C3.53145 13.7654 3.53145 8.70001 6.65565 5.57582C9.77984 2.45162 14.8452 2.45162 17.9694 5.57582C21.0935 8.70001 21.0935 13.7654 17.9694 16.8896Z" stroke="#545454" stroke-linecap="round" stroke-linejoin="round"/>
<path fill-rule="evenodd" clip-rule="evenodd" d="M15.3125 11.2327C15.3125 12.8896 13.9694 14.2327 12.3125 14.2327C10.6556 14.2327 9.3125 12.8896 9.3125 11.2327C9.3125 9.57582 10.6556 8.23267 12.3125 8.23267C13.9694 8.23267 15.3125 9.57582 15.3125 11.2327Z" stroke="#545454" stroke-linecap="round" stroke-linejoin="round"/>
</svg>
