<svg width="15" height="17" viewBox="0 0 15 17" fill="none" xmlns="http://www.w3.org/2000/svg">
<path fill-rule="evenodd" clip-rule="evenodd" d="M11.9784 11.6867C11.2368 12.4282 9.68627 13.9787 8.61926 15.0458C8.00089 15.6641 6.99943 15.6644 6.38106 15.0461C5.33269 13.9977 3.8121 12.4771 3.02167 11.6867C0.54834 9.21339 0.54834 5.20331 3.02167 2.72999C5.49498 0.256669 9.50506 0.256669 11.9784 2.72999C14.4516 5.20331 14.4516 9.21339 11.9784 11.6867Z" stroke="#545454" stroke-linecap="round" stroke-linejoin="round"/>
<path fill-rule="evenodd" clip-rule="evenodd" d="M9.875 7.20834C9.875 8.52006 8.81171 9.58334 7.5 9.58334C6.18829 9.58334 5.125 8.52006 5.125 7.20834C5.125 5.89667 6.18829 4.83334 7.5 4.83334C8.81171 4.83334 9.875 5.89667 9.875 7.20834Z" stroke="#545454" stroke-linecap="round" stroke-linejoin="round"/>
</svg>
