<svg width="4" height="18" viewBox="0 0 4 18" fill="none" xmlns="http://www.w3.org/2000/svg">
<path d="M2 2L-4.37114e-08 2C-9.19929e-08 3.10455 0.895402 4 2 4L2 2ZM2 2L2 -4.37114e-08C0.895402 -9.19949e-08 4.5701e-09 0.895448 -4.37114e-08 2L2 2ZM2 2L4 2C4 0.895448 3.1046 4.57211e-09 2 -4.37114e-08L2 2ZM2 2L2 4C3.1046 4 4 3.10455 4 2L2 2ZM2 9L-3.49691e-07 9C-3.97974e-07 10.1046 0.895415 11 2 11L2 9ZM2 9L2 7C0.895415 7 -3.01408e-07 7.89542 -3.49691e-07 9L2 9ZM2 9L4 9C4 7.89542 3.10458 7 2 7L2 9ZM2 9L2 11C3.10458 11 4 10.1046 4 9L2 9ZM2 16L-6.55671e-07 16C-7.03954e-07 17.1046 0.895415 18 2 18L2 16ZM2 16L2 14C0.895415 14 -6.07388e-07 14.8954 -6.55671e-07 16L2 16ZM2 16L4 16C4 14.8954 3.10458 14 2 14L2 16ZM2 16L2 18C3.10458 18 4 17.1046 4 16L2 16Z" fill="#B0B0B0"/>
</svg>
