<svg width="64" height="47" viewBox="0 0 64 47" fill="none" xmlns="http://www.w3.org/2000/svg">
<circle cx="40" cy="23.5" r="23.5" fill="#ECECEC"/>
<g clip-path="url(#clip0_652_4305)">
<path d="M24.768 37.2898C24.2295 37.3066 23.8247 36.7008 24.0469 36.2101C24.303 35.5726 25.233 35.5726 25.4891 36.2101C25.7112 36.7008 25.3066 37.3067 24.768 37.2898Z" fill="black"/>
<path d="M13.6163 42.1686C13.4163 42.1686 13.2163 42.0924 13.0638 41.9398L9.02126 37.8972C8.71618 37.5921 8.71618 37.0974 9.02126 36.7923C9.32634 36.4872 9.82102 36.4872 10.1262 36.7923L14.1688 40.8349C14.4738 41.1399 14.4738 41.6346 14.1688 41.9398C14.0162 42.0924 13.8162 42.1686 13.6163 42.1686Z" fill="black"/>
<path d="M14.6374 38.6933C14.4374 38.6933 14.2376 38.6171 14.085 38.4645L12.4965 36.876C12.1914 36.5709 12.1914 36.0762 12.4966 35.7711C12.8016 35.4661 13.2963 35.4661 13.6014 35.7711L15.1899 37.3597C15.495 37.6647 15.495 38.1594 15.1898 38.4645C15.0373 38.617 14.8373 38.6933 14.6374 38.6933Z" fill="black"/>
<path d="M40.5 14.2738C40.5 14.0666 40.4177 13.8679 40.2711 13.7214L37.2389 10.6899C36.9338 10.3849 36.4392 10.3849 36.1341 10.69L35.0188 11.8053L34.6959 11.4825C34.3909 11.1774 33.8962 11.1774 33.591 11.4825C33.2859 11.7876 33.2859 12.2823 33.591 12.5874L33.9139 12.9103L33.3187 13.5055L32.9958 13.1827C32.6907 12.8776 32.196 12.8776 31.8909 13.1827C31.5858 13.4877 31.5858 13.9824 31.8909 14.2876L32.2138 14.6105L25.9109 20.9133C22.8517 19.0196 19.7781 19.0579 17.7808 21.0553C17.2139 21.6216 16.7891 22.1777 16.4824 22.755C15.3588 24.8683 12.8502 26.7686 10.6467 27.1752C9.00649 27.4781 7.52204 28.2223 6.35376 29.3273C4.8486 30.7515 4.03133 32.6093 3.99048 34.6998C3.93555 37.5045 5.29751 40.5392 7.72735 43.0258C10.1796 45.5352 13.2028 46.9837 16.0218 46.9999C16.0381 47 16.0541 47.0001 16.0704 47.0001C18.1476 47.0001 20.0156 46.2297 21.475 44.7704C22.6688 43.5763 23.4677 42.0357 23.7858 40.3151C23.8286 40.0834 23.8892 39.8439 23.9659 39.6034C24.097 39.1923 23.8699 38.7527 23.4588 38.6217C23.0477 38.4906 22.6082 38.7176 22.4772 39.1287C22.3806 39.4316 22.304 39.7352 22.2492 40.0312C21.989 41.4395 21.3391 42.6963 20.37 43.6656C19.2102 44.8253 17.7241 45.4375 16.0697 45.4375C16.0569 45.4375 16.0438 45.4375 16.0309 45.4374C13.6266 45.4235 11.0074 44.1465 8.84493 41.9337C6.70594 39.7446 5.50602 37.1191 5.55274 34.7303C5.58532 33.068 6.23368 31.5922 7.42766 30.4623C8.37634 29.5651 9.58758 28.9597 10.9306 28.7116C13.5999 28.2191 16.515 26.0223 17.8622 23.4884C18.0952 23.05 18.4299 22.6158 18.8856 22.1604C20.7681 20.2779 23.3365 21.2542 24.7676 22.0568L18.3699 28.4547C17.1856 28.3978 15.9824 28.8205 15.0801 29.7228C14.2576 30.5453 13.8046 31.6388 13.8046 32.802C13.8046 33.965 14.2576 35.0585 15.08 35.881C15.9023 36.7035 16.9959 37.1565 18.1591 37.1565C19.3222 37.1565 20.4157 36.7035 21.2384 35.881C22.1405 34.9788 22.5631 33.7757 22.5063 32.5916L28.8978 26.2C29.692 27.6418 30.6391 30.2409 28.6611 32.2189C28.3258 32.5545 27.9434 32.8409 27.5248 33.0699C27.3136 33.1854 27.0998 33.3144 26.8894 33.4535C26.5294 33.6913 26.4304 34.176 26.6682 34.536C26.8184 34.7634 27.0671 34.8866 27.3208 34.8866C27.4687 34.8866 27.6181 34.8447 27.7507 34.7571C27.9251 34.6419 28.1013 34.5355 28.2745 34.4408C28.824 34.1402 29.3259 33.7642 29.7663 33.3235C30.9388 32.1509 31.4986 30.6409 31.385 28.9565C31.2996 27.6906 30.8381 26.3527 30.0433 25.0546L36.3507 18.7473L36.809 19.2055C36.9616 19.3581 37.1615 19.4344 37.3614 19.4344C37.5613 19.4344 37.7613 19.3581 37.9138 19.2055C38.2189 18.9005 38.2189 18.4058 37.9138 18.1006L37.4556 17.6423L38.0508 17.0471L38.5091 17.5055C38.6617 17.658 38.8616 17.7343 39.0616 17.7343C39.2615 17.7343 39.4615 17.658 39.614 17.5055C39.9191 17.2004 39.9191 16.7057 39.614 16.4005L39.1556 15.9422L40.2713 14.8265C40.4177 14.6798 40.5 14.481 40.5 14.2738ZM20.1334 34.7761C19.6059 35.3034 18.9048 35.5939 18.159 35.5939C17.4132 35.5939 16.7121 35.3035 16.1849 34.7761C15.0962 33.6875 15.0962 31.9162 16.1849 30.8277C16.7291 30.2834 17.444 30.0113 18.159 30.0113C18.8739 30.0113 19.5891 30.2834 20.1333 30.8276C21.2216 31.9162 21.2216 33.6876 20.1334 34.7761ZM22.0473 30.8409C21.8442 30.4374 21.5746 30.0592 21.2383 29.7228C21.2383 29.7228 21.2382 29.7227 21.2382 29.7227C20.9019 29.3864 20.5237 29.1168 20.1204 28.9138L31.6184 17.4155L33.5456 19.3423L22.0473 30.8409ZM34.6506 18.2376L32.7235 16.3106L33.3188 15.7154L35.2458 17.6423L34.6506 18.2376ZM36.3506 16.5373L34.4237 14.6104L35.0189 14.0152L36.9459 15.9421L36.3506 16.5373ZM36.1238 12.9102L36.6867 12.3472L38.6139 14.274L38.0508 14.8372L36.1238 12.9102Z" fill="black"/>
<path d="M11.913 13.2144C11.913 12.9626 11.7917 12.7263 11.5871 12.5796C11.3825 12.4328 11.1198 12.3936 10.8813 12.4744L4.75922 14.547C4.44195 14.6544 4.22844 14.9521 4.22844 15.287V21.1927C3.89773 21.0437 3.53109 20.9607 3.14547 20.9607C1.6868 20.9607 0.5 22.1474 0.5 23.6062C0.5 25.0649 1.68672 26.2517 3.14547 26.2517C4.60422 26.2517 5.79094 25.0649 5.79094 23.6062C5.79094 23.5608 5.79094 15.8473 5.79094 15.8473L10.3505 14.3037V19.12C10.0198 18.971 9.65312 18.8881 9.2675 18.8881C7.80875 18.8881 6.62203 20.0748 6.62203 21.5335C6.62203 22.9923 7.80875 24.179 9.2675 24.179C10.7262 24.179 11.913 22.9923 11.913 21.5335C11.913 21.4881 11.913 13.2144 11.913 13.2144ZM3.14547 24.6892C2.54828 24.6892 2.0625 24.2034 2.0625 23.6062C2.0625 23.009 2.54836 22.5232 3.14547 22.5232C3.74258 22.5232 4.22844 23.0091 4.22844 23.6062C4.22852 24.2033 3.74266 24.6892 3.14547 24.6892ZM9.26758 22.6165C8.67039 22.6165 8.18461 22.1306 8.18461 21.5335C8.18461 20.9364 8.67047 20.4506 9.26758 20.4506C9.86477 20.4506 10.3505 20.9364 10.3505 21.5335C10.3505 22.1307 9.86469 22.6165 9.26758 22.6165Z" fill="black"/>
<path d="M36.9169 34.4873L34.2785 33.5941C34.0399 33.5133 33.7773 33.5526 33.5727 33.6993C33.368 33.846 33.2467 34.0823 33.2467 34.3341V40.2398C32.916 40.0908 32.5494 40.0078 32.1637 40.0078C30.705 40.0078 29.5183 41.1945 29.5183 42.6533C29.5183 44.112 30.705 45.2987 32.1637 45.2987C33.6225 45.2987 34.8092 44.112 34.8092 42.6533C34.8092 42.6079 34.8092 42.4695 34.8092 42.4449V35.4234L36.4159 35.9673C36.8245 36.1058 37.268 35.8866 37.4063 35.4779C37.5448 35.0691 37.3255 34.6257 36.9169 34.4873ZM32.1637 43.7362C31.5666 43.7362 31.0808 43.2504 31.0808 42.6533C31.0808 42.0561 31.5666 41.5703 32.1637 41.5703C32.7609 41.5703 33.2467 42.0562 33.2467 42.6533C33.2467 43.2505 32.7609 43.7362 32.1637 43.7362Z" fill="black"/>
<path d="M21.8558 15.4061C21.7019 15.4061 21.5482 15.3608 21.4155 15.2703C20.8643 14.8943 18.0818 12.9679 17.4352 11.9634C17.1537 11.5259 16.7867 10.8316 16.8493 9.85623C16.9534 8.23748 18.2786 6.98279 19.8643 7.00005C20.7556 7.00974 21.4644 7.48349 21.9337 7.92646C22.4144 7.50005 23.127 7.04459 23.9773 7.04459C23.9859 7.04459 23.9944 7.04459 24.003 7.04466C25.5896 7.06177 26.8866 8.34459 26.9559 9.96505C26.9976 10.9394 26.6159 11.6264 26.3252 12.0584C25.653 13.0568 22.8392 14.9168 22.2819 15.2795C22.1523 15.364 22.004 15.4061 21.8558 15.4061ZM19.8332 8.56248C19.0958 8.56248 18.4582 9.18474 18.4085 9.95654C18.3823 10.3648 18.4809 10.7013 18.7491 11.1178C19.0613 11.603 20.6341 12.8144 21.8658 13.6813C23.1112 12.8436 24.7042 11.6686 25.0289 11.1861C25.3062 10.7741 25.4122 10.4397 25.3948 10.0319C25.3616 9.25435 24.7296 8.61521 23.9862 8.60724C23.3636 8.60185 22.6906 9.35146 22.5455 9.55294C22.3948 9.76232 22.1518 9.8831 21.8925 9.87748C21.6345 9.87123 21.3963 9.73794 21.256 9.52146C21.0823 9.25935 20.4865 8.56951 19.8474 8.56255C19.8427 8.56248 19.838 8.56248 19.8332 8.56248Z" fill="black"/>
</g>
<defs>
<clipPath id="clip0_652_4305">
<rect width="40" height="40" fill="white" transform="translate(0.5 7)"/>
</clipPath>
</defs>
</svg>
