<svg width="64" height="47" viewBox="0 0 64 47" fill="none" xmlns="http://www.w3.org/2000/svg">
<circle cx="40" cy="23.5" r="23.5" fill="#ECECEC"/>
<path d="M15.333 10.3406C15.2106 10.3406 15.0919 10.2991 14.9962 10.2228C14.9005 10.1466 14.8334 10.0402 14.8061 9.92091C14.7787 9.80166 14.7926 9.67664 14.8455 9.56631C14.8984 9.45598 14.9872 9.36686 15.0973 9.31353C15.6013 9.06942 16.1218 8.86115 16.6551 8.69029C16.7228 8.66874 16.794 8.66073 16.8648 8.66672C16.9355 8.6727 17.0044 8.69256 17.0674 8.72516C17.1305 8.75776 17.1865 8.80247 17.2323 8.85672C17.2781 8.91098 17.3128 8.97372 17.3343 9.04137C17.3559 9.10902 17.3639 9.18025 17.3579 9.25099C17.3519 9.32173 17.3321 9.39061 17.2994 9.45367C17.2668 9.51674 17.2221 9.57277 17.1679 9.61856C17.1136 9.66436 17.0509 9.69901 16.9832 9.72056C16.4987 9.87555 16.0258 10.0649 15.5681 10.287C15.4947 10.3222 15.4144 10.3405 15.333 10.3406Z" fill="black"/>
<path d="M26.2459 37.0865H14.7541C14.6107 37.0865 14.4732 37.0295 14.3718 36.9281C14.2705 36.8268 14.2135 36.6893 14.2135 36.5459V36.0324C14.2135 32.9443 13.3605 31.8956 11.66 29.8065C11.3108 29.3784 10.9324 28.9097 10.5205 28.3789C8.78124 26.1355 7.85708 23.367 7.9 20.5286C7.91499 19.2549 8.12911 17.9913 8.53459 16.7838C8.57242 16.6604 8.6531 16.5547 8.76207 16.4856C8.87104 16.4166 9.00111 16.3888 9.12878 16.4073C9.25645 16.4257 9.37331 16.4893 9.45824 16.5864C9.54317 16.6835 9.59057 16.8077 9.59189 16.9367C9.59206 16.9973 9.58257 17.0575 9.56378 17.1151C9.19099 18.2204 8.99436 19.3774 8.98108 20.5438C8.94236 23.138 9.78718 25.6683 11.3768 27.7189C11.78 28.2411 12.1551 28.7011 12.4989 29.1243C14.2378 31.2611 15.2892 32.5524 15.2946 36.0054H25.7054C25.7108 32.5724 26.7551 31.2848 28.4832 29.1556C28.8449 28.7102 29.24 28.2232 29.6649 27.6665C30.9454 25.9845 31.7385 23.9826 31.9572 21.8799C32.176 19.7773 31.8121 17.655 30.9053 15.7454C29.9984 13.8358 28.5837 12.2126 26.8159 11.0533C25.0481 9.89405 22.9955 9.24353 20.8827 9.17294C20.7393 9.17072 20.6027 9.11164 20.5029 9.0087C20.4031 8.90576 20.3483 8.76738 20.3505 8.62402C20.3528 8.48066 20.4118 8.34406 20.5148 8.24426C20.6177 8.14446 20.7561 8.08964 20.8995 8.09186H20.9173C23.2287 8.16874 25.4743 8.88016 27.4083 10.1482C29.3423 11.4163 30.8901 13.192 31.8821 15.2811C32.8742 17.3701 33.2722 19.6919 33.0328 21.9921C32.7933 24.2923 31.9254 26.4823 30.5243 28.3221C30.0919 28.8892 29.6903 29.3838 29.3227 29.8356C27.6351 31.9189 26.7865 32.9627 26.7865 36.0324V36.5459C26.7865 36.6893 26.7295 36.8268 26.6282 36.9281C26.5268 37.0295 26.3893 37.0865 26.2459 37.0865Z" fill="black"/>
<path d="M11.0946 13.7189C10.9925 13.7188 10.8925 13.6898 10.8062 13.6353C10.7199 13.5808 10.6507 13.5029 10.6069 13.4107C10.563 13.3185 10.5461 13.2158 10.5582 13.1144C10.5703 13.013 10.6108 12.9171 10.6751 12.8378C11.0366 12.3902 11.4256 11.9656 11.84 11.5664C11.9435 11.4672 12.0822 11.4132 12.2255 11.4163C12.3689 11.4193 12.5051 11.4792 12.6043 11.5827C12.7035 11.6862 12.7576 11.8248 12.7545 11.9682C12.7515 12.1115 12.6916 12.2478 12.5881 12.347C12.2063 12.715 11.8478 13.1063 11.5146 13.5189C11.4639 13.5814 11.3999 13.6318 11.3272 13.6664C11.2545 13.701 11.1751 13.7189 11.0946 13.7189Z" fill="black"/>
<path d="M28.0503 40.5346H12.9497C12.6763 40.5343 12.4142 40.4255 12.221 40.2322C12.0277 40.0388 11.9191 39.7766 11.9189 39.5032V37.0389C11.9191 36.7655 12.0277 36.5034 12.221 36.31C12.4142 36.1166 12.6763 36.0079 12.9497 36.0076H28.0503C28.3237 36.0079 28.5858 36.1166 28.779 36.31C28.9723 36.5034 29.0809 36.7655 29.0811 37.0389V39.5032C29.0809 39.7766 28.9723 40.0388 28.779 40.2322C28.5858 40.4255 28.3237 40.5343 28.0503 40.5346ZM13 39.4535H28V37.0886H13V39.4535Z" fill="black"/>
<path d="M23.8384 45.9189H17.1616C16.6535 45.9183 16.1664 45.7163 15.8071 45.3571C15.4478 44.9978 15.2456 44.5108 15.2449 44.0027V39.994C15.2449 39.8507 15.3018 39.7132 15.4032 39.6118C15.5046 39.5104 15.642 39.4535 15.7854 39.4535H25.2146C25.358 39.4535 25.4954 39.5104 25.5968 39.6118C25.6982 39.7132 25.7551 39.8507 25.7551 39.994V44.0027C25.7544 44.5108 25.5522 44.9978 25.1929 45.3571C24.8336 45.7163 24.3465 45.9183 23.8384 45.9189ZM16.3249 40.5346V44.0027C16.3252 44.2244 16.4135 44.4369 16.5704 44.5935C16.7273 44.7501 16.9399 44.838 17.1616 44.8378H23.8384C24.0599 44.8377 24.2723 44.7497 24.4289 44.5931C24.5856 44.4365 24.6738 44.2242 24.6741 44.0027V40.5346H16.3249Z" fill="black"/>
<path d="M27.7481 43.0475H25.2151C25.0718 43.0475 24.9343 42.9906 24.8329 42.8892C24.7315 42.7878 24.6746 42.6503 24.6746 42.507C24.6746 42.3636 24.7315 42.2261 24.8329 42.1248C24.9343 42.0234 25.0718 41.9664 25.2151 41.9664H27.7481C27.8915 41.9664 28.029 42.0234 28.1303 42.1248C28.2317 42.2261 28.2886 42.3636 28.2886 42.507C28.2886 42.6503 28.2317 42.7878 28.1303 42.8892C28.029 42.9906 27.8915 43.0475 27.7481 43.0475Z" fill="black"/>
<path d="M15.7849 43.0475H13.2519C13.1085 43.0475 12.971 42.9906 12.8697 42.8892C12.7683 42.7878 12.7113 42.6503 12.7113 42.507C12.7113 42.3636 12.7683 42.2261 12.8697 42.1248C12.971 42.0234 13.1085 41.9664 13.2519 41.9664H15.7849C15.9282 41.9664 16.0657 42.0234 16.1671 42.1248C16.2685 42.2261 16.3254 42.3636 16.3254 42.507C16.3254 42.6503 16.2685 42.7878 16.1671 42.8892C16.0657 42.9906 15.9282 43.0475 15.7849 43.0475Z" fill="black"/>
<path d="M24.3795 24.2298C24.2691 24.2298 24.1615 24.1961 24.0708 24.1332C23.9802 24.0703 23.911 23.9812 23.8726 23.8778C23.8341 23.7744 23.8281 23.6617 23.8556 23.5549C23.883 23.448 23.9424 23.3521 24.0259 23.28L26.9541 20.7503L24.0259 18.22C23.9174 18.1263 23.8506 17.9934 23.8401 17.8504C23.8296 17.7074 23.8763 17.5661 23.97 17.4576C24.0637 17.3491 24.1966 17.2822 24.3396 17.2717C24.4826 17.2612 24.6239 17.308 24.7324 17.4016L28.1341 20.3411C28.1927 20.3918 28.2398 20.4546 28.2721 20.5252C28.3044 20.5958 28.3211 20.6724 28.3211 20.75C28.3211 20.8276 28.3044 20.9043 28.2721 20.9749C28.2398 21.0454 28.1927 21.1082 28.1341 21.1589L24.7324 24.0984C24.6345 24.1833 24.5091 24.23 24.3795 24.2298Z" fill="black"/>
<path d="M16.6205 24.2298C16.4909 24.23 16.3655 24.1833 16.2676 24.0984L12.8659 21.1589C12.8073 21.1082 12.7602 21.0454 12.7279 20.9749C12.6956 20.9043 12.6789 20.8276 12.6789 20.75C12.6789 20.6724 12.6956 20.5958 12.7279 20.5252C12.7602 20.4546 12.8073 20.3918 12.8659 20.3411L16.2676 17.4016C16.3213 17.3553 16.3837 17.3199 16.451 17.2976C16.5184 17.2753 16.5896 17.2665 16.6604 17.2717C16.7312 17.2769 16.8003 17.296 16.8637 17.3279C16.9271 17.3598 16.9836 17.4039 17.03 17.4576C17.0764 17.5113 17.1117 17.5737 17.134 17.6411C17.1563 17.7085 17.1651 17.7796 17.1599 17.8504C17.1547 17.9212 17.1356 17.9903 17.1038 18.0537C17.0719 18.1171 17.0278 18.1736 16.9741 18.22L14.0459 20.7503L16.9741 23.28C17.0576 23.3521 17.117 23.448 17.1444 23.5549C17.1719 23.6617 17.1659 23.7744 17.1274 23.8778C17.089 23.9812 17.0198 24.0703 16.9292 24.1332C16.8385 24.1961 16.7309 24.2298 16.6205 24.2298Z" fill="black"/>
<path d="M18.7097 27.2026C18.6564 27.2026 18.6035 27.1947 18.5524 27.1794C18.4152 27.1378 18.3002 27.0435 18.2326 26.917C18.165 26.7906 18.1503 26.6425 18.1919 26.5054L21.773 14.681C21.8145 14.5438 21.9089 14.4286 22.0354 14.361C22.1619 14.2933 22.31 14.2786 22.4473 14.3202C22.5846 14.3618 22.6997 14.4562 22.7674 14.5827C22.835 14.7091 22.8497 14.8573 22.8081 14.9945L19.227 26.8189C19.1934 26.9299 19.1249 27.0271 19.0318 27.0962C18.9386 27.1653 18.8257 27.2026 18.7097 27.2026Z" fill="black"/>
</svg>
