<svg width="42" height="34" viewBox="0 0 42 34" fill="none" xmlns="http://www.w3.org/2000/svg">
<path d="M0.00390625 33.138L41.5755 0.284668H0.00390625V33.138Z" fill="#2F80ED"/>
<path fill-rule="evenodd" clip-rule="evenodd" d="M10.2867 5.19524C10.5112 4.50426 11.4888 4.50426 11.7133 5.19524L12.8523 8.70056C12.9526 9.00957 13.2406 9.21879 13.5655 9.21879H17.2513C17.9778 9.21879 18.2799 10.1485 17.6921 10.5755L14.7103 12.742C14.4474 12.9329 14.3374 13.2715 14.4379 13.5805L15.5768 17.0858C15.8013 17.7768 15.0104 18.3514 14.4226 17.9243L11.4409 15.758C11.178 15.5669 10.822 15.5669 10.5592 15.758L7.57735 17.9243C6.98957 18.3514 6.19871 17.7768 6.42322 17.0858L7.56217 13.5805C7.66258 13.2715 7.55258 12.9329 7.28972 12.742L4.30792 10.5755C3.72013 10.1485 4.02221 9.21879 4.74875 9.21879H8.43447C8.75938 9.21879 9.04735 9.00957 9.14776 8.70056L10.2867 5.19524Z" fill="#F2C94C"/>
</svg>
