<svg width="15" height="16" viewBox="0 0 15 16" fill="none" xmlns="http://www.w3.org/2000/svg">
<path d="M13.8964 15.1036C14.0917 15.2988 14.4083 15.2988 14.6036 15.1036C14.7988 14.9083 14.7988 14.5917 14.6036 14.3964L13.8964 15.1036ZM10.1036 9.89645C9.90829 9.70118 9.59171 9.70118 9.39645 9.89645C9.20118 10.0917 9.20118 10.4083 9.39645 10.6036L10.1036 9.89645ZM14.6036 14.3964L10.1036 9.89645L9.39645 10.6036L13.8964 15.1036L14.6036 14.3964ZM10.75 6.5C10.75 9.12336 8.62336 11.25 6 11.25V12.25C9.17564 12.25 11.75 9.67564 11.75 6.5H10.75ZM6 11.25C3.37665 11.25 1.25 9.12336 1.25 6.5H0.25C0.25 9.67564 2.82437 12.25 6 12.25V11.25ZM1.25 6.5C1.25 3.87665 3.37665 1.75 6 1.75V0.75C2.82437 0.75 0.25 3.32437 0.25 6.5H1.25ZM6 1.75C8.62336 1.75 10.75 3.87665 10.75 6.5H11.75C11.75 3.32437 9.17564 0.75 6 0.75V1.75Z" fill="white"/>
</svg>
