<svg width="16" height="14" viewBox="0 0 16 14" fill="none" xmlns="http://www.w3.org/2000/svg">
<path d="M13.9893 2.46385H11.1773V1.70385C11.1773 0.883106 10.5085 0.214279 9.68775 0.214279H5.58375C4.763 0.214279 4.09418 0.883106 4.09418 1.70385V2.46385H1.28218C0.598202 2.46385 0.0357208 3.02622 0.0357208 3.71031V12.4199C0.0357208 13.1039 0.598094 13.6664 1.28218 13.6664H13.9894C14.6733 13.6664 15.2358 13.104 15.2358 12.4199L15.2357 5.19991V3.71033C15.2357 3.02625 14.6734 2.46388 13.9893 2.46388L13.9893 2.46385ZM4.85412 1.70385C4.85412 1.29343 5.18852 0.974279 5.58369 0.974279H9.68769C10.0981 0.974279 10.4173 1.30868 10.4173 1.70385V2.46385H4.85407L4.85412 1.70385ZM4.47412 3.22385H14.0045C14.2781 3.22385 14.491 3.43665 14.491 3.71031V5.19988C14.4757 6.32463 13.5637 7.25183 12.4237 7.25183H12.1348V7.03903C12.1348 6.6286 11.8004 6.2942 11.39 6.2942H10.2044C9.79399 6.2942 9.45959 6.6286 9.45959 7.03903L9.45969 7.25183H5.79649V7.03903C5.79649 6.6286 5.46209 6.2942 5.05166 6.2942H3.86606C3.45564 6.2942 3.12124 6.6286 3.12124 7.03903L3.12134 7.25183H2.83252C1.70777 7.25183 0.795743 6.32463 0.795743 5.19988V3.71031V3.64955V3.60396C0.795743 3.5888 0.810905 3.57353 0.810905 3.55837C0.810905 3.54321 0.810905 3.52794 0.826066 3.51278C0.826066 3.49762 0.841228 3.48235 0.856496 3.46719C0.856496 3.45202 0.871658 3.43676 0.871658 3.43676C0.88682 3.42159 0.88682 3.40633 0.902088 3.39116C0.91725 3.376 0.91725 3.376 0.932518 3.36073C0.94768 3.34557 0.962948 3.34557 0.97811 3.3303L1.00854 3.29987C1.0237 3.28471 1.03897 3.28471 1.05413 3.26944C1.06929 3.26944 1.06929 3.25428 1.08456 3.25428C1.09972 3.23912 1.11499 3.23912 1.14532 3.23912C1.16048 3.23912 1.17575 3.22396 1.17575 3.22396C1.20617 3.22396 1.2365 3.2088 1.2822 3.2088L4.4742 3.20859L4.47412 3.22385ZM10.2349 7.63185V7.06948H11.3749V8.20948H10.2349V7.63185ZM3.89652 7.63185V7.06948H5.03652V8.20948H3.89652V7.63185ZM14.4757 12.4199C14.4757 12.6934 14.2629 12.9063 13.9893 12.9063L1.28207 12.9062C1.02357 12.9062 0.795612 12.6934 0.795612 12.4199V7.11505C1.31239 7.66225 2.04207 8.01183 2.84767 8.01183H3.13649V8.23979C3.13649 8.65021 3.47089 8.98461 3.88132 8.98461H5.06692C5.47735 8.98461 5.81175 8.65021 5.81175 8.23979L5.81164 8.01183H9.47484V8.23979C9.47484 8.65021 9.80924 8.98461 10.2197 8.98461H11.4053C11.8157 8.98461 12.1501 8.65021 12.1501 8.23979L12.15 8.01183H12.4388C13.2444 8.01183 13.974 7.66225 14.4909 7.11505L14.4908 12.4199L14.4757 12.4199Z" fill="#545454"/>
</svg>
