<svg width="25" height="25" viewBox="0 0 25 25" fill="none" xmlns="http://www.w3.org/2000/svg">
<path fill-rule="evenodd" clip-rule="evenodd" d="M8.11228 5.03268C8.11228 4.03845 8.91828 3.23266 9.9123 3.23266H14.7125C15.7065 3.23266 16.5125 4.03845 16.5125 5.03268V6.23262H19.5125C20.5067 6.23262 21.3125 7.03862 21.3125 8.03265V10.4327C21.3125 10.9659 21.0807 11.4449 20.7124 11.7743V19.4326C20.7124 20.4269 19.9066 21.2327 18.9124 21.2327H5.7126C4.71837 21.2327 3.91258 20.4269 3.91258 19.4326V11.7743C3.54433 11.4449 3.3125 10.9659 3.3125 10.4327V8.03265C3.3125 7.03862 4.11829 6.23262 5.11252 6.23262H8.11249L8.11228 5.03268ZM5.11232 11.0329H9.41467C9.66177 10.3338 10.3286 9.83277 11.1125 9.83277H13.5123C14.2962 9.83277 14.963 10.3338 15.2101 11.0329H19.5125C19.844 11.0329 20.1126 10.7643 20.1126 10.4328V8.03275C20.1126 7.70147 19.844 7.43288 19.5125 7.43288H5.11232C4.78084 7.43288 4.51224 7.70148 4.51224 8.03275V10.4328C4.51224 10.7643 4.78084 11.0329 5.11232 11.0329ZM14.1124 11.6328C14.1124 11.3015 13.8438 11.0329 13.5123 11.0329H11.1125C10.781 11.0329 10.5124 11.3015 10.5124 11.6328C10.5124 11.9643 10.781 12.2329 11.1125 12.2329H13.5123C13.8438 12.2329 14.1124 11.9643 14.1124 11.6328ZM9.41467 12.2329H5.11232V19.433C5.11232 19.7644 5.38091 20.033 5.71239 20.033H18.9122C19.2437 20.033 19.5123 19.7644 19.5123 19.433V12.2329H15.2099C14.9628 12.932 14.296 13.4328 13.5121 13.4328H11.1122C10.3284 13.4328 9.66158 12.932 9.41447 12.2329H9.41467ZM15.3126 5.03278V6.23273H9.31284V5.03278C9.31284 4.70131 9.58144 4.43271 9.91271 4.43271H14.7129C15.0442 4.43271 15.3128 4.70131 15.3128 5.03278H15.3126Z" fill="#545454"/>
</svg>
