<svg width="25" height="25" viewBox="0 0 25 25" fill="none" xmlns="http://www.w3.org/2000/svg">
<path d="M12.8125 8.23267C12.8125 7.95652 12.5886 7.73267 12.3125 7.73267C12.0364 7.73267 11.8125 7.95652 11.8125 8.23267H12.8125ZM12.3125 12.2327H11.8125C11.8125 12.3653 11.8652 12.4925 11.9589 12.5862L12.3125 12.2327ZM14.9589 15.5862C15.1542 15.7815 15.4708 15.7815 15.6661 15.5862C15.8613 15.391 15.8613 15.0744 15.6661 14.8791L14.9589 15.5862ZM11.8125 8.23267V12.2327H12.8125V8.23267H11.8125ZM11.9589 12.5862L14.9589 15.5862L15.6661 14.8791L12.6661 11.8791L11.9589 12.5862ZM20.8125 12.2327C20.8125 16.9271 17.007 20.7327 12.3125 20.7327V21.7327C17.5592 21.7327 21.8125 17.4794 21.8125 12.2327H20.8125ZM12.3125 20.7327C7.61808 20.7327 3.8125 16.9271 3.8125 12.2327H2.8125C2.8125 17.4794 7.0658 21.7327 12.3125 21.7327V20.7327ZM3.8125 12.2327C3.8125 7.53825 7.61808 3.73267 12.3125 3.73267V2.73267C7.0658 2.73267 2.8125 6.98596 2.8125 12.2327H3.8125ZM12.3125 3.73267C17.007 3.73267 20.8125 7.53825 20.8125 12.2327H21.8125C21.8125 6.98597 17.5592 2.73267 12.3125 2.73267V3.73267Z" fill="#545454"/>
</svg>
