<svg width="33" height="32" viewBox="0 0 33 32" fill="none" xmlns="http://www.w3.org/2000/svg">
<path d="M0.885376 16C0.885376 24.8366 8.04882 32 16.8854 32C25.7219 32 32.8854 24.8366 32.8854 16C32.8854 7.16344 25.7219 0 16.8854 0C8.04882 0 0.885376 7.16344 0.885376 16Z" fill="#1DA1F2"/>
<path d="M24.8854 11C24.2854 11.3 23.6854 11.4 22.9854 11.5C23.6854 11.1 24.1854 10.5 24.3854 9.7C23.7854 10.1 23.0854 10.3 22.2854 10.5C21.6854 9.9 20.7854 9.5 19.8854 9.5C17.7854 9.5 16.1854 11.5 16.6854 13.5C13.9854 13.4 11.5854 12.1 9.88538 10.1C8.98538 11.6 9.48538 13.5 10.8854 14.5C10.3854 14.5 9.88538 14.3 9.38538 14.1C9.38538 15.6 10.4854 17 11.9854 17.4C11.4854 17.5 10.9854 17.6 10.4854 17.5C10.8854 18.8 12.0854 19.8 13.5854 19.8C12.3854 20.7 10.5854 21.2 8.88538 21C10.3854 21.9 12.0854 22.5 13.8854 22.5C19.9854 22.5 23.3854 17.4 23.1854 12.7C23.8854 12.3 24.4854 11.7 24.8854 11Z" fill="white"/>
</svg>
