<svg width="16" height="17" viewBox="0 0 16 17" fill="none" xmlns="http://www.w3.org/2000/svg">
<path d="M8.5 5.53898C8.5 5.26284 8.27614 5.03898 8 5.03898C7.72386 5.03898 7.5 5.26284 7.5 5.53898H8.5ZM8 8.87231H7.5C7.5 9.00492 7.55268 9.1321 7.64645 9.22587L8 8.87231ZM10.1464 11.7259C10.3417 11.9211 10.6583 11.9211 10.8536 11.7259C11.0488 11.5306 11.0488 11.214 10.8536 11.0188L10.1464 11.7259ZM7.5 5.53898V8.87231H8.5V5.53898H7.5ZM7.64645 9.22587L10.1464 11.7259L10.8536 11.0188L8.35355 8.51876L7.64645 9.22587ZM15 8.87231C15 12.7383 11.866 15.8723 8 15.8723V16.8723C12.4183 16.8723 16 13.2906 16 8.87231H15ZM8 15.8723C4.13401 15.8723 1 12.7383 1 8.87231H0C0 13.2906 3.58173 16.8723 8 16.8723V15.8723ZM1 8.87231C1 5.00632 4.13401 1.87231 8 1.87231V0.872314C3.58172 0.872314 0 4.45404 0 8.87231H1ZM8 1.87231C11.866 1.87231 15 5.00632 15 8.87231H16C16 4.45404 12.4183 0.872314 8 0.872314V1.87231Z" fill="#B0B0B0"/>
</svg>
