<svg width="158" height="40" viewBox="0 0 158 40" fill="none" xmlns="http://www.w3.org/2000/svg">
<path d="M8.80662 39.9639H8.25814C7.30744 39.9639 6.3933 39.8725 5.51573 39.6896C4.63815 39.5068 3.852 39.1777 3.15725 38.7024C2.49907 38.227 1.95059 37.5688 1.5118 36.7278C1.10958 35.8868 0.908473 34.7898 0.908473 33.4369V0.144044H1.78605C2.66362 0.144044 3.52291 0.253741 4.36391 0.473133C5.20492 0.65596 5.95451 1.00333 6.61269 1.51525C7.27087 1.9906 7.80107 2.64878 8.20329 3.48979C8.60551 4.33079 8.80662 5.40948 8.80662 6.72583V39.9639ZM26.5303 20.6573C26.5303 20.2185 26.4937 19.798 26.4206 19.3958C26.3841 18.9936 26.2744 18.6462 26.0915 18.3537C25.9453 18.0246 25.7076 17.7686 25.3785 17.5858C25.086 17.3664 24.6655 17.2567 24.117 17.2567C23.8245 17.2567 23.5137 17.3115 23.1846 17.4212C22.892 17.4944 22.6178 17.6406 22.3618 17.86C22.2156 17.5675 22.1242 17.2933 22.0876 17.0373C22.051 16.7448 22.0328 16.4523 22.0328 16.1597C22.0328 14.9896 22.563 14.0206 23.6234 13.2528C24.6838 12.4849 26.0367 12.101 27.6821 12.101C29.6567 12.101 31.1741 12.7043 32.2345 13.911C33.3315 15.081 33.88 16.8179 33.88 19.1215V39.9639H33.5509C31.357 39.9639 29.6384 39.452 28.3952 38.4281C27.1519 37.3677 26.5303 35.6857 26.5303 33.3821V20.6573ZM14.0249 12.101H14.6282C16.5297 12.101 18.1203 12.6129 19.4 13.6367C20.7164 14.6605 21.3746 16.2877 21.3746 18.5182V39.9639H21.0455C20.2045 39.9639 19.3635 39.8542 18.5225 39.6348C17.718 39.4154 16.9684 39.068 16.2737 38.5927C15.6155 38.0807 15.067 37.4408 14.6282 36.673C14.226 35.8685 14.0249 34.8813 14.0249 33.7112V12.101ZM51.3299 20.6573C51.3299 20.2185 51.2933 19.798 51.2202 19.3958C51.1836 18.9936 51.0739 18.6462 50.8911 18.3537C50.7448 18.0246 50.5071 17.7686 50.178 17.5858C49.8855 17.3664 49.465 17.2567 48.9165 17.2567C48.624 17.2567 48.3132 17.3115 47.9841 17.4212C47.6916 17.4944 47.4174 17.6406 47.1614 17.86C47.0151 17.5675 46.9237 17.2933 46.8872 17.0373C46.8506 16.7448 46.8323 16.4523 46.8323 16.1597C46.8323 14.9896 47.3259 14.0206 48.3132 13.2528C49.3005 12.4849 50.4889 12.101 51.8783 12.101C54.0723 12.101 55.7543 12.6677 56.9244 13.8013C58.0945 14.8982 58.6795 16.4888 58.6795 18.5731V39.9639C57.8385 39.9639 56.9792 39.8725 56.1017 39.6896C55.2606 39.4702 54.4745 39.1229 53.7432 38.6475C53.0484 38.1356 52.4634 37.4774 51.988 36.673C51.5493 35.832 51.3299 34.7716 51.3299 33.4918V20.6573ZM46.1741 31.4075C46.1741 31.8463 46.1924 32.2668 46.229 32.6691C46.3021 33.0713 46.4118 33.4369 46.5581 33.766C46.7409 34.0585 46.9786 34.3145 47.2711 34.5339C47.6002 34.7167 48.039 34.8081 48.5874 34.8081C48.88 34.8081 49.1725 34.7716 49.465 34.6984C49.7941 34.5887 50.0866 34.4242 50.3426 34.2048C50.4889 34.4973 50.5803 34.7898 50.6168 35.0824C50.6534 35.3383 50.6717 35.6126 50.6717 35.9051C50.6717 37.0752 50.178 38.0442 49.1908 38.8121C48.2035 39.5799 47.0151 39.9639 45.6256 39.9639C43.4317 39.9639 41.7497 39.3788 40.5796 38.2087C39.4095 37.0386 38.8245 35.576 38.8245 33.8209V18.5731C38.8245 17.3664 39.0439 16.3608 39.4826 15.5564C39.958 14.7154 40.543 14.0389 41.2378 13.527C41.9691 13.0151 42.7553 12.6494 43.5963 12.43C44.4738 12.2107 45.3331 12.101 46.1741 12.101V31.4075ZM76.1294 20.6573C76.1294 20.2185 76.0928 19.798 76.0197 19.3958C75.9831 18.9936 75.8734 18.6462 75.6906 18.3537C75.5444 18.0246 75.3067 17.7686 74.9776 17.5858C74.6851 17.3664 74.2646 17.2567 73.7161 17.2567C73.4236 17.2567 73.1128 17.3115 72.7837 17.4212C72.4911 17.4944 72.2169 17.6406 71.9609 17.86C71.8147 17.5675 71.7233 17.2933 71.6867 17.0373C71.6501 16.7448 71.6318 16.4523 71.6318 16.1597C71.6318 14.9896 72.162 14.0206 73.2224 13.2528C74.2828 12.4849 75.6358 12.101 77.2812 12.101C79.2558 12.101 80.7732 12.7043 81.8336 13.911C82.9306 15.081 83.4791 16.8179 83.4791 19.1215V39.9639H83.15C80.956 39.9639 79.2375 39.452 77.9942 38.4281C76.751 37.3677 76.1294 35.6857 76.1294 33.3821V20.6573ZM63.624 12.101H64.2273C66.1287 12.101 67.7193 12.6129 68.9991 13.6367C70.3155 14.6605 70.9737 16.2877 70.9737 18.5182V39.9639H70.6446C69.8036 39.9639 68.9626 39.8542 68.1216 39.6348C67.3171 39.4154 66.5675 39.068 65.8728 38.5927C65.2146 38.0807 64.6661 37.4408 64.2273 36.673C63.8251 35.8685 63.624 34.8813 63.624 33.7112V12.101ZM100.929 20.6573C100.929 20.2185 100.892 19.798 100.819 19.3958C100.783 18.9936 100.673 18.6462 100.49 18.3537C100.344 18.0246 100.106 17.7686 99.7771 17.5858C99.4846 17.3664 99.0641 17.2567 98.5156 17.2567C98.2231 17.2567 97.9123 17.3115 97.5832 17.4212C97.2907 17.4944 97.0164 17.6406 96.7605 17.86C96.6142 17.5675 96.5228 17.2933 96.4862 17.0373C96.4497 16.7448 96.4314 16.4523 96.4314 16.1597C96.4314 14.9896 96.9616 14.0206 98.022 13.2528C99.0824 12.4849 100.435 12.101 102.081 12.101C104.055 12.101 105.573 12.7043 106.633 13.911C107.73 15.081 108.279 16.8179 108.279 19.1215V39.9639H107.95C105.756 39.9639 104.037 39.452 102.794 38.4281C101.551 37.3677 100.929 35.6857 100.929 33.3821V20.6573ZM88.4236 12.101H89.0269C90.9283 12.101 92.5189 12.6129 93.7987 13.6367C95.115 14.6605 95.7732 16.2877 95.7732 18.5182V39.9639H95.4441C94.6031 39.9639 93.7621 39.8542 92.9211 39.6348C92.1167 39.4154 91.3671 39.068 90.6723 38.5927C90.0142 38.0807 89.4657 37.4408 89.0269 36.673C88.6247 35.8685 88.4236 34.8813 88.4236 33.7112V12.101ZM125.728 20.6573C125.728 20.2185 125.692 19.798 125.619 19.3958C125.582 18.9936 125.473 18.6462 125.29 18.3537C125.143 18.0246 124.906 17.7686 124.577 17.5858C124.284 17.3664 123.864 17.2567 123.315 17.2567C123.023 17.2567 122.712 17.3115 122.383 17.4212C122.09 17.4944 121.816 17.6406 121.56 17.86C121.414 17.5675 121.322 17.2933 121.286 17.0373C121.249 16.7448 121.231 16.4523 121.231 16.1597C121.231 14.9896 121.725 14.0206 122.712 13.2528C123.699 12.4849 124.887 12.101 126.277 12.101C128.471 12.101 130.153 12.6677 131.323 13.8013C132.493 14.8982 133.078 16.4888 133.078 18.5731V39.9639C132.237 39.9639 131.378 39.8725 130.5 39.6896C129.659 39.4702 128.873 39.1229 128.142 38.6475C127.447 38.1356 126.862 37.4774 126.387 36.673C125.948 35.832 125.728 34.7716 125.728 33.4918V20.6573ZM120.573 31.4075C120.573 31.8463 120.591 32.2668 120.628 32.6691C120.701 33.0713 120.81 33.4369 120.957 33.766C121.14 34.0585 121.377 34.3145 121.67 34.5339C121.999 34.7167 122.438 34.8081 122.986 34.8081C123.279 34.8081 123.571 34.7716 123.864 34.6984C124.193 34.5887 124.485 34.4242 124.741 34.2048C124.887 34.4973 124.979 34.7898 125.015 35.0824C125.052 35.3383 125.07 35.6126 125.07 35.9051C125.07 37.0752 124.577 38.0442 123.589 38.8121C122.602 39.5799 121.414 39.9639 120.024 39.9639C117.83 39.9639 116.148 39.3788 114.978 38.2087C113.808 37.0386 113.223 35.576 113.223 33.8209V18.5731C113.223 17.3664 113.442 16.3608 113.881 15.5564C114.357 14.7154 114.942 14.0389 115.636 13.527C116.368 13.0151 117.154 12.6494 117.995 12.43C118.872 12.2107 119.732 12.101 120.573 12.101V31.4075ZM150.528 20.6573C150.528 20.2185 150.491 19.798 150.418 19.3958C150.382 18.9936 150.272 18.6462 150.089 18.3537C149.943 18.0246 149.705 17.7686 149.376 17.5858C149.084 17.3664 148.663 17.2567 148.115 17.2567C147.822 17.2567 147.511 17.3115 147.182 17.4212C146.89 17.4944 146.616 17.6406 146.36 17.86C146.213 17.5675 146.122 17.2933 146.085 17.0373C146.049 16.7448 146.03 16.4523 146.03 16.1597C146.03 14.9896 146.524 14.0206 147.511 13.2528C148.499 12.4849 149.687 12.101 151.077 12.101C153.27 12.101 154.952 12.6677 156.123 13.8013C157.293 14.8982 157.878 16.4888 157.878 18.5731V39.9639C157.037 39.9639 156.177 39.8725 155.3 39.6896C154.459 39.4702 153.673 39.1229 152.941 38.6475C152.247 38.1356 151.662 37.4774 151.186 36.673C150.747 35.832 150.528 34.7716 150.528 33.4918V20.6573ZM145.372 31.4075C145.372 31.8463 145.391 32.2668 145.427 32.6691C145.5 33.0713 145.61 33.4369 145.756 33.766C145.939 34.0585 146.177 34.3145 146.469 34.5339C146.798 34.7167 147.237 34.8081 147.786 34.8081C148.078 34.8081 148.371 34.7716 148.663 34.6984C148.992 34.5887 149.285 34.4242 149.541 34.2048C149.687 34.4973 149.778 34.7898 149.815 35.0824C149.852 35.3383 149.87 35.6126 149.87 35.9051C149.87 37.0752 149.376 38.0442 148.389 38.8121C147.402 39.5799 146.213 39.9639 144.824 39.9639C142.63 39.9639 140.948 39.3788 139.778 38.2087C138.608 37.0386 138.023 35.576 138.023 33.8209V18.5731C138.023 17.3664 138.242 16.3608 138.681 15.5564C139.156 14.7154 139.741 14.0389 140.436 13.527C141.167 13.0151 141.953 12.6494 142.794 12.43C143.672 12.2107 144.531 12.101 145.372 12.101V31.4075Z" fill="white"/>
</svg>
