<svg width="116" height="30" viewBox="0 0 116 30" fill="none" xmlns="http://www.w3.org/2000/svg">
<path d="M5.88583 30H5.48401C4.78752 30 4.11783 29.933 3.47492 29.7991C2.83201 29.6652 2.25607 29.4241 1.7471 29.0758C1.26492 28.7276 0.863099 28.2454 0.541644 27.6293C0.246977 27.0132 0.0996441 26.2095 0.0996441 25.2184V0.828001H0.742553C1.38546 0.828001 2.01498 0.908364 2.6311 1.06909C3.24722 1.20303 3.79637 1.45752 4.27855 1.83255C4.76074 2.18079 5.14916 2.66297 5.44383 3.27909C5.73849 3.89521 5.88583 4.68546 5.88583 5.64982V30ZM18.8702 15.856C18.8702 15.5345 18.8434 15.2265 18.7898 14.9318C18.7631 14.6372 18.6827 14.3827 18.5487 14.1684C18.4416 13.9273 18.2675 13.7398 18.0264 13.6058C17.8121 13.4451 17.504 13.3647 17.1022 13.3647C16.8879 13.3647 16.6602 13.4049 16.4191 13.4853C16.2048 13.5388 16.0039 13.646 15.8164 13.8067C15.7092 13.5924 15.6423 13.3915 15.6155 13.204C15.5887 12.9897 15.5753 12.7754 15.5753 12.5611C15.5753 11.7039 15.9637 10.994 16.7406 10.4315C17.5174 9.86891 18.5086 9.58764 19.714 9.58764C21.1606 9.58764 22.2723 10.0296 23.0491 10.9136C23.8527 11.7708 24.2546 13.0433 24.2546 14.7309V30H24.0135C22.4062 30 21.1472 29.625 20.2364 28.8749C19.3256 28.0981 18.8702 26.8658 18.8702 25.1782V15.856ZM9.70875 9.58764H10.1507C11.5437 9.58764 12.709 9.96267 13.6466 10.7127C14.6109 11.4628 15.0931 12.6548 15.0931 14.2889V30H14.852C14.2359 30 13.6198 29.9196 13.0037 29.7589C12.4143 29.5982 11.8652 29.3437 11.3562 28.9955C10.874 28.6204 10.4722 28.1516 10.1507 27.5891C9.85608 26.9998 9.70875 26.2765 9.70875 25.4193V9.58764ZM37.0384 15.856C37.0384 15.5345 37.0116 15.2265 36.958 14.9318C36.9312 14.6372 36.8508 14.3827 36.7169 14.1684C36.6097 13.9273 36.4356 13.7398 36.1945 13.6058C35.9802 13.4451 35.6722 13.3647 35.2704 13.3647C35.056 13.3647 34.8284 13.4049 34.5873 13.4853C34.373 13.5388 34.172 13.646 33.9845 13.8067C33.8774 13.5924 33.8104 13.3915 33.7836 13.204C33.7568 12.9897 33.7434 12.7754 33.7434 12.5611C33.7434 11.7039 34.1051 10.994 34.8284 10.4315C35.5516 9.86891 36.4222 9.58764 37.4402 9.58764C39.0474 9.58764 40.2797 10.0028 41.1369 10.8333C41.9941 11.6369 42.4227 12.8022 42.4227 14.3291V30C41.8066 30 41.1771 29.933 40.5342 29.7991C39.918 29.6384 39.3421 29.3839 38.8063 29.0356C38.2974 28.6606 37.8688 28.1784 37.5205 27.5891C37.1991 26.973 37.0384 26.1961 37.0384 25.2585V15.856ZM33.2613 23.7316C33.2613 24.0531 33.2747 24.3612 33.3014 24.6558C33.355 24.9505 33.4354 25.2184 33.5425 25.4595C33.6765 25.6738 33.8506 25.8613 34.0649 26.022C34.306 26.1559 34.6274 26.2229 35.0293 26.2229C35.2436 26.2229 35.4579 26.1961 35.6722 26.1425C35.9133 26.0622 36.1276 25.9416 36.3151 25.7809C36.4222 25.9952 36.4892 26.2095 36.516 26.4238C36.5428 26.6113 36.5562 26.8122 36.5562 27.0265C36.5562 27.8838 36.1945 28.5936 35.4713 29.1562C34.748 29.7187 33.8774 30 32.8594 30C31.2522 30 30.0199 29.5714 29.1627 28.7142C28.3055 27.857 27.8769 26.7855 27.8769 25.4996V14.3291C27.8769 13.4451 28.0376 12.7084 28.3591 12.1191C28.7073 11.503 29.1359 11.0074 29.6449 10.6324C30.1807 10.2573 30.7566 9.98945 31.3727 9.82873C32.0156 9.668 32.6451 9.58764 33.2613 9.58764V23.7316ZM55.2065 15.856C55.2065 15.5345 55.1797 15.2265 55.1261 14.9318C55.0993 14.6372 55.019 14.3827 54.885 14.1684C54.7779 13.9273 54.6038 13.7398 54.3627 13.6058C54.1484 13.4451 53.8403 13.3647 53.4385 13.3647C53.2242 13.3647 52.9965 13.4049 52.7554 13.4853C52.5411 13.5388 52.3402 13.646 52.1527 13.8067C52.0455 13.5924 51.9786 13.3915 51.9518 13.204C51.925 12.9897 51.9116 12.7754 51.9116 12.5611C51.9116 11.7039 52.3 10.994 53.0769 10.4315C53.8537 9.86891 54.8449 9.58764 56.0503 9.58764C57.4969 9.58764 58.6086 10.0296 59.3854 10.9136C60.189 11.7708 60.5909 13.0433 60.5909 14.7309V30H60.3498C58.7425 30 57.4835 29.625 56.5727 28.8749C55.6619 28.0981 55.2065 26.8658 55.2065 25.1782V15.856ZM46.045 9.58764H46.487C47.88 9.58764 49.0453 9.96267 49.9829 10.7127C50.9472 11.4628 51.4294 12.6548 51.4294 14.2889V30H51.1883C50.5722 30 49.9561 29.9196 49.3399 29.7589C48.7506 29.5982 48.2015 29.3437 47.6925 28.9955C47.2103 28.6204 46.8085 28.1516 46.487 27.5891C46.1924 26.9998 46.045 26.2765 46.045 25.4193V9.58764ZM73.3746 15.856C73.3746 15.5345 73.3479 15.2265 73.2943 14.9318C73.2675 14.6372 73.1871 14.3827 73.0532 14.1684C72.946 13.9273 72.7719 13.7398 72.5308 13.6058C72.3165 13.4451 72.0085 13.3647 71.6066 13.3647C71.3923 13.3647 71.1646 13.4049 70.9236 13.4853C70.7092 13.5388 70.5083 13.646 70.3208 13.8067C70.2137 13.5924 70.1467 13.3915 70.1199 13.204C70.0931 12.9897 70.0797 12.7754 70.0797 12.5611C70.0797 11.7039 70.4682 10.994 71.245 10.4315C72.0219 9.86891 73.013 9.58764 74.2185 9.58764C75.665 9.58764 76.7767 10.0296 77.5536 10.9136C78.3572 11.7708 78.759 13.0433 78.759 14.7309V30H78.5179C76.9106 30 75.6516 29.625 74.7408 28.8749C73.83 28.0981 73.3746 26.8658 73.3746 25.1782V15.856ZM64.2132 9.58764H64.6552C66.0482 9.58764 67.2134 9.96267 68.151 10.7127C69.1154 11.4628 69.5976 12.6548 69.5976 14.2889V30H69.3565C68.7403 30 68.1242 29.9196 67.5081 29.7589C66.9188 29.5982 66.3696 29.3437 65.8606 28.9955C65.3785 28.6204 64.9766 28.1516 64.6552 27.5891C64.3605 26.9998 64.2132 26.2765 64.2132 25.4193V9.58764ZM91.5428 15.856C91.5428 15.5345 91.516 15.2265 91.4624 14.9318C91.4356 14.6372 91.3553 14.3827 91.2213 14.1684C91.1142 13.9273 90.9401 13.7398 90.699 13.6058C90.4847 13.4451 90.1766 13.3647 89.7748 13.3647C89.5605 13.3647 89.3328 13.4049 89.0917 13.4853C88.8774 13.5388 88.6765 13.646 88.489 13.8067C88.3818 13.5924 88.3148 13.3915 88.2881 13.204C88.2613 12.9897 88.2479 12.7754 88.2479 12.5611C88.2479 11.7039 88.6095 10.994 89.3328 10.4315C90.0561 9.86891 90.9267 9.58764 91.9446 9.58764C93.5519 9.58764 94.7841 10.0028 95.6413 10.8333C96.4985 11.6369 96.9271 12.8022 96.9271 14.3291V30C96.311 30 95.6815 29.933 95.0386 29.7991C94.4225 29.6384 93.8465 29.3839 93.3108 29.0356C92.8018 28.6606 92.3732 28.1784 92.025 27.5891C91.7035 26.973 91.5428 26.1961 91.5428 25.2585V15.856ZM87.7657 23.7316C87.7657 24.0531 87.7791 24.3612 87.8059 24.6558C87.8595 24.9505 87.9398 25.2184 88.047 25.4595C88.1809 25.6738 88.355 25.8613 88.5693 26.022C88.8104 26.1559 89.1319 26.2229 89.5337 26.2229C89.748 26.2229 89.9623 26.1961 90.1766 26.1425C90.4177 26.0622 90.632 25.9416 90.8195 25.7809C90.9267 25.9952 90.9936 26.2095 91.0204 26.4238C91.0472 26.6113 91.0606 26.8122 91.0606 27.0265C91.0606 27.8838 90.699 28.5936 89.9757 29.1562C89.2524 29.7187 88.3818 30 87.3639 30C85.7566 30 84.5244 29.5714 83.6672 28.7142C82.8099 27.857 82.3813 26.7855 82.3813 25.4996V14.3291C82.3813 13.4451 82.5421 12.7084 82.8635 12.1191C83.2118 11.503 83.6404 11.0074 84.1493 10.6324C84.6851 10.2573 85.261 9.98945 85.8772 9.82873C86.5201 9.668 87.1496 9.58764 87.7657 9.58764V23.7316ZM109.711 15.856C109.711 15.5345 109.684 15.2265 109.631 14.9318C109.604 14.6372 109.523 14.3827 109.389 14.1684C109.282 13.9273 109.108 13.7398 108.867 13.6058C108.653 13.4451 108.345 13.3647 107.943 13.3647C107.729 13.3647 107.501 13.4049 107.26 13.4853C107.046 13.5388 106.845 13.646 106.657 13.8067C106.55 13.5924 106.483 13.3915 106.456 13.204C106.429 12.9897 106.416 12.7754 106.416 12.5611C106.416 11.7039 106.778 10.994 107.501 10.4315C108.224 9.86891 109.095 9.58764 110.113 9.58764C111.72 9.58764 112.952 10.0028 113.809 10.8333C114.667 11.6369 115.095 12.8022 115.095 14.3291V30C114.479 30 113.85 29.933 113.207 29.7991C112.591 29.6384 112.015 29.3839 111.479 29.0356C110.97 28.6606 110.541 28.1784 110.193 27.5891C109.872 26.973 109.711 26.1961 109.711 25.2585V15.856ZM105.934 23.7316C105.934 24.0531 105.947 24.3612 105.974 24.6558C106.028 24.9505 106.108 25.2184 106.215 25.4595C106.349 25.6738 106.523 25.8613 106.737 26.022C106.979 26.1559 107.3 26.2229 107.702 26.2229C107.916 26.2229 108.13 26.1961 108.345 26.1425C108.586 26.0622 108.8 25.9416 108.988 25.7809C109.095 25.9952 109.162 26.2095 109.189 26.4238C109.215 26.6113 109.229 26.8122 109.229 27.0265C109.229 27.8838 108.867 28.5936 108.144 29.1562C107.421 29.7187 106.55 30 105.532 30C103.925 30 102.693 29.5714 101.835 28.7142C100.978 27.857 100.549 26.7855 100.549 25.4996V14.3291C100.549 13.4451 100.71 12.7084 101.032 12.1191C101.38 11.503 101.809 11.0074 102.317 10.6324C102.853 10.2573 103.429 9.98945 104.045 9.82873C104.688 9.668 105.318 9.58764 105.934 9.58764V23.7316Z" fill="#2F80ED"/>
</svg>
