<svg width="428" height="320" viewBox="0 0 428 320" fill="none" xmlns="http://www.w3.org/2000/svg">
<path d="M-0.25 263.938H427.578V262.868H-0.25V263.938Z" fill="#102048"/>
<path d="M51.8237 287.108C40.5955 287.108 31.4937 285.377 31.4937 283.239C31.4937 281.101 40.5955 279.368 51.8237 279.368C63.0514 279.368 72.1534 281.101 72.1534 283.239C72.1534 285.377 63.0514 287.108 51.8237 287.108Z" fill="#DEE2ED"/>
<path d="M41.0847 259.532C38.2126 259.532 35.8762 261.939 35.8762 264.901C35.8762 268.167 39.836 273.029 42.4967 273.029C44.9412 273.029 46.2935 268.222 46.2935 264.901C46.2935 261.939 43.9566 259.532 41.0847 259.532ZM42.4967 275.704C38.0977 275.704 33.2012 269.265 33.2012 264.901C33.2012 260.465 36.7377 256.857 41.0847 256.857C45.4319 256.857 48.9685 260.465 48.9685 264.901C48.9685 269.078 47.2113 275.704 42.4967 275.704Z" fill="#1F3C88"/>
<path d="M57.7052 282.663H46.131C44.2078 282.663 42.606 281.189 42.447 279.273L40.0532 250.43H64.262L61.3837 279.333C61.1954 281.225 59.6049 282.663 57.7052 282.663Z" fill="#1F3C88"/>
<path d="M42.861 215.837C42.05 218.551 41.6874 221.346 42.1478 224.033C42.3765 225.373 42.7579 226.681 43.2873 227.935C43.8321 229.182 44.5077 230.379 45.2779 231.519C46.0742 232.645 46.9191 233.749 47.875 234.77C48.1012 235.016 48.3482 235.32 48.5962 235.617C48.8385 235.919 49.0959 236.202 49.3227 236.516L49.965 237.505C50.1871 237.826 50.3198 238.222 50.4959 238.575C50.6823 238.928 50.772 239.337 50.8879 239.726C51.023 240.109 51.045 240.535 51.094 240.944C51.1251 241.149 51.1199 241.357 51.1011 241.567L51.0589 242.189C51.0296 242.395 50.9727 242.596 50.9288 242.799C50.883 243 50.8394 243.204 50.7535 243.392L50.5199 243.959C50.4242 244.139 50.3198 244.312 50.2194 244.485C50.125 244.665 50.003 244.824 49.8836 244.982C49.764 245.14 49.6514 245.303 49.5106 245.442C48.9831 246.035 48.3951 246.512 47.6927 246.908L47.2467 246.2C48.2373 245.329 49.0488 244.156 49.3238 242.947C49.3773 242.801 49.3899 242.645 49.4073 242.493C49.4225 242.339 49.4531 242.189 49.4591 242.037L49.4385 241.577C49.4394 241.425 49.4295 241.275 49.3857 241.124C49.3153 240.822 49.2958 240.518 49.159 240.227C49.043 239.936 48.9679 239.636 48.7875 239.36C48.6195 239.082 48.5033 238.789 48.303 238.523L47.7287 237.721C47.5239 237.46 47.2803 237.22 47.0595 236.97L46.349 236.195C45.841 235.649 45.3338 235.104 44.869 234.515C44.3793 233.95 43.9481 233.33 43.5154 232.715C42.6986 231.451 41.9346 230.132 41.3919 228.705C40.8548 227.278 40.4728 225.782 40.3354 224.26C40.0225 221.204 40.7484 218.14 42.087 215.518L42.861 215.837Z" fill="#D3DFFF"/>
<path d="M53.3746 215.011C54.8718 216.238 56.0969 217.947 56.6614 219.918C56.9574 220.896 57.0841 221.919 57.0984 222.936C57.1125 223.954 56.9482 224.954 56.7468 225.932C56.5185 226.903 56.1915 227.841 55.8127 228.744L55.5591 229.364C55.4842 229.559 55.3922 229.752 55.3286 229.946L55.1664 230.531C55.1067 230.727 55.1003 230.914 55.0592 231.106C55.0102 231.303 55.0295 231.483 55.0209 231.669C54.9995 231.864 55.0509 232.031 55.0676 232.213C55.0738 232.401 55.1596 232.553 55.1957 232.735C55.2756 232.891 55.3333 233.069 55.4421 233.216C55.8136 233.848 56.527 234.385 57.2724 234.723L57.1085 235.542C56.0466 235.433 55.0569 234.98 54.2648 234.143C54.0667 233.94 53.9169 233.687 53.7557 233.447C53.6389 233.188 53.4758 232.932 53.4078 232.656C53.3325 232.38 53.2402 232.097 53.2272 231.819C53.2011 231.541 53.1561 231.254 53.1837 230.984C53.2049 230.717 53.1897 230.428 53.2498 230.171L53.4095 229.392C53.4737 229.137 53.5638 228.9 53.6413 228.652C53.7236 228.406 53.8028 228.151 53.8786 227.958C54.2131 227.134 54.4536 226.287 54.6734 225.444C54.8754 224.599 55.0004 223.745 55.053 222.893C55.0928 222.041 55.0329 221.194 54.8882 220.355C54.5921 218.673 53.8033 217.087 52.7651 215.585L53.3746 215.011Z" fill="#D3DFFF"/>
<path d="M360.653 288.998C338.195 288.998 319.992 286.303 319.992 282.98C319.992 280.598 329.331 278.539 342.883 277.564C344.45 280.624 347.633 282.663 351.23 282.663H370.071C373.673 282.663 376.851 280.622 378.42 277.564C391.97 278.539 401.312 280.598 401.312 282.98C401.312 286.303 383.106 288.998 360.653 288.998Z" fill="#DEE2ED"/>
<path d="M363.241 240.757H357.537V184.939H363.241V240.757Z" fill="#27481F"/>
<path d="M361.811 181.189C361.735 185.23 361.362 188.632 361.046 190.832C360.804 192.52 360.602 193.494 360.602 193.494C345.021 188.439 337.875 178.782 334.901 169.04C334.621 168.152 334.386 167.26 334.183 166.37C331.037 152.815 335.254 139.899 335.254 139.899C342.397 141.392 347.677 144.506 351.555 148.514C352.224 149.196 352.844 149.905 353.428 150.637C360.608 159.635 361.982 172.041 361.811 181.189Z" fill="#49883A"/>
<path d="M382.011 154.202C381.701 165.044 377.484 177.67 364.41 189.791C363.407 190.724 362.348 191.655 361.235 192.579C361.118 192.68 361 192.776 360.883 192.875C360.883 192.875 358.718 189.694 356.485 184.526C356.452 184.451 356.422 184.383 356.396 184.308C355.614 182.485 354.827 180.413 354.132 178.151C353.559 176.304 353.047 174.336 352.634 172.26C351.061 164.282 351.056 154.825 355.405 145.463C358.669 138.41 364.403 131.418 373.788 125.142C373.788 125.142 382.493 137.576 382.011 154.202Z" fill="#49883A"/>
<path d="M363.241 197.071V190.854C363.639 190.501 364.029 190.146 364.41 189.791C364.734 193.981 363.771 197.014 363.771 197.014C363.595 197.035 363.418 197.054 363.241 197.071Z" fill="#93A38F"/>
<path d="M361.051 197.219C361.065 197.133 361.076 197.047 361.087 196.96C361.103 196.863 361.114 196.769 361.125 196.666C361.129 196.609 361.136 196.549 361.147 196.489C361.161 196.367 361.172 196.239 361.183 196.104L361.19 196.05C361.248 195.419 361.283 194.736 361.283 194.015C361.283 193.551 361.268 193.071 361.236 192.579C361.404 192.442 361.566 192.305 361.729 192.166C362.247 191.729 362.748 191.293 363.241 190.854V197.071C362.496 197.146 361.769 197.195 361.054 197.216C361.054 197.219 361.053 197.219 361.051 197.219Z" fill="#27481F"/>
<path d="M354.13 178.152C350.15 174.514 344.079 171.222 334.903 169.04C334.624 168.151 334.389 167.259 334.185 166.369C339.401 167.154 343.729 168.312 347.332 169.722C347.623 161.541 350.058 152.469 351.558 148.513C352.226 149.195 352.845 149.902 353.428 150.633C352.6 153.356 352.098 156.063 351.854 158.714C351.854 158.72 351.854 158.725 351.852 158.731C351.852 158.738 351.852 158.742 351.852 158.748C351.415 163.508 351.808 168.087 352.632 172.26C353.045 174.336 353.559 176.305 354.13 178.152Z" fill="#38682C"/>
<path d="M351.85 158.749C351.85 158.743 351.85 158.738 351.85 158.732C351.85 158.738 351.85 158.743 351.85 158.749ZM351.852 158.715C352.097 156.063 352.598 153.356 353.427 150.634C353.427 150.634 353.427 150.636 353.429 150.636C352.598 153.358 352.099 156.066 351.852 158.715Z" fill="#38682C"/>
<path d="M361.187 196.051L361.181 196.104C361.17 196.239 361.161 196.368 361.145 196.49C361.134 196.55 361.127 196.61 361.123 196.667C361.112 196.77 361.103 196.864 361.085 196.96C361.048 197.256 361.005 197.53 360.963 197.791C360.934 197.962 360.903 198.129 360.87 198.287C360.588 199.727 360.267 200.583 360.267 200.583C358.741 200.68 357.286 200.675 355.884 200.579C330.501 198.876 325.288 167.321 325.288 167.321C326.107 167.424 326.905 167.535 327.686 167.66C330.279 168.045 332.684 168.509 334.902 169.04C344.078 171.223 350.15 174.514 354.129 178.152C355.329 179.244 356.334 180.371 357.175 181.505C359.528 184.673 360.624 187.925 361.048 190.832C361.139 191.431 361.198 192.013 361.234 192.58C361.316 193.843 361.285 195.013 361.187 196.051Z" fill="#49883A"/>
<path d="M365.477 188.785C368.733 185.639 371.407 182.463 373.584 179.3C371.407 182.466 368.736 185.639 365.477 188.785Z" fill="#ADB9AA"/>
<path d="M361.236 192.579C361.201 192.012 361.14 191.43 361.051 190.831C360.626 187.925 359.531 184.672 357.176 181.504C356.337 180.37 355.331 179.243 354.132 178.151C353.56 176.304 353.047 174.335 352.634 172.26C354.085 173.105 355.368 173.997 356.492 174.928C357.289 175.583 357.995 176.251 358.642 176.931C361.986 168.183 368.722 159.227 382.012 154.202C381.855 159.623 380.722 165.486 377.992 171.517C376.831 174.089 375.377 176.692 373.583 179.3C371.407 182.463 368.733 185.639 365.476 188.785C365.126 189.121 364.772 189.457 364.411 189.791C364.383 189.814 364.357 189.84 364.329 189.861C363.945 190.219 363.548 190.578 363.14 190.938C363.023 191.045 362.906 191.152 362.784 191.259C362.437 191.558 362.087 191.864 361.728 192.166C361.567 192.305 361.402 192.442 361.236 192.579Z" fill="#3C7030"/>
<path d="M361.234 192.579C361.403 192.443 361.565 192.306 361.727 192.167C361.565 192.306 361.403 192.443 361.234 192.579Z" fill="#27481F"/>
<path d="M358.087 200.654C357.34 200.654 356.605 200.629 355.885 200.579C355.65 198.829 354.971 192.317 356.483 184.527C356.676 183.539 356.907 182.526 357.173 181.506C359.529 184.673 360.624 187.926 361.048 190.832C361.137 191.431 361.197 192.013 361.234 192.58C361.265 193.072 361.281 193.552 361.281 194.016C361.281 194.737 361.245 195.42 361.188 196.051L361.181 196.105C361.17 196.239 361.159 196.368 361.143 196.49C361.132 196.55 361.128 196.61 361.124 196.667C361.112 196.77 361.101 196.864 361.084 196.961C361.048 197.256 361.006 197.53 360.962 197.791C360.931 197.962 360.902 198.129 360.871 198.287C360.587 199.728 360.267 200.584 360.267 200.584C359.524 200.631 358.799 200.654 358.087 200.654Z" fill="#427B35"/>
<path d="M385.618 233.625L379.345 274.703C378.642 279.282 374.705 282.663 370.072 282.663H351.229C347.126 282.663 343.563 280.01 342.323 276.218C342.162 275.73 342.036 275.22 341.958 274.703L335.683 233.625H385.618Z" fill="#FBC343"/>
<path d="M359.61 200.632C359.61 200.632 352.734 159.854 396.466 153.973C396.466 153.973 399.208 198.661 359.61 200.632Z" fill="#49883A"/>
<path d="M370.072 282.663H351.229C347.126 282.663 343.563 280.01 342.323 276.218C366.786 272.295 373.346 247.107 374.672 233.625H385.618L381.151 262.869L380.988 263.939L379.345 274.703C378.642 279.282 374.705 282.663 370.072 282.663Z" fill="#E7B33D"/>
<path d="M154.95 319.891C147.905 319.891 142.149 318.679 140.455 315.123C139.552 313.227 144.002 312.142 150.956 311.532C154.04 314.421 159.095 316.404 163.173 316.693C163.377 316.71 163.574 316.721 163.772 316.728C163.876 316.73 163.984 316.732 164.097 316.732C166.485 316.732 170.794 315.989 175.152 315.084C181.893 313.689 188.741 311.913 188.741 311.913C191.14 312.294 193.242 312.463 195.075 312.463C197.199 312.463 198.963 312.234 200.412 311.844C205.385 312.377 208.4 313.07 208.4 313.83C208.4 314.555 205.093 314.761 201.345 314.761C196.444 314.761 190.79 314.41 190.79 314.41C190.79 314.41 169.946 319.891 154.95 319.891ZM200.575 311.799H200.575H200.575ZM168.587 298.003C167.785 297.947 167.013 297.906 166.266 297.878C166.456 295.952 166.099 294.003 164.967 292.145C124.436 290.99 95.0288 287.544 95.0288 283.474C95.0288 281.73 100.433 280.099 109.805 278.717C117.269 282.642 125.813 284.762 134.32 285.67C142.326 286.521 150.35 286.855 158.383 286.855C164.029 286.855 169.681 286.691 175.326 286.425C176.067 288.955 176.424 291.035 176.077 292.118C174.649 296.577 168.587 298.003 168.587 298.003ZM199.326 292.552C199.061 292.163 198.906 291.94 198.906 291.94C198.906 290.373 198.67 287.761 198.351 284.946C219.297 283.472 244.215 285.481 264.271 276.945C283.035 278.597 294.7 280.913 294.7 283.474C294.7 288.358 252.394 292.338 199.326 292.552Z" fill="#DEE2ED"/>
<path d="M303.519 216.74C302.203 238.457 291.257 260.155 273.313 272.098C251.923 286.333 222.017 283.183 197.659 284.996C176.601 286.564 155.383 287.91 134.32 285.67C117.061 283.829 99.6526 276.992 91.4081 260.236C83.1479 243.441 82.2542 221.127 90.5146 204.129C93.1468 198.707 96.6725 193.885 100.819 189.68C101.493 188.989 102.194 188.317 102.905 187.658C103.387 187.215 103.874 186.776 104.371 186.346C105.131 185.689 105.912 185.047 106.704 184.422C106.966 184.219 107.228 184.013 107.496 183.81C107.758 183.609 108.025 183.41 108.293 183.211C108.56 183.014 108.828 182.817 109.101 182.622C109.304 182.479 109.507 182.336 109.71 182.19C110.047 181.95 110.39 181.713 110.738 181.484C113.814 179.408 117.056 177.585 120.4 176.016C123.653 174.48 127.002 173.187 130.372 172.136C141.452 168.697 153.024 167.478 164.457 165.973C188.719 162.791 213.42 161.704 237.874 161.721C257.83 161.727 280.3 164.711 293.643 181.843C301.176 191.514 304.274 204.371 303.519 216.74Z" fill="#EE6F57"/>
<path d="M262.437 180.063C262.437 180.063 267.584 175.229 270.312 172.43C273.041 169.63 267.089 169.541 264.156 173.027C261.222 176.515 262.437 180.063 262.437 180.063Z" fill="#F9B384"/>
<path d="M120.399 176.016C117.056 177.585 113.814 179.408 110.737 181.484C110.39 181.713 110.047 181.95 109.71 182.19C109.507 182.336 109.304 182.479 109.1 182.622C108.827 182.817 108.56 183.014 108.292 183.211C108.025 183.41 107.757 183.609 107.495 183.81C107.228 184.013 106.966 184.219 106.703 184.422C105.922 185.041 105.157 185.678 104.403 186.331L104.371 186.348C103.873 186.776 103.386 187.215 102.905 187.658C102.193 188.317 101.493 188.989 100.818 189.68C100.877 190.247 101.246 190.793 101.853 190.917C105.869 191.73 107.879 195.561 111.116 197.739C113.518 199.355 116.357 199.798 119.075 198.871C116.149 205.069 114.535 211.217 115.798 218.153C116.183 220.25 116.849 222.292 117.758 224.22C113.997 221.427 110.375 215.444 108.885 209.377C108.674 208.516 107.804 207.977 106.944 208.202C106.083 208.414 105.556 209.282 105.768 210.143C107.612 217.654 112.307 224.872 117.186 227.695C118.347 228.367 119.527 228.793 120.695 228.99C121.662 230.229 122.74 231.38 123.925 232.412L131.137 234.427L137.022 196.442L120.399 176.016Z" fill="#B35341"/>
<path d="M141.302 201.525C126.391 195.717 116.039 189.541 110.029 185.43C106.134 182.764 104.164 178.064 104.962 173.412L112.651 128.592C113.442 123.98 116.501 120.057 120.803 118.213C133.138 112.923 145.148 109.901 155.747 108.435C155.747 108.435 161.684 107.956 169.256 108.702C174.238 109.195 185.645 112.554 192.896 114.808C196.993 116.079 200.281 119.148 201.833 123.147C204.873 130.984 209.812 144.216 211.387 151.368C216.825 176.068 215.935 174.24 215.935 174.24L221.552 212.225L161.9 215.568L146.652 208.615L141.302 201.525Z" fill="#708CD5"/>
<path d="M178.217 65.7677C178.217 65.7677 172.934 54.9351 158.89 59.8827C148.725 57.6764 140.968 69.7139 148.458 86.0977L162.568 89.3762L178.217 65.7677Z" fill="#102048"/>
<path d="M170.727 96.3975V115.561C170.727 120.044 167.089 123.682 162.606 123.682C156.528 123.682 151.601 118.754 151.601 112.676V96.3975H170.727Z" fill="#F9B384"/>
<path d="M170.727 104.348V114.802C162.204 114.844 156.549 103.823 156.549 103.823L170.727 104.348Z" fill="#E28B6D"/>
<path d="M179.159 93.9836C178.645 96.6372 177.912 99.355 176.858 101.748C175.018 105.946 172.209 109.145 167.918 109.238C157.876 109.452 150.13 95.7277 150.13 95.7277L151.735 77.0027L159.359 68.4427L180.357 81.4175C180.357 81.4175 180.416 87.5058 179.159 93.9836Z" fill="#F9B384"/>
<path d="M151.4 90.245C151.4 90.245 153.473 81.8177 160.696 76.335C160.696 76.335 171.195 90.0438 182.296 83.4227C193.398 76.8037 188.583 63.7625 178.217 65.7677L166.313 64.4302L151.4 69.1788L148.859 80.8825L151.4 90.245Z" fill="#102048"/>
<path d="M161.939 187.36L144.925 183.881C139.895 175.689 126.292 174.396 126.292 174.396L132.385 140.09C132.408 143.944 131.579 156.664 135.952 167.91C139.073 175.935 151.824 165.502 161.939 187.36Z" fill="#506CB6"/>
<path d="M132.696 139.503C132.316 142.44 131.869 145.363 131.407 148.282C130.958 151.205 130.429 154.113 129.944 157.03C129.436 159.943 128.903 162.851 128.333 165.751L127.461 170.099C127.146 171.546 126.852 172.994 126.514 174.435L126.071 174.358C126.248 172.887 126.47 171.426 126.67 169.96L127.344 165.575C127.803 162.656 128.3 159.741 128.823 156.831C129.368 153.925 129.87 151.012 130.451 148.113C131.019 145.211 131.603 142.313 132.253 139.426L132.696 139.503Z" fill="#1F3C88"/>
<path d="M191.798 134.079C192.608 137.89 193.355 141.712 194.088 145.538C194.832 149.362 195.504 153.197 196.216 157.028C196.894 160.863 197.559 164.7 198.205 168.541L199.138 174.308C199.426 176.234 199.735 178.158 200.001 180.089L199.59 180.161C199.173 178.259 198.797 176.348 198.402 174.439L197.285 168.704C196.563 164.877 195.861 161.047 195.172 157.212C194.516 153.373 193.821 149.542 193.198 145.697C192.564 141.853 191.944 138.008 191.386 134.151L191.798 134.079Z" fill="#1F3C88"/>
<path d="M177.682 203.13L177.504 195.283C192.48 194.805 194.931 166.003 194.774 154.907C194.908 155.676 195.041 156.444 195.172 157.212C195.861 161.047 196.563 164.878 197.285 168.704L198.402 174.439C198.798 176.348 199.173 178.259 199.59 180.161L200.002 180.089C200 180.076 199.998 180.063 199.996 180.052L204.076 201.525L177.682 203.13Z" fill="#506CB6"/>
<path d="M199.589 180.161C199.172 178.259 198.797 176.348 198.402 174.439L197.284 168.704C196.563 164.877 195.86 161.047 195.172 157.212C195.04 156.444 194.908 155.675 194.774 154.907C194.755 153.583 194.7 152.513 194.624 151.77L199.996 180.052C199.998 180.063 199.999 180.076 200.001 180.089L199.589 180.161Z" fill="#1F3C88"/>
<path d="M160.161 194.303C172.065 189.22 174.34 189.408 175.943 189.488C181.427 189.755 189.318 200.723 189.318 200.723L189.185 202.73H159.091L160.161 194.303Z" fill="#E28B6D"/>
<path d="M205.948 206.385H168.899V200.768H205.948V206.385Z" fill="white"/>
<path d="M256.327 206.389H191.949L206.394 148.857H270.772L256.327 206.389Z" fill="#FBC343"/>
<path d="M262.161 182.86C255.792 181.908 235.195 177.628 192.751 203.487L191.771 207.053L256.327 206.389L262.161 182.86Z" fill="#C89B35"/>
<path d="M263.383 195.64C262.981 198.349 262.848 202.327 254.455 201.827L251.981 200.556L254.32 197.981L259.37 195.407L263.383 195.64Z" fill="#F9B384"/>
<path d="M264.175 188.328C264.175 188.328 268.767 194.328 264.151 196.175C259.135 198.182 254.32 197.981 254.32 197.981C256.46 191.961 263.415 192.364 263.415 192.364L264.175 188.328Z" fill="#F9B384"/>
<path d="M264.307 184.45C264.307 184.45 270.637 190.335 264.752 191.985C256.443 194.313 253.875 194.48 253.875 194.48C253.43 190.067 261.677 187.215 261.677 187.215L264.307 184.45Z" fill="#F9B384"/>
<path d="M263.015 179.322C263.015 179.322 271.665 184.583 263.55 187.525C255.435 190.468 253.518 190.425 253.518 190.425C253.072 186.01 261.767 184.495 261.767 184.495L263.015 179.322Z" fill="#F9B384"/>
<path d="M253.556 190.688C253.561 190.688 255.923 190.352 258.643 189.731C260.004 189.421 261.455 189.038 262.748 188.589C264.04 188.137 265.177 187.624 265.926 187.02L265.587 186.605C264.933 187.138 263.835 187.645 262.572 188.084C260.674 188.745 258.397 189.265 256.599 189.618C255.698 189.796 254.92 189.93 254.363 190.02C254.087 190.067 253.865 190.102 253.715 190.125C253.563 190.147 253.481 190.159 253.481 190.159L253.556 190.688Z" fill="#E28B6D"/>
<path d="M253.911 194.745C253.915 194.745 256.372 194.399 259.22 193.785C260.644 193.476 262.165 193.102 263.53 192.668C264.894 192.231 266.101 191.741 266.912 191.178L266.606 190.739C265.88 191.247 264.705 191.732 263.368 192.156C261.356 192.798 258.97 193.314 257.091 193.667C256.15 193.845 255.336 193.981 254.759 194.076C254.468 194.121 254.239 194.157 254.08 194.181C253.922 194.204 253.838 194.215 253.838 194.217L253.911 194.745Z" fill="#E28B6D"/>
<path d="M254.312 198.249C254.314 198.249 254.549 198.255 254.951 198.255C255.756 198.255 257.226 198.223 258.831 198.03C260.436 197.834 262.174 197.48 263.533 196.817L263.297 196.336C262.035 196.956 260.34 197.309 258.767 197.498C257.194 197.69 255.741 197.722 254.951 197.72C254.754 197.72 254.598 197.72 254.491 197.718C254.438 197.716 254.397 197.716 254.371 197.714C254.344 197.714 254.331 197.714 254.331 197.714L254.312 198.249Z" fill="#E28B6D"/>
<path d="M162.97 282.31C163.951 281.775 179.466 285.163 196.675 272.413L174.472 266.082L162.97 282.31Z" fill="#102048"/>
<path d="M245.546 222.865L245.563 222.839L245.617 222.818C245.595 222.835 245.568 222.85 245.546 222.865ZM261.553 208.668C262.292 207.613 262.929 206.062 261.998 205.174C261.029 204.243 259.445 205.062 258.429 205.94C256.638 207.481 255.011 209.169 253.507 210.969L216.025 217.932L164.666 230.415L173.496 241.686C199.176 243.559 213.801 244.04 229.873 241.205C238.065 239.758 245.386 238.269 250.849 233.818C252.148 232.752 253.379 230.967 252.533 229.516C251.962 228.536 250.774 228.281 249.58 228.292C252.326 227.644 254.99 226.698 257.519 225.461C258.649 224.915 259.906 224.059 259.88 222.807C259.863 221.909 259.135 221.149 258.301 220.828C257.466 220.507 256.546 220.535 255.653 220.599C252.229 220.856 248.842 221.605 245.627 222.812C251.48 218.726 257.434 214.493 261.553 208.668Z" fill="#B35341"/>
<path d="M175.542 213.562C175.542 213.562 225.565 189.755 241.882 190.825C258.2 191.895 257.665 212.225 251.512 221.052C245.36 229.88 230.915 241.65 177.682 238.172L175.542 213.562Z" fill="#102048"/>
<path d="M200.575 311.799C197.867 312.565 194.026 312.752 188.74 311.913C188.74 311.913 181.892 313.689 175.151 315.084C170.588 316.03 166.078 316.8 163.772 316.728C163.574 316.721 163.376 316.711 163.173 316.693C158.748 316.379 153.174 314.072 150.215 310.778L150.194 310.751C149.38 309.841 148.765 308.852 148.433 307.812C146.828 302.818 150.22 296.755 168.587 298.003C168.587 298.003 174.648 296.577 176.077 292.118C177.505 287.66 166.982 266.26 166.982 266.26L181.962 256.095L196.675 272.413C196.675 272.413 198.905 287.125 198.905 291.94C198.905 291.94 205.143 300.857 206.037 304.78C206.609 307.284 205.357 310.445 200.575 311.799Z" fill="#D3DFFF"/>
<path d="M116.349 176.303C118.065 175.642 119.813 175.109 121.581 174.617C122.465 174.375 123.356 174.15 124.263 173.973C124.715 173.881 125.173 173.801 125.637 173.739C125.87 173.707 126.102 173.684 126.345 173.664C126.603 173.652 126.855 173.654 127.095 173.677C129.016 173.881 130.759 174.484 132.489 175.124C134.211 175.779 135.896 176.513 137.551 177.309C139.211 178.094 140.826 178.967 142.415 179.885C144.003 180.803 145.565 181.766 147.084 182.796C150.102 184.88 153.005 187.168 155.505 189.864L155.187 190.181C153.842 188.965 152.443 187.814 150.987 186.738C149.542 185.646 148.047 184.623 146.518 183.652C143.485 181.672 140.3 179.93 137.059 178.321C135.437 177.519 133.786 176.776 132.108 176.113C130.432 175.488 128.716 174.816 127.008 174.585C126.794 174.555 126.591 174.546 126.393 174.548C126.181 174.559 125.959 174.576 125.74 174.6C125.299 174.647 124.856 174.711 124.413 174.788C123.528 174.942 122.64 175.122 121.756 175.321C119.99 175.721 118.229 176.19 116.5 176.725L116.349 176.303Z" fill="#1F3C88"/>
<path d="M125.252 246.332C131.271 245.93 137.186 246.36 141.48 244.86C146.072 243.255 158.065 244.325 158.065 244.325L151.467 234.83L124.717 241.517L125.252 246.332Z" fill="#B35341"/>
<path d="M125.52 228.81C119.367 218.912 119.367 199.385 127.125 190.557C135.991 180.469 154.945 176.647 164.842 188.417C174.74 200.187 192.93 243.255 196.675 272.412C196.675 272.412 176.612 265.725 162.97 282.31C162.97 282.31 145.047 241.382 141.302 226.402L131.137 234.427L125.52 228.81Z" fill="#1F3C88"/>
<path d="M141.302 226.402C141.302 226.402 138.627 225.422 134.882 227.918C134.882 227.918 105.636 227.295 99.1264 233.892C92.6171 240.49 97.6106 249.318 107.151 250.3C115.159 251.122 130.703 244.911 135.493 242.893C136.466 242.482 137.5 242.236 138.553 242.168L146.474 241.65L141.302 226.402Z" fill="#D3DFFF"/>
<path d="M152.982 90.7907C152.982 90.7907 151.02 84.2894 146.705 85.9136C142.39 87.54 144.687 96.0016 153.206 98.3556L152.982 90.7907Z" fill="#F9B384"/>
<path d="M148.386 126.638C150.516 128.14 152.786 129.433 155.194 130.349C157.599 131.252 160.137 131.823 162.683 131.761C165.223 131.731 167.739 131.104 170.009 129.944L170.863 129.51C171.143 129.356 171.399 129.161 171.669 128.99C172.202 128.632 172.754 128.299 173.229 127.862L173.981 127.252L174.358 126.946C174.48 126.841 174.589 126.721 174.706 126.608C175.162 126.15 175.625 125.694 176.096 125.243L176.416 125.512C175.994 126.019 175.565 126.527 175.13 127.03C175.02 127.154 174.917 127.284 174.8 127.404L174.438 127.746L173.711 128.433C173.238 128.908 172.683 129.285 172.144 129.683C171.87 129.878 171.61 130.092 171.324 130.267L170.448 130.768C168.102 132.091 165.398 132.805 162.695 132.822C159.992 132.827 157.309 132.243 154.856 131.188C152.395 130.141 150.13 128.694 148.128 126.967L148.386 126.638Z" fill="#1F3C88"/>
<path d="M136.869 209.323L139.187 217.434C139.975 220.132 140.713 222.844 141.536 225.529C142.343 228.219 143.146 230.909 143.992 233.584C144.416 234.922 144.833 236.264 145.297 237.586C145.524 238.25 145.728 238.924 145.968 239.583C146.207 240.242 146.44 240.903 146.667 241.569L146.281 241.731C145.684 240.452 145.124 239.155 144.595 237.845C144.07 236.533 143.591 235.206 143.106 233.882C142.156 231.224 141.316 228.532 140.52 225.829C139.748 223.118 138.984 220.404 138.314 217.667C137.636 214.932 136.996 212.189 136.462 209.419L136.869 209.323Z" fill="#102048"/>
<path d="M170.259 315.949C177.615 314.476 188.315 305.381 187.111 299.631C197.678 303.109 200.553 308.392 200.574 311.799C199.096 312.216 197.279 312.463 195.074 312.463C193.241 312.463 191.14 312.293 188.74 311.913C188.74 311.913 177.414 314.81 170.259 315.949Z" fill="#C1CEF3"/>
<path d="M163.173 316.693C158.748 316.379 153.174 314.072 150.215 310.778L150.194 310.751C149.878 310.323 149.584 309.877 149.327 309.417C150.9 310.885 152.612 312.082 154.458 312.998C155.383 313.436 156.32 313.858 157.299 314.153C157.775 314.335 158.272 314.442 158.765 314.581C159.251 314.731 159.76 314.791 160.263 314.881C161.379 315.069 162.515 315.172 163.651 315.172C166.582 315.172 169.515 314.487 172.129 312.805C170.765 314.485 168.732 315.623 166.597 316.197C165.479 316.496 164.329 316.657 163.173 316.693Z" fill="#8B9ECF"/>
<path d="M151.043 91.713C150.944 91.1288 150.669 90.5831 150.346 90.0866C150.016 89.5944 149.622 89.1343 149.167 88.8133C148.711 88.4945 148.216 88.3361 147.799 88.5608C147.361 88.7791 147.014 89.312 146.711 89.8512L146.415 89.7485C146.543 89.1129 146.777 88.4153 147.441 87.9552C147.769 87.7262 148.218 87.6449 148.607 87.7155C148.999 87.7861 149.341 87.9531 149.631 88.1628C150.208 88.5887 150.631 89.1408 150.939 89.7442C151.238 90.3456 151.452 91.024 151.357 91.7195L151.043 91.713Z" fill="#E28B6D"/>
<path d="M176.498 91.5504C176.31 92.4728 175.615 93.1105 174.945 92.9757C174.276 92.8387 173.886 91.9806 174.074 91.0561C174.262 90.1338 174.957 89.496 175.626 89.633C176.296 89.77 176.686 90.6281 176.498 91.5504Z" fill="#102048"/>
<path d="M166.074 91.1459C165.923 92.0768 165.253 92.7402 164.579 92.6311C163.905 92.5198 163.481 91.6766 163.632 90.7479C163.784 89.8191 164.453 89.1536 165.128 89.2649C165.802 89.374 166.226 90.2171 166.074 91.1459Z" fill="#102048"/>
<path d="M170.499 92.4022C170.562 93.1619 170.593 93.9173 170.602 94.6556C170.631 94.9402 170.763 95.182 170.999 95.4388C171.227 95.6956 171.522 95.961 171.777 96.3334C171.904 96.5174 172.005 96.7507 172.054 96.9818C172.107 97.2108 172.114 97.4376 172.099 97.6623C172.061 98.1074 171.903 98.5461 171.607 98.9056C171.462 99.0875 171.268 99.2373 171.057 99.3465C170.838 99.4406 170.602 99.5006 170.374 99.4899C169.917 99.4706 169.524 99.293 169.197 99.064L169.345 98.7879C169.692 98.8992 170.038 98.987 170.343 98.9292C170.646 98.8864 170.888 98.7259 171.049 98.4755C171.376 97.9876 171.424 97.2257 171.108 96.7699C170.943 96.5067 170.67 96.2585 170.411 95.931C170.149 95.6229 169.899 95.1564 169.917 94.6706C169.975 93.8938 170.067 93.1319 170.186 92.3744L170.499 92.4022Z" fill="#E28B6D"/>
<path d="M161.875 87.9231C162.301 87.4973 162.808 87.1442 163.377 86.8895C163.943 86.6348 164.587 86.4957 165.239 86.5343C165.891 86.5728 166.531 86.8146 167.04 87.1955C167.554 87.5722 167.95 88.0601 168.243 88.5887L167.995 88.7812C167.553 88.4046 167.126 88.0494 166.659 87.7883C166.195 87.5272 165.697 87.3667 165.183 87.3325C164.145 87.2512 163.09 87.6642 162.059 88.1756L161.875 87.9231Z" fill="#102048"/>
<path d="M172.76 88.839C172.937 88.2677 173.41 87.8204 173.932 87.5529C174.458 87.2768 175.052 87.1613 175.638 87.1698C176.225 87.1827 176.815 87.3346 177.327 87.6342C177.838 87.9295 178.261 88.3832 178.482 88.9118L178.219 89.083C177.492 88.3511 176.578 88.0023 175.618 87.9681C174.671 87.9488 173.668 88.2099 173.041 88.976L172.76 88.839Z" fill="#102048"/>
<path d="M165.456 101.401L172.552 101.906C172.552 101.906 168.593 107.157 165.456 101.401Z" fill="white"/>
<path d="M176.858 101.748C175.472 101.095 174.515 99.6825 174.515 98.0454C174.515 95.7812 176.355 93.9473 178.618 93.9473C178.8 93.9473 178.982 93.958 179.159 93.9836C178.645 96.6372 177.912 99.355 176.858 101.748Z" fill="#F59872"/>
<path d="M161.097 101.213C158.832 101.213 156.996 99.3764 156.996 97.1101C156.996 94.846 158.832 93.0099 161.097 93.0099C163.363 93.0099 165.199 94.846 165.199 97.1101C165.199 99.3764 163.363 101.213 161.097 101.213Z" fill="#F59872"/>
<path d="M175.23 -9.0553H119.983C116.849 -9.0553 114.286 -6.49165 114.286 -3.35779V20.35C114.286 23.4816 116.849 26.0453 119.983 26.0453H125.084L133.376 38.5094L135.842 26.0453H175.23C178.363 26.0453 180.926 23.4816 180.926 20.35V-3.35779C180.926 -6.49165 178.363 -9.0553 175.23 -9.0553Z" fill="white"/>
</svg>
